SplineFontDB: 3.0
FontName: LibraSansModern-Italic
FullName: LibraSansModern-Italic
FamilyName: Libra Sans Modern
Weight: Normal
Copyright: Libra Sans Modern, created by Context Ltd., is based on Libra Sans and Liberation Sans, which are based on Arimo, designed by Steve Matteson as an innovative, refreshing sans serif design that is metrically compatible with Arial. The new moment in Libra Sans Modern is that it includes the so-called "Bulgarian" letterform model, which aims to represent the modern Bulgarian view of Cyrillic typography. Libra Sans Modern is a free-to-use non-commercial font released under the SIL Open Font License \\(OFL\\) by Stefan Peev \\(Context Ltd. / http://www.contextbg.net\\).
Version: 001.001
ItalicAngle: -12
UnderlinePosition: -358
UnderlineWidth: 73
Ascent: 800
Descent: 200
InvalidEm: 0
sfntRevision: 0x00010000
LayerCount: 2
Layer: 0 0 "Back" 1
Layer: 1 0 "Fore" 0
XUID: [1021 174 -1597659960 30289]
StyleMap: 0x0001
FSType: 0
OS2Version: 3
OS2_WeightWidthSlopeOnly: 0
OS2_UseTypoMetrics: 0
CreationTime: 1455534663
ModificationTime: 1455542832
PfmFamily: 17
TTFWeight: 400
TTFWidth: 5
LineGap: 150
VLineGap: 0
Panose: 2 0 5 3 2 0 0 9 0 4
OS2TypoAscent: 728
OS2TypoAOffset: 0
OS2TypoDescent: -208
OS2TypoDOffset: 0
OS2TypoLinegap: 150
OS2WinAscent: 905
OS2WinAOffset: 0
OS2WinDescent: 212
OS2WinDOffset: 0
HheadAscent: 728
HheadAOffset: 0
HheadDescent: -208
HheadDOffset: 0
OS2SubXSize: 650
OS2SubYSize: 600
OS2SubXOff: -16
OS2SubYOff: 75
OS2SupXSize: 650
OS2SupYSize: 600
OS2SupXOff: 74
OS2SupYOff: 350
OS2StrikeYSize: 73
OS2StrikeYPos: 316
OS2CapHeight: 688
OS2XHeight: 528
OS2Vendor: 'CNTX'
OS2CodePages: 600001bf.00000000
OS2UnicodeRanges: e0000aff.500078ff.00000021.00000000
Lookup: 1 0 0 "'aalt' Access All Alternates lookup 0" { "'aalt' Access All Alternates lookup 0 subtable"  } ['aalt' ('cyrl' <'BGR ' 'MKD ' 'RUS ' 'SRB ' 'dflt' > 'grek' <'dflt' > 'hebr' <'dflt' > 'latn' <'dflt' > ) ]

StartChar: exclam
Encoding: 33 33 2
Width: 278
GlyphClass: 2
Flags: MW
HStem: 0 98<57 132 38 152> 668 20G<172 268 268 268>
VStem: 38 230
LayerCount: 2
Fore
SplineSet
268 688 m 1
 161 194 l 1
 88 194 l 1
 172 688 l 1
 268 688 l 1
132 0 m 1
 38 0 l 1
 57 98 l 1
 152 98 l 1
 132 0 l 1
EndSplineSet
EndChar

StartChar: quotedbl
Encoding: 34 34 3
Width: 355
GlyphClass: 2
Flags: MW
HStem: 472 216<122 160 91 212 302 340 122 271>
VStem: 91 301<472 688>
LayerCount: 2
Fore
SplineSet
392 688 m 1
 340 472 l 1
 271 472 l 1
 302 688 l 1
 392 688 l 1
212 688 m 1
 160 472 l 1
 91 472 l 1
 122 688 l 1
 212 688 l 1
EndSplineSet
EndChar

StartChar: numbersign
Encoding: 35 35 4
Width: 556
GlyphClass: 2
Flags: MW
HStem: 0 21G<76 130 76 76 306 360 306 306> 199 53<19 117 19 129 183 348 19 171 414 541> 432 53<44 167 44 178 44 222 232 398 463 566>
LayerCount: 2
Fore
SplineSet
566 432 m 1
 452 432 l 1
 414 252 l 1
 541 252 l 1
 541 199 l 1
 403 199 l 1
 360 0 l 1
 306 0 l 1
 348 199 l 1
 171 199 l 1
 130 0 l 1
 76 0 l 1
 117 199 l 1
 19 199 l 1
 19 252 l 1
 129 252 l 1
 167 432 l 1
 44 432 l 1
 44 485 l 1
 178 485 l 1
 221 684 l 1
 275 684 l 1
 232 485 l 1
 409 485 l 1
 452 684 l 1
 506 684 l 1
 463 485 l 1
 566 485 l 1
 566 432 l 1
398 432 m 1
 222 432 l 1
 183 252 l 1
 360 252 l 1
 398 432 l 1
EndSplineSet
EndChar

StartChar: dollar
Encoding: 36 36 5
Width: 556
GlyphClass: 2
Flags: MW
HStem: 11 72<208 222> 604 69<379 392>
VStem: -6 80<184 202> 88 89<475 530.5 475 551.5> 433 90<165 227.5>
LayerCount: 2
Fore
SplineSet
523 208 m 0
 523 87 431 15 264 10 c 1
 249 -68 l 1
 193 -68 l 1
 208 11 l 1
 77 20 11 80 -6 184 c 1
 74 202 l 1
 90 127 135 90 222 83 c 1
 269 324 l 1
 220 337 184 351 160 366 c 0
 113 395 88 436 88 497 c 0
 88 606 193 676 337 676 c 1
 350 740 l 1
 405 740 l 1
 392 673 l 1
 493 661 555 611 571 531 c 1
 495 509 l 1
 480 563 442 595 379 604 c 1
 337 388 l 1
 465 353 523 293 523 208 c 0
433 202 m 0
 433 253 405 282 322 309 c 1
 278 83 l 1
 381 88 433 128 433 202 c 0
177 497 m 0
 177 453 200 428 284 403 c 1
 324 605 l 1
 229 602 177 564 177 497 c 0
EndSplineSet
EndChar

StartChar: percent
Encoding: 37 37 6
Width: 889
GlyphClass: 2
Flags: MW
HStem: -6 55<633.5 667.5 633.5 680.5> 256 55<179.5 214 179.5 227.5> 379 53<697.5 738.5> 641 53<244 285.5>
VStem: 71 68<373 416.5 373 434.5> 325 68<536.5 581.5> 525 67<111 154.5 111 173> 778 68<275.5 320.5>
LayerCount: 2
Fore
SplineSet
788 688 m 1
 208 0 l 1
 127 0 l 1
 706 688 l 1
 788 688 l 1
266 694 m 0
 347 694 393 642 393 543 c 0
 393 475 375 393 339 338 c 0
 304 283 257 256 198 256 c 0
 118 256 71 311 71 411 c 0
 71 458 79 505 94 552 c 0
 125 645 182 694 266 694 c 0
266 641 m 0
 222 641 196 622 175 578 c 0
 165 557 156 528 149 493 c 0
 142 458 139 429 139 404 c 0
 139 342 159 311 200 311 c 0
 228 311 251 322 268 343 c 0
 286 365 300 397 310 440 c 0
 320 483 325 521 325 552 c 0
 325 611 305 641 266 641 c 0
720 432 m 0
 801 432 846 379 846 282 c 0
 846 213 829 131 793 76 c 0
 757 23 709 -6 652 -6 c 0
 571 -6 525 50 525 149 c 0
 525 197 532 244 547 290 c 0
 578 383 635 432 720 432 c 0
719 379 m 0
 676 379 650 360 629 316 c 0
 618 295 609 267 602 232 c 0
 595 197 592 167 592 142 c 0
 592 80 613 49 654 49 c 0
 681 49 704 60 722 82 c 0
 740 104 754 136 763 179 c 0
 773 222 778 260 778 291 c 0
 778 350 758 379 719 379 c 0
EndSplineSet
EndChar

StartChar: ampersand
Encoding: 38 38 7
Width: 667
GlyphClass: 2
Flags: MW
HStem: -10 64<184.5 247.5 184.5 252.5> -6 69<543.5 556.5> 633 59<367 427>
VStem: 16 83<137 196.5> 212 77<495.5 547.5 495.5 562> 483 76<545 581.5>
LayerCount: 2
Fore
SplineSet
545 361 m 1xbc
 609 334 l 1
 564 231 517 154 467 102 c 1
 494 77 528 63 559 63 c 0
 578 63 596 66 613 71 c 1
 607 5 l 1
 588 -2 567 -6 546 -6 c 0x7c
 497 -6 453 14 414 54 c 1
 356 11 290 -10 215 -10 c 0
 92 -10 16 60 16 171 c 0
 16 222 31 265 61 298 c 0
 92 331 147 363 226 394 c 1
 217 433 212 470 212 506 c 0
 212 618 288 692 407 692 c 0
 496 692 559 641 559 564 c 0
 559 526 546 493 519 465 c 0
 492 437 445 410 376 383 c 2
 315 358 l 1
 340 285 376 217 422 154 c 1
 461 198 494 252 545 361 c 1xbc
221 54 m 0xbc
 274 54 323 71 368 104 c 1
 320 161 274 246 245 330 c 1
 136 286 99 245 99 173 c 0
 99 101 148 54 221 54 c 0xbc
289 508 m 0
 289 483 292 454 298 421 c 1
 402 461 483 483 483 561 c 0
 483 602 451 633 403 633 c 0
 331 633 289 587 289 508 c 0
EndSplineSet
EndChar

StartChar: quotesingle
Encoding: 39 39 8
Width: 191
GlyphClass: 2
Flags: MW
HStem: 472 216<129 167 99 219>
VStem: 99 120
LayerCount: 2
Fore
SplineSet
219 688 m 1
 167 472 l 1
 99 472 l 1
 129 688 l 1
 219 688 l 1
EndSplineSet
EndChar

StartChar: parenleft
Encoding: 40 40 9
Width: 333
GlyphClass: 2
Flags: MW
HStem: -207 21G<151 236 151 151>
VStem: 47 88<69.5 244 64.5 256.5>
LayerCount: 2
Fore
SplineSet
333 725 m 1
 417 725 l 1
 229 559 135 360 135 128 c 0
 135 1 169 -110 236 -207 c 1
 151 -207 l 1
 82 -111 47 3 47 136 c 0
 47 377 146 581 333 725 c 1
EndSplineSet
EndChar

StartChar: parenright
Encoding: 41 41 10
Width: 333
GlyphClass: 2
Flags: MW
HStem: -207 21G<-97 -12 -97 -97>
VStem: 185 88<274 448 260.5 453.5>
LayerCount: 2
Fore
SplineSet
-12 -207 m 1
 -97 -207 l 1
 91 -41 185 158 185 390 c 0
 185 517 151 628 84 725 c 1
 169 725 l 1
 238 628 273 514 273 382 c 0
 273 139 173 -64 -12 -207 c 1
EndSplineSet
EndChar

StartChar: asterisk
Encoding: 42 42 11
Width: 389
GlyphClass: 2
Flags: MW
HStem: 668 20G<205 271 271 271>
VStem: 211 54<543 544>
LayerCount: 2
Fore
SplineSet
271 688 m 1
 265 544 l 1
 394 594 l 1
 416 530 l 1
 278 494 l 1
 369 372 l 1
 311 337 l 1
 237 463 l 1
 161 338 l 1
 103 373 l 1
 195 494 l 1
 59 530 l 1
 81 595 l 1
 211 543 l 1
 205 688 l 1
 271 688 l 1
EndSplineSet
EndChar

StartChar: plus
Encoding: 43 43 12
Width: 584
GlyphClass: 2
Flags: MW
HStem: 297 71<63 271 63 271 342 549>
VStem: 271 71<88 297 88 297 368 577>
LayerCount: 2
Fore
SplineSet
549 297 m 1
 342 297 l 1
 342 88 l 1
 271 88 l 1
 271 297 l 1
 63 297 l 1
 63 368 l 1
 271 368 l 1
 271 577 l 1
 342 577 l 1
 342 368 l 1
 549 368 l 1
 549 297 l 1
EndSplineSet
EndChar

StartChar: comma
Encoding: 44 44 13
Width: 278
GlyphClass: 2
Flags: MW
HStem: -128 235<66 78 18 162>
VStem: 18 144
LayerCount: 2
Fore
SplineSet
78 -128 m 1
 18 -128 l 1
 57 -83 81 -41 89 0 c 1
 46 0 l 1
 66 107 l 1
 162 107 l 1
 146 25 l 2
 134 -36 114 -84 78 -128 c 1
EndSplineSet
EndChar

StartChar: hyphen
Encoding: 45 45 14
Width: 333
GlyphClass: 2
Flags: MW
HStem: 227 78<66 295 51 311>
VStem: 51 260<227 305>
LayerCount: 2
Fore
SplineSet
295 227 m 1
 51 227 l 1
 66 305 l 1
 311 305 l 1
 295 227 l 1
EndSplineSet
EndChar

StartChar: period
Encoding: 46 46 15
Width: 278
GlyphClass: 2
Flags: MW
HStem: 0 107<60 134 39 155>
VStem: 39 116<0 107>
LayerCount: 2
Fore
SplineSet
134 0 m 1
 39 0 l 1
 60 107 l 1
 155 107 l 1
 134 0 l 1
EndSplineSet
EndChar

StartChar: slash
Encoding: 47 47 16
Width: 278
GlyphClass: 2
Flags: MW
HStem: -10 21G<-57 22 -57 -57>
LayerCount: 2
Fore
SplineSet
22 -10 m 1
 -57 -10 l 1
 287 725 l 1
 364 725 l 1
 22 -10 l 1
EndSplineSet
EndChar

StartChar: zero
Encoding: 48 48 17
Width: 556
GlyphClass: 2
Flags: MW
HStem: -10 72<204.5 264.5 204.5 298.5> 627 71<327.5 386.5>
VStem: 43 86<163.5 244.5 163.5 256.5> 462 86<444.5 525.5>
LayerCount: 2
Fore
SplineSet
357 698 m 0
 477 698 548 614 548 471 c 0
 548 388 535 307 510 229 c 0
 459 73 365 -10 232 -10 c 0
 115 -10 43 79 43 227 c 0
 43 286 50 345 65 406 c 0
 80 467 100 519 126 563 c 0
 178 651 253 698 357 698 c 0
240 62 m 0
 289 62 329 79 360 114 c 0
 391 149 416 202 434 275 c 0
 453 348 462 414 462 475 c 0
 462 576 421 627 352 627 c 0
 303 627 262 610 231 575 c 0
 200 540 176 487 157 414 c 0
 138 341 129 275 129 214 c 0
 129 113 169 62 240 62 c 0
EndSplineSet
EndChar

StartChar: one
Encoding: 49 49 18
Width: 556
GlyphClass: 2
Flags: MW
HStem: 0 75<41 216 304 457 26 216> 668 20G<342 423 423 423>
LayerCount: 2
Fore
SplineSet
457 0 m 1
 26 0 l 1
 41 75 l 1
 216 75 l 1
 317 597 l 1
 141 488 l 1
 158 576 l 1
 342 688 l 1
 423 688 l 1
 304 75 l 1
 472 75 l 1
 457 0 l 1
EndSplineSet
EndChar

StartChar: two
Encoding: 50 50 19
Width: 556
GlyphClass: 2
Flags: MW
HStem: 0 75<108 449> 626 72<300.5 370.5>
VStem: 103 83<510 528> 449 93<509 551>
LayerCount: 2
Fore
SplineSet
449 0 m 1
 -6 0 l 1
 6 62 l 1
 150 302 449 322 449 519 c 0
 449 583 405 626 336 626 c 0
 265 626 210 587 186 510 c 1
 103 528 l 1
 138 639 219 698 342 698 c 0
 401 698 449 682 486 650 c 0
 523 619 542 577 542 526 c 0
 542 492 534 459 517 427 c 0
 500 396 475 365 442 336 c 0
 409 307 358 272 291 229 c 0
 195 169 139 122 108 75 c 1
 463 75 l 1
 449 0 l 1
EndSplineSet
EndChar

StartChar: three
Encoding: 51 51 20
Width: 556
GlyphClass: 2
Flags: MW
HStem: -10 73<224 310 224 332.5> 312 76<229 274 214 276> 626 72<307.5 378.5>
VStem: 101 87<512 519> 411 91<156.5 233.5> 454 93<482 558>
LayerCount: 2
Fore
SplineSet
229 388 m 1xf8
 276 388 l 2
 396 388 454 436 454 528 c 0
 454 588 411 626 346 626 c 0
 269 626 209 584 188 512 c 1
 101 519 l 1
 138 640 228 698 351 698 c 0
 472 698 547 634 547 530 c 0xf4
 547 431 481 365 368 350 c 1
 367 348 l 1
 452 331 502 279 502 199 c 0
 502 75 408 -10 257 -10 c 0
 132 -10 49 59 23 165 c 1
 104 188 l 1
 123 113 184 63 264 63 c 0
 356 63 411 116 411 197 c 0
 411 270 358 312 274 312 c 2
 214 312 l 1
 229 388 l 1xf8
EndSplineSet
EndChar

StartChar: four
Encoding: 52 52 21
Width: 556
GlyphClass: 2
Flags: MW
HStem: 0 21G<295 383 295 295> 156 69<111 325 427 505> 668 20G<419 517 517 517>
LayerCount: 2
Fore
SplineSet
505 156 m 1
 413 156 l 1
 383 0 l 1
 295 0 l 1
 325 156 l 1
 6 156 l 1
 20 224 l 1
 419 688 l 1
 517 688 l 1
 427 225 l 1
 519 225 l 1
 505 156 l 1
339 225 m 1
 403 565 l 1
 111 225 l 1
 339 225 l 1
EndSplineSet
EndChar

StartChar: five
Encoding: 53 53 22
Width: 556
GlyphClass: 2
Flags: MW
HStem: -10 72<213 305.5 213 331> 367 72<285.5 334> 613 75<233 544 233 233>
VStem: 22 80<151 172> 420 93<181 277>
LayerCount: 2
Fore
SplineSet
73 318 m 1
 167 688 l 1
 559 688 l 1
 544 613 l 1
 233 613 l 1
 178 395 l 1
 210 423 258 439 313 439 c 0
 433 439 513 364 513 247 c 0
 513 87 415 -10 247 -10 c 0
 126 -10 51 44 22 151 c 1
 102 172 l 1
 122 97 175 62 251 62 c 0
 360 62 420 125 420 237 c 0
 420 317 372 367 296 367 c 0
 243 367 198 351 159 318 c 1
 73 318 l 1
EndSplineSet
EndChar

StartChar: six
Encoding: 54 54 23
Width: 556
GlyphClass: 2
Flags: MW
HStem: -10 71<229.5 261 261 268> 377 68<287.5 344> 627 71<314.5 394>
VStem: 56 85<191.5 258.5 163.5 266> 420 91<227 285 184 292.5>
LayerCount: 2
Fore
SplineSet
261 -10 m 2
 198 -10 148 12 111 55 c 0
 74 99 56 156 56 227 c 0
 56 305 70 382 97 459 c 0
 152 612 248 698 372 698 c 0
 469 698 533 650 556 562 c 1
 475 544 l 1
 459 597 420 627 368 627 c 0
 261 627 183 527 150 354 c 1
 189 413 251 445 324 445 c 0
 380 445 425 428 459 393 c 0
 495 358 511 314 511 256 c 0
 511 112 404 -10 268 -10 c 2
 261 -10 l 2
141 206 m 0
 141 121 188 61 263 61 c 0
 308 61 346 79 375 116 c 0
 405 153 420 199 420 255 c 0
 420 330 380 377 308 377 c 0
 216 377 141 311 141 206 c 0
EndSplineSet
EndChar

StartChar: seven
Encoding: 55 55 24
Width: 556
GlyphClass: 2
Flags: MW
HStem: 0 21G<121 212 121 121> 613 75<118 481 104 587>
VStem: 121 91<0 0>
LayerCount: 2
Fore
SplineSet
212 0 m 1
 121 0 l 1
 134 67 154 130 181 189 c 0
 208 249 242 308 283 367 c 0
 324 426 390 508 481 613 c 1
 104 613 l 1
 118 688 l 1
 587 688 l 1
 573 617 l 1
 500 532 450 471 422 435 c 0
 395 399 370 364 348 330 c 0
 282 229 238 127 212 0 c 1
EndSplineSet
EndChar

StartChar: eight
Encoding: 56 56 25
Width: 556
GlyphClass: 2
Flags: MW
HStem: -10 67<210.5 301.5 210.5 325.5> 328 68<281.5 318.5> 632 66<290.5 375>
VStem: 26 91<137.5 222.5 137.5 224.5> 107 88<480 545.5 470.5 571.5> 415 89<165 247 143 249> 459 91<487.5 563>
LayerCount: 2
Fore
SplineSet
344 698 m 0xe8
 468 698 550 633 550 533 c 0xea
 550 441 490 373 394 358 c 1
 394 356 l 1
 465 335 504 283 504 211 c 0
 504 75 407 -10 244 -10 c 0
 105 -10 26 60 26 176 c 0xf4
 26 273 86 344 201 369 c 1
 201 371 l 1
 141 396 107 446 107 514 c 0
 107 629 197 698 344 698 c 0xe8
321 396 m 0
 409 396 459 444 459 531 c 0
 459 595 417 632 333 632 c 0
 248 632 195 587 195 504 c 0
 195 437 242 396 321 396 c 0
276 328 m 0
 175 328 117 271 117 174 c 0
 117 101 168 57 253 57 c 0
 350 57 415 117 415 213 c 0xf4
 415 285 361 328 276 328 c 0
EndSplineSet
EndChar

StartChar: nine
Encoding: 57 57 26
Width: 556
GlyphClass: 2
Flags: MW
HStem: -10 71<195.5 269> 235 69<247.5 283 247.5 306.5> 627 71<326 333 333 366.5>
VStem: 80 89<430 436 436 490.5 389.5 507.5> 452 84<489 497 497 536.5>
LayerCount: 2
Fore
SplineSet
438 334 m 1
 395 268 340 235 273 235 c 0
 156 235 80 318 80 430 c 2
 80 436 l 2
 80 579 187 698 326 698 c 2
 333 698 l 2
 461 698 536 610 536 467 c 0
 536 417 530 364 517 309 c 0
 505 254 489 207 468 166 c 0
 407 43 317 -10 221 -10 c 0
 121 -10 59 35 34 125 c 1
 111 147 l 1
 127 92 166 61 225 61 c 0
 328 61 402 158 438 334 c 1
452 497 m 2
 452 576 402 627 331 627 c 0
 235 627 169 552 169 429 c 0
 169 350 212 304 283 304 c 0
 375 306 452 376 452 489 c 2
 452 497 l 2
EndSplineSet
EndChar

StartChar: colon
Encoding: 58 58 27
Width: 278
GlyphClass: 2
Flags: MW
HStem: 0 101<60 135 40 155> 427 101<143 218 123 238>
VStem: 40 198
LayerCount: 2
Fore
SplineSet
218 427 m 1
 123 427 l 1
 143 528 l 1
 238 528 l 1
 218 427 l 1
135 0 m 1
 40 0 l 1
 60 101 l 1
 155 101 l 1
 135 0 l 1
EndSplineSet
EndChar

StartChar: semicolon
Encoding: 59 59 28
Width: 278
GlyphClass: 2
Flags: MW
HStem: 427 101<149 225 129 244>
VStem: 19 225
LayerCount: 2
Fore
SplineSet
79 -128 m 1
 19 -128 l 1
 58 -83 81 -41 89 0 c 1
 46 0 l 1
 66 101 l 1
 161 101 l 1
 146 25 l 2
 135 -36 114 -84 79 -128 c 1
225 427 m 1
 129 427 l 1
 149 528 l 1
 244 528 l 1
 225 427 l 1
EndSplineSet
EndChar

StartChar: less
Encoding: 60 60 29
Width: 584
GlyphClass: 2
Flags: MW
HStem: 75 508<550 550>
VStem: 64 67<329 329 329 379 329 379>
LayerCount: 2
Fore
SplineSet
550 75 m 1
 64 279 l 1
 64 379 l 1
 550 583 l 1
 550 508 l 1
 131 329 l 1
 550 150 l 1
 550 75 l 1
EndSplineSet
EndChar

StartChar: equal
Encoding: 61 61 30
Width: 584
GlyphClass: 2
Flags: MW
HStem: 168 72<63 549 63 549> 418 72<63 549 63 549>
LayerCount: 2
Fore
SplineSet
549 418 m 1
 63 418 l 1
 63 490 l 1
 549 490 l 1
 549 418 l 1
549 168 m 1
 63 168 l 1
 63 240 l 1
 549 240 l 1
 549 168 l 1
EndSplineSet
EndChar

StartChar: greater
Encoding: 62 62 31
Width: 584
GlyphClass: 2
Flags: MW
HStem: 75 508<64 64>
VStem: 483 67<329 329>
LayerCount: 2
Fore
SplineSet
550 279 m 1
 64 75 l 1
 64 150 l 1
 483 329 l 1
 64 508 l 1
 64 583 l 1
 550 379 l 1
 550 279 l 1
EndSplineSet
EndChar

StartChar: question
Encoding: 63 63 32
Width: 556
GlyphClass: 2
Flags: MW
HStem: 0 98<165 241 146 260> 620 78<288.5 372>
VStem: 78 80<492 512> 462 91<493.5 546>
LayerCount: 2
Fore
SplineSet
342 698 m 0
 406 698 457 682 495 649 c 0
 534 617 553 575 553 524 c 0
 553 398 465 352 388 307 c 0
 347 284 318 263 302 244 c 0
 286 226 276 206 271 184 c 1
 186 184 l 1
 190 210 198 233 209 252 c 0
 220 271 234 289 251 304 c 0
 268 319 299 339 343 364 c 0
 378 384 402 401 417 414 c 0
 446 441 462 473 462 514 c 0
 462 578 410 620 334 620 c 0
 243 620 183 572 158 492 c 1
 78 512 l 1
 118 639 209 698 342 698 c 0
241 0 m 1
 146 0 l 1
 165 98 l 1
 260 98 l 1
 241 0 l 1
EndSplineSet
EndChar

StartChar: at
Encoding: 64 64 33
Width: 1015
GlyphClass: 2
Flags: MW
HStem: -138 62<475 482 482 533 475 538.5> 51 64<423.5 478.5> 476 62<519 525 519 525 525 531> 507 20G<694 771 771 771> 663 62<555 566 566 663>
VStem: 95 69<141.5 250 141.5 381.5> 280 81<239 247 247 301 200.5 324> 649 47 878 67<295.5 363 363 369 274.5 456>
LayerCount: 2
Fore
SplineSet
945 369 m 2xdf80
 945 363 l 2
 945 186 852 51 732 51 c 2
 727 51 l 2
 660 51 625 81 625 137 c 2
 627 171 l 1
 624 171 l 1
 581 91 516 51 441 51 c 0
 340 51 280 120 280 239 c 2
 280 247 l 2
 280 401 388 538 519 538 c 2
 525 538 l 2xef80
 596 538 645 508 672 449 c 1
 675 449 l 1
 694 527 l 1
 771 527 l 1
 714 280 l 2
 702 227 696 185 696 156 c 0
 696 125 709 110 735 110 c 0
 814 110 878 223 878 368 c 0
 878 544 759 663 567 663 c 0
 488 663 419 646 358 611 c 0
 297 576 250 526 215 460 c 0
 181 395 164 321 164 240 c 2
 164 233 l 2
 164 50 286 -76 475 -76 c 2
 482 -76 l 2
 584 -76 682 -50 776 3 c 1
 803 -51 l 1
 708 -108 595 -138 482 -138 c 0
 246 -138 95 12 95 240 c 2
 95 250 l 2
 95 513 297 725 555 725 c 2
 566 725 l 2
 802 725 945 582 945 369 c 2xdf80
649 365 m 0
 649 432 602 476 531 476 c 2
 525 476 l 2
 429 476 361 362 361 240 c 0
 361 161 391 115 456 115 c 0
 508 115 557 146 593 195 c 0
 629 246 649 318 649 365 c 0
EndSplineSet
EndChar

StartChar: A
Encoding: 65 65 34
Width: 667
GlyphClass: 2
Flags: MW
HStem: 0 21G<-49 52 -49 -49 518 613 518 518> 201 73<210 468 210 481 169 468> 668 20G<365 471 471 471>
LayerCount: 2
Fore
SplineSet
613 0 m 1
 518 0 l 1
 481 201 l 1
 169 201 l 1
 52 0 l 1
 -49 0 l 1
 365 688 l 1
 471 688 l 1
 613 0 l 1
418 544 m 1
 405 618 l 1
 401 609 395 598 387 584 c 2
 210 274 l 1
 468 274 l 1
 418 544 l 1
EndSplineSet
EndChar

StartChar: B
Encoding: 66 66 35
Width: 667
GlyphClass: 2
Flags: MW
HStem: 0 75<138 318 318 321> 323 73<187 362 201 362 362 365> 613 75<243 243 243 405>
VStem: 516 93<169.5 250.5> 536 97<484.5 551.5>
LayerCount: 2
Fore
SplineSet
31 0 m 1xf0
 164 688 l 1
 413 688 l 2
 549 688 633 628 633 531 c 0xe8
 633 438 578 382 467 363 c 1
 558 348 609 291 609 214 c 0
 609 75 502 0 321 0 c 2
 31 0 l 1xf0
243 613 m 1
 201 396 l 1
 362 396 l 2
 478 396 536 438 536 521 c 0
 536 582 492 613 405 613 c 2
 243 613 l 1
187 323 m 1
 138 75 l 1
 318 75 l 2
 454 75 516 123 516 216 c 0xf0
 516 285 462 323 365 323 c 2
 187 323 l 1
EndSplineSet
EndChar

StartChar: C
Encoding: 67 67 36
Width: 722
GlyphClass: 2
Flags: MW
HStem: -10 76<285.5 396 285.5 410.5> 622 76<377.5 496.5>
VStem: 55 92<211.5 318>
LayerCount: 2
Fore
SplineSet
593 208 m 1
 663 165 l 1
 582 42 479 -10 342 -10 c 0
 162 -10 55 104 55 278 c 0
 55 358 72 430 106 495 c 0
 175 624 303 698 452 698 c 0
 593 698 696 637 728 530 c 1
 640 503 l 1
 616 576 546 622 447 622 c 0
 266 622 147 483 147 276 c 0
 147 147 223 66 348 66 c 0
 444 66 529 115 593 208 c 1
EndSplineSet
EndChar

StartChar: D
Encoding: 68 68 37
Width: 722
GlyphClass: 2
Flags: MW
HStem: 0 75<138 277 277 281 281 283> 613 75<243 243 243 361>
VStem: 595 95<381 386 265 387 265 458.5>
LayerCount: 2
Fore
SplineSet
164 688 m 1
 363 688 l 2
 465 688 545 661 603 607 c 0
 661 554 690 480 690 386 c 2
 690 376 l 2
 690 154 518 0 283 0 c 2
 281 0 l 1
 31 0 l 1
 164 688 l 1
243 613 m 1
 138 75 l 1
 277 75 l 1
 284 75 l 2
 469 75 595 196 595 381 c 2
 595 387 l 2
 595 530 509 613 361 613 c 2
 243 613 l 1
EndSplineSet
EndChar

StartChar: E
Encoding: 69 69 38
Width: 667
GlyphClass: 2
Flags: MW
HStem: 0 76<139 563> 316 75<200 575 185 589> 612 76<243 662 243 243>
LayerCount: 2
Fore
SplineSet
563 0 m 1
 31 0 l 1
 164 688 l 1
 676 688 l 1
 662 612 l 1
 243 612 l 1
 200 391 l 1
 589 391 l 1
 575 316 l 1
 185 316 l 1
 139 76 l 1
 578 76 l 1
 563 0 l 1
EndSplineSet
EndChar

StartChar: F
Encoding: 70 70 39
Width: 611
GlyphClass: 2
Flags: MW
HStem: 0 21G<31 124 31 31> 279 77<193 566 178 582> 612 76<243 643 243 243>
LayerCount: 2
Fore
SplineSet
643 612 m 1
 243 612 l 1
 193 356 l 1
 582 356 l 1
 566 279 l 1
 178 279 l 1
 124 0 l 1
 31 0 l 1
 164 688 l 1
 658 688 l 1
 643 612 l 1
EndSplineSet
EndChar

StartChar: G
Encoding: 71 71 40
Width: 778
GlyphClass: 2
Flags: MW
HStem: -10 76<295 410.5 295 424.5> 266 78<436 626 420 728> 622 76<451 461 461 503.5>
VStem: 49 96<280 288 288 384 213.5 405.5>
LayerCount: 2
Fore
SplineSet
362 -10 m 0
 163 -10 49 97 49 280 c 2
 49 288 l 2
 49 523 217 698 451 698 c 2
 461 698 l 2
 605 698 699 643 735 536 c 1
 641 510 l 1
 617 585 552 622 455 622 c 0
 265 622 145 486 145 282 c 0
 145 145 225 66 365 66 c 0
 456 66 541 91 601 142 c 1
 626 266 l 1
 420 266 l 1
 436 344 l 1
 728 344 l 1
 679 103 l 1
 587 24 487 -10 362 -10 c 0
EndSplineSet
EndChar

StartChar: H
Encoding: 72 72 41
Width: 722
GlyphClass: 2
Flags: MW
HStem: 0 21G<31 124 31 31 499 589 499 499> 319 78<201 561 186 576> 668 20G<165 258 258 258 632 723 723 723>
LayerCount: 2
Fore
SplineSet
589 0 m 1
 499 0 l 1
 561 319 l 1
 186 319 l 1
 124 0 l 1
 31 0 l 1
 165 688 l 1
 258 688 l 1
 201 397 l 1
 576 397 l 1
 632 688 l 1
 723 688 l 1
 589 0 l 1
EndSplineSet
EndChar

StartChar: I
Encoding: 73 73 42
Width: 278
GlyphClass: 2
Flags: MW
HStem: 0 21G<40 133 40 40> 668 20G<173 267 267 267>
VStem: 40 227
LayerCount: 2
Fore
SplineSet
133 0 m 1
 40 0 l 1
 173 688 l 1
 267 688 l 1
 133 0 l 1
EndSplineSet
EndChar

StartChar: J
Encoding: 74 74 43
Width: 500
GlyphClass: 2
Flags: MW
HStem: -10 76<162 228.5 162 249.5> 612 76<273 400 258 508>
VStem: -2 82<167 184>
LayerCount: 2
Fore
SplineSet
186 -10 m 0
 82 -10 14 52 -2 167 c 1
 80 184 l 1
 95 107 130 66 194 66 c 0
 263 66 304 111 324 215 c 2
 400 612 l 1
 258 612 l 1
 273 688 l 1
 508 688 l 1
 414 207 l 2
 386 60 313 -10 186 -10 c 0
EndSplineSet
EndChar

StartChar: K
Encoding: 75 75 44
Width: 667
GlyphClass: 2
Flags: MW
HStem: 0 21G<31 124 31 31 499 609 499 499> 668 20G<164 257 257 257 584 704 704 704>
LayerCount: 2
Fore
SplineSet
609 0 m 1
 499 0 l 1
 269 329 l 1
 176 266 l 1
 124 0 l 1
 31 0 l 1
 164 688 l 1
 257 688 l 1
 191 351 l 1
 259 414 l 1
 584 688 l 1
 704 688 l 1
 337 380 l 1
 609 0 l 1
EndSplineSet
EndChar

StartChar: L
Encoding: 76 76 45
Width: 556
GlyphClass: 2
Flags: MW
HStem: 0 76<139 472> 668 20G<164 257 257 257>
LayerCount: 2
Fore
SplineSet
472 0 m 1
 31 0 l 1
 164 688 l 1
 257 688 l 1
 139 76 l 1
 486 76 l 1
 472 0 l 1
EndSplineSet
EndChar

StartChar: M
Encoding: 77 77 46
Width: 833
GlyphClass: 2
Flags: MW
HStem: 0 21G<31 114 31 31 336 397 336 336 616 700 616 616> 668 20G<164 279 279 279 708 833 833 833>
VStem: 31 83<0 0>
LayerCount: 2
Fore
SplineSet
700 0 m 1
 616 0 l 1
 704 453 l 2
 715 513 726 562 735 600 c 1
 706 538 682 492 665 463 c 2
 397 0 l 1
 336 0 l 1
 246 463 l 2
 244 472 237 518 226 600 c 1
 211 508 l 2
 204 467 172 297 114 0 c 1
 31 0 l 1
 164 688 l 1
 279 688 l 1
 372 211 l 1
 387 111 l 1
 438 215 l 1
 708 688 l 1
 833 688 l 1
 700 0 l 1
EndSplineSet
EndChar

StartChar: N
Encoding: 78 78 47
Width: 722
GlyphClass: 2
Flags: MW
HStem: 0 21G<31 114 31 31 482 589 482 482> 668 20G<164 268 268 268 639 723 723 723>
VStem: 639 84<688 688>
LayerCount: 2
Fore
SplineSet
589 0 m 1
 482 0 l 1
 223 591 l 1
 216 535 209 491 202 460 c 2
 114 0 l 1
 31 0 l 1
 164 688 l 1
 268 688 l 1
 528 95 l 1
 537 156 544 202 550 233 c 2
 639 688 l 1
 723 688 l 1
 589 0 l 1
EndSplineSet
EndChar

StartChar: O
Encoding: 79 79 48
Width: 778
GlyphClass: 2
Flags: MW
HStem: -10 76<284.5 383 284.5 461.5> 623 75<421.5 503 380.5 518.5>
VStem: 54 93<207 304.5 207 318.5> 657 93<416 459 416 481.5>
LayerCount: 2
Fore
SplineSet
458 698 m 0
 548 698 619 672 671 621 c 0
 724 570 750 502 750 416 c 0
 746 155 577 -10 346 -10 c 0
 162 -10 54 99 54 280 c 0
 54 357 71 429 105 494 c 0
 174 625 303 698 458 698 c 0
454 623 m 0
 389 623 333 608 288 579 c 0
 243 550 208 507 183 449 c 0
 159 392 147 334 147 275 c 0
 147 139 218 66 351 66 c 0
 415 66 469 80 514 108 c 0
 559 136 594 178 619 234 c 0
 644 291 657 351 657 414 c 0
 657 549 583 623 454 623 c 0
EndSplineSet
EndChar

StartChar: P
Encoding: 80 80 49
Width: 667
GlyphClass: 2
Flags: MW
HStem: 0 21G<31 124 31 31> 268 74<190 379 379 383 176 379> 613 75<243 243 243 414>
VStem: 566 95<443.5 532.5>
LayerCount: 2
Fore
SplineSet
164 688 m 1
 416 688 l 2
 567 688 661 615 661 498 c 0
 661 355 555 268 383 268 c 2
 176 268 l 1
 124 0 l 1
 31 0 l 1
 164 688 l 1
243 613 m 1
 190 342 l 1
 379 342 l 2
 504 342 566 393 566 494 c 0
 566 571 514 613 414 613 c 2
 243 613 l 1
EndSplineSet
EndChar

StartChar: Q
Encoding: 81 81 50
Width: 778
GlyphClass: 2
Flags: MW
HStem: -189 70<474.5 491> -6 72 623 75<416.5 498 375.5 513.5>
VStem: 49 94<207 304.5 207 318.5> 652 93<416 459 416 481.5>
LayerCount: 2
Fore
SplineSet
453 698 m 0
 543 698 614 672 666 621 c 0
 719 570 745 502 745 416 c 0
 741 178 603 20 401 -6 c 1
 413 -85 442 -119 507 -119 c 0
 526 -119 546 -117 567 -113 c 1
 558 -178 l 1
 533 -185 506 -189 476 -189 c 0
 377 -189 327 -137 312 -8 c 1
 147 3 49 108 49 280 c 0
 49 357 66 429 100 494 c 0
 169 625 298 698 453 698 c 0
449 623 m 0
 384 623 328 608 283 579 c 0
 238 550 203 507 179 449 c 0
 155 392 143 334 143 275 c 0
 143 139 214 66 346 66 c 0
 410 66 464 80 509 108 c 0
 554 136 589 178 614 234 c 0
 639 291 652 351 652 414 c 0
 652 549 578 623 449 623 c 0
EndSplineSet
EndChar

StartChar: R
Encoding: 82 82 51
Width: 722
GlyphClass: 2
Flags: MW
HStem: 0 21G<31 124 31 31 513 614 513 513> 286 73<194 395 179 418> 613 75<243 452 243 243>
VStem: 597 94<455.5 534 446.5 536.5>
LayerCount: 2
Fore
SplineSet
614 0 m 1
 513 0 l 1
 395 286 l 1
 179 286 l 1
 124 0 l 1
 31 0 l 1
 164 688 l 1
 463 688 l 2
 532 688 588 671 629 638 c 0
 670 605 691 561 691 507 c 0
 691 386 620 313 483 294 c 1
 614 0 l 1
194 359 m 1
 418 359 l 2
 537 359 597 411 597 500 c 0
 597 573 548 613 452 613 c 2
 243 613 l 1
 194 359 l 1
EndSplineSet
EndChar

StartChar: S
Encoding: 83 83 52
Width: 667
GlyphClass: 2
Flags: MW
HStem: -10 73<248.5 379.5 248.5 405> 528 21G<572 572> 628 70<340.5 448.5>
VStem: 28 87<165 183> 125 93<503 551.5 503 567.5> 513 95<149 204>
LayerCount: 2
Fore
SplineSet
301 -10 m 0
 138 -10 51 48 28 165 c 1
 115 183 l 1
 132 99 189 63 308 63 c 0
 451 63 513 105 513 193 c 0
 513 215 508 233 499 246 c 0
 490 259 474 271 451 281 c 0
 428 292 389 305 333 321 c 0
 278 336 236 352 208 368 c 0
 153 400 125 444 125 508 c 0
 125 627 231 698 402 698 c 0
 546 698 635 648 656 553 c 1
 572 528 l 1
 551 596 495 628 402 628 c 0
 279 628 218 590 218 513 c 0
 218 493 222 477 230 464 c 0
 239 452 252 441 271 432 c 0
 290 423 328 411 385 396 c 0
 448 378 494 361 522 344 c 0
 578 312 608 267 608 199 c 0
 608 66 509 -10 301 -10 c 0
EndSplineSet
EndChar

StartChar: T
Encoding: 84 84 53
Width: 611
GlyphClass: 2
Flags: MW
HStem: 0 21G<207 300 207 207> 612 76<104 326 90 670 419 655 419 419>
LayerCount: 2
Fore
SplineSet
655 612 m 1
 419 612 l 1
 300 0 l 1
 207 0 l 1
 326 612 l 1
 90 612 l 1
 104 688 l 1
 670 688 l 1
 655 612 l 1
EndSplineSet
EndChar

StartChar: U
Encoding: 85 85 54
Width: 722
GlyphClass: 2
Flags: MW
HStem: -10 76<275.5 389.5 275.5 409> 668 20G<159 252 252 252 634 727 727 727>
VStem: 75 90<162.5 216 162.5 224.5> 159 93<688 688>
LayerCount: 2
Fore
SplineSet
319 -10 m 0xe0
 168 -10 75 74 75 210 c 0xe0
 75 239 81 286 86 310 c 2
 159 688 l 1
 252 688 l 1xd0
 173 276 l 2
 168 248 165 225 165 207 c 0
 165 118 224 66 327 66 c 0
 452 66 527 132 552 264 c 2
 634 688 l 1
 727 688 l 1
 644 259 l 2
 609 80 499 -10 319 -10 c 0xe0
EndSplineSet
EndChar

StartChar: V
Encoding: 86 86 55
Width: 667
GlyphClass: 2
Flags: MW
HStem: 0 21G<234 331 234 234> 668 20G<86 181 181 181 643 745 745 745>
LayerCount: 2
Fore
SplineSet
745 688 m 1
 331 0 l 1
 234 0 l 1
 86 688 l 1
 181 688 l 1
 278 204 l 1
 295 82 l 1
 360 204 l 1
 643 688 l 1
 745 688 l 1
EndSplineSet
EndChar

StartChar: W
Encoding: 87 87 56
Width: 944
GlyphClass: 2
Flags: MW
HStem: 0 21G<156 265 156 156 578 687 578 578> 668 20G<86 183 183 183 509 599 599 599 924 1022 1022 1022>
LayerCount: 2
Fore
SplineSet
1022 688 m 1
 687 0 l 1
 578 0 l 1
 543 437 l 1
 535 595 l 1
 510 530 488 478 469 437 c 2
 265 0 l 1
 156 0 l 1
 86 688 l 1
 183 688 l 1
 221 251 l 2
 225 200 228 144 229 82 c 1
 255 143 276 192 293 229 c 2
 509 688 l 1
 599 688 l 1
 635 260 l 2
 640 210 643 151 644 82 c 1
 651 99 l 2
 667 136 680 166 689 189 c 0
 699 212 777 378 924 688 c 1
 1022 688 l 1
EndSplineSet
EndChar

StartChar: X
Encoding: 88 88 57
Width: 667
GlyphClass: 2
Flags: MW
HStem: 0 21G<-19 84 -19 -19 488 585 488 488> 668 20G<134 231 231 231 595 698 698 698>
LayerCount: 2
Fore
SplineSet
585 0 m 1
 488 0 l 1
 340 296 l 1
 84 0 l 1
 -19 0 l 1
 300 364 l 1
 134 688 l 1
 231 688 l 1
 363 419 l 1
 595 688 l 1
 698 688 l 1
 405 358 l 1
 585 0 l 1
EndSplineSet
EndChar

StartChar: Y
Encoding: 89 89 58
Width: 667
GlyphClass: 2
Flags: MW
HStem: 0 21G<235 328 235 235> 668 20G<104 200 200 200 623 727 727 727>
LayerCount: 2
Fore
SplineSet
383 285 m 1
 328 0 l 1
 235 0 l 1
 292 285 l 1
 104 688 l 1
 200 688 l 1
 349 359 l 1
 623 688 l 1
 727 688 l 1
 383 285 l 1
EndSplineSet
EndChar

StartChar: Z
Encoding: 90 90 59
Width: 611
GlyphClass: 2
Flags: MW
HStem: 0 76<111 528> 612 76<149 508 135 639>
LayerCount: 2
Fore
SplineSet
543 76 m 1
 528 0 l 1
 -20 0 l 1
 -6 70 l 1
 508 612 l 1
 135 612 l 1
 149 688 l 1
 639 688 l 1
 625 620 l 1
 111 76 l 1
 543 76 l 1
EndSplineSet
EndChar

StartChar: bracketleft
Encoding: 91 91 60
Width: 278
GlyphClass: 2
Flags: MW
HStem: -208 63<78 179> 662 63<234 348 234 234>
LayerCount: 2
Fore
SplineSet
179 -208 m 1
 -19 -208 l 1
 162 725 l 1
 360 725 l 1
 348 662 l 1
 234 662 l 1
 78 -145 l 1
 191 -145 l 1
 179 -208 l 1
EndSplineSet
EndChar

StartChar: backslash
Encoding: 92 92 61
Width: 278
GlyphClass: 2
Flags: MW
HStem: -10 21G<156 230 156 156>
VStem: 71 159
LayerCount: 2
Fore
SplineSet
230 -10 m 1
 156 -10 l 1
 71 725 l 1
 144 725 l 1
 230 -10 l 1
EndSplineSet
EndChar

StartChar: bracketright
Encoding: 93 93 62
Width: 278
GlyphClass: 2
Flags: MW
HStem: -208 63<-70 43 -70 116 -83 43> 662 63<98 200 86 297>
LayerCount: 2
Fore
SplineSet
116 -208 m 1
 -83 -208 l 1
 -70 -145 l 1
 43 -145 l 1
 200 662 l 1
 86 662 l 1
 98 725 l 1
 297 725 l 1
 116 -208 l 1
EndSplineSet
EndChar

StartChar: asciicircum
Encoding: 94 94 63
Width: 469
GlyphClass: 2
Flags: MW
HStem: 668 20G<199 298 298 298>
LayerCount: 2
Fore
SplineSet
479 329 m 1
 399 329 l 1
 248 638 l 1
 99 329 l 1
 20 329 l 1
 199 688 l 1
 298 688 l 1
 479 329 l 1
EndSplineSet
EndChar

StartChar: underscore
Encoding: 95 95 64
Width: 556
GlyphClass: 2
Flags: MW
HStem: -122 37<-78 497 -78 497>
LayerCount: 2
Fore
SplineSet
497 -122 m 1
 -78 -122 l 1
 -78 -85 l 1
 497 -85 l 1
 497 -122 l 1
EndSplineSet
EndChar

StartChar: grave
Encoding: 96 96 65
Width: 333
GlyphClass: 2
Flags: MW
HStem: 586 150<66 244 66 201>
VStem: 63 181<586 722>
LayerCount: 2
Fore
SplineSet
244 586 m 1
 201 586 l 1
 63 722 l 1
 66 736 l 1
 167 736 l 1
 246 596 l 1
 244 586 l 1
EndSplineSet
EndChar

StartChar: a
Encoding: 97 97 66
Width: 556
GlyphClass: 2
Flags: MW
HStem: -5 59<422.5 497.5> 260 61<293 298> 471 67<279.5 348.5>
VStem: 22 94<115.5 160 115.5 196> 101 87<387 401> 366 87<45.5 96.5> 416 88<383.5 414>
LayerCount: 2
Fore
SplineSet
453 -5 m 0xe4
 392 -5 366 21 366 70 c 2
 368 101 l 1
 365 101 l 1
 312 20 259 -10 176 -10 c 0
 131 -10 94 4 65 31 c 0
 36 58 22 93 22 136 c 0xf4
 22 256 105 318 293 321 c 2
 407 322 l 1
 413 354 416 375 416 384 c 0
 416 444 379 471 318 471 c 0
 241 471 205 444 188 387 c 1
 101 401 l 1
 130 497 200 538 323 538 c 0
 435 538 504 482 504 394 c 0xea
 504 373 501 348 495 317 c 2
 458 133 l 2
 455 117 453 103 453 90 c 0
 453 66 466 54 493 54 c 0
 502 54 511 55 522 58 c 1
 515 3 l 1
 494 -2 473 -5 453 -5 c 0xe4
382 201 m 2
 395 262 l 1
 298 260 l 2
 221 257 179 245 155 226 c 0
 131 207 116 180 116 140 c 0
 116 91 150 57 201 57 c 0
 295 57 366 126 382 201 c 2
EndSplineSet
EndChar

StartChar: b
Encoding: 98 98 67
Width: 556
GlyphClass: 2
Flags: MW
HStem: -10 65<232 283 226.5 328> 0 21G<14 99 14 14> 470 68<324.5 371.5>
VStem: 434 91<332 390>
LayerCount: 2
Fore
SplineSet
363 538 m 0x70
 466 538 525 473 525 365 c 0
 525 299 515 235 495 173 c 0
 455 49 384 -10 272 -10 c 0xb0
 192 -10 142 26 121 87 c 1
 120 87 l 1
 108 35 l 2
 103 12 100 1 99 0 c 2
 14 0 l 1
 18 9 29 61 38 109 c 2
 158 725 l 1
 246 725 l 1
 205 518 l 2
 202 503 197 481 188 450 c 1
 190 450 l 1
 238 511 286 538 363 538 c 0x70
338 470 m 0
 274 470 229 444 197 391 c 0
 181 364 168 331 159 291 c 0
 150 251 146 215 146 184 c 0
 146 103 190 55 263 55 c 0
 303 55 335 67 358 92 c 0
 382 117 401 156 414 209 c 0
 427 263 434 310 434 350 c 0
 434 430 405 470 338 470 c 0
EndSplineSet
EndChar

StartChar: c
Encoding: 99 99 68
Width: 500
GlyphClass: 2
Flags: MW
HStem: -10 70<193.5 262.5 193.5 280.5> 469 69<281.5 332>
VStem: 33 90<146.5 213.5 146.5 225.5> 402 87<371 383>
LayerCount: 2
Fore
SplineSet
229 60 m 0
 296 60 343 97 370 172 c 1
 446 148 l 1
 407 43 334 -10 227 -10 c 0
 102 -10 33 65 33 193 c 0
 33 258 45 319 68 374 c 0
 116 486 192 538 305 538 c 0
 416 538 482 479 489 383 c 1
 402 371 l 1
 398 434 362 469 302 469 c 0
 261 469 228 458 203 436 c 0
 178 414 158 379 144 331 c 0
 130 284 123 237 123 190 c 0
 123 103 158 60 229 60 c 0
EndSplineSet
EndChar

StartChar: d
Encoding: 100 100 69
Width: 556
GlyphClass: 2
Flags: MW
HStem: -10 68<187.5 234> 0 21G<360 444 360 360> 473 65<276.5 327 231 333.5>
VStem: 34 91<138 196> 360 84<0 8.5>
LayerCount: 2
Fore
SplineSet
196 -10 m 0xb8
 93 -10 34 55 34 163 c 0
 34 229 44 293 64 355 c 0
 104 479 175 538 287 538 c 0
 367 538 418 502 438 441 c 1
 441 441 l 1
 455 520 l 1
 495 725 l 1
 583 725 l 1
 463 109 l 2
 454 63 447 27 444 0 c 1
 360 0 l 1x78
 360 17 364 43 371 78 c 1
 368 78 l 1
 321 17 272 -10 196 -10 c 0xb8
221 58 m 0xb8
 286 58 330 84 362 137 c 0
 378 164 391 197 400 236 c 0
 409 276 414 312 414 344 c 0
 414 425 371 473 296 473 c 0
 257 473 225 461 202 437 c 0
 179 414 160 375 146 321 c 0
 132 268 125 220 125 178 c 0
 125 98 154 58 221 58 c 0xb8
EndSplineSet
EndChar

StartChar: e
Encoding: 101 101 70
Width: 556
GlyphClass: 2
Flags: MW
HStem: -10 66<207.5 282.5 207.5 293> 246 67<137 430 137 507 125 430> 473 65<302 308 308 349.5>
VStem: 34 87<146.5 205 146.5 300> 430 89<313 407.5>
LayerCount: 2
Fore
SplineSet
507 246 m 1
 125 246 l 1
 123 235 122 216 121 190 c 0
 121 103 164 56 251 56 c 0
 314 56 368 89 397 144 c 1
 464 113 l 1
 417 28 345 -10 241 -10 c 0
 110 -10 34 66 34 198 c 2
 34 205 l 2
 34 395 149 538 302 538 c 2
 308 538 l 2
 441 538 519 469 519 346 c 0
 519 311 515 278 507 246 c 1
137 313 m 1
 430 313 l 1
 432 348 l 1
 432 429 389 473 310 473 c 0
 222 473 161 416 137 313 c 1
EndSplineSet
EndChar

StartChar: f
Encoding: 102 102 71
Width: 278
GlyphClass: 2
Flags: MW
HStem: 0 21G<34 122 34 34> 464 64<63 124 50 137 225 315> 656 69<304 307>
VStem: 34 330
LayerCount: 2
Fore
SplineSet
315 464 m 1
 212 464 l 1
 122 0 l 1
 34 0 l 1
 124 464 l 1
 50 464 l 1
 63 528 l 1
 137 528 l 1
 148 588 l 2
 171 695 208 720 304 725 c 0
 328 725 348 723 364 719 c 1
 352 652 l 1
 330 655 l 1
 307 656 l 2
 266 656 247 640 234 576 c 2
 225 528 l 1
 328 528 l 1
 315 464 l 1
EndSplineSet
EndChar

StartChar: g
Encoding: 103 103 72
Width: 556
GlyphClass: 2
Flags: MW
HStem: -208 67<163.5 242 163.5 264.5> -4 65<150 233> 473 65<266.5 326.5 245.5 332.5> 508 20G<464 547 547 547>
VStem: 34 92<142.5 196.5>
LayerCount: 2
Fore
SplineSet
194 -208 m 0xd8
 83 -208 19 -167 2 -84 c 1
 82 -64 l 1
 93 -115 131 -141 196 -141 c 0
 288 -141 336 -96 357 13 c 2
 374 98 l 1
 373 98 l 1
 352 69 334 49 319 36 c 0
 288 11 251 -4 200 -4 c 0
 100 -4 34 67 34 175 c 0
 34 218 40 265 52 315 c 0
 65 366 81 407 102 440 c 0
 145 507 204 538 287 538 c 0xe8
 366 538 424 497 439 438 c 1
 440 438 l 1
 452 490 l 2
 458 513 462 525 464 528 c 2
 547 528 l 1
 538 488 l 1
 523 419 l 1
 445 15 l 2
 413 -142 335 -208 194 -208 c 0xd8
126 182 m 0
 126 103 161 61 228 61 c 2
 233 61 l 2
 334 61 414 197 414 339 c 2
 414 344 l 2
 414 425 369 473 296 473 c 0
 237 473 201 450 174 398 c 0
 161 372 149 338 140 295 c 0
 131 252 126 215 126 182 c 0
EndSplineSet
EndChar

StartChar: h
Encoding: 104 104 73
Width: 556
GlyphClass: 2
Flags: MW
HStem: 0 21G<17 104 17 17 350 438 350 350> 470 68<327.5 362>
VStem: 420 90<388.5 415.5>
LayerCount: 2
Fore
SplineSet
186 438 m 1
 187 438 l 1
 242 513 290 538 365 538 c 0
 462 538 510 488 510 399 c 0
 510 378 507 352 500 319 c 2
 438 0 l 1
 350 0 l 1
 411 315 l 2
 417 344 420 368 420 388 c 0
 420 443 391 470 333 470 c 0
 250 470 182 403 162 296 c 2
 104 0 l 1
 17 0 l 1
 157 725 l 1
 245 725 l 1
 208 536 l 2
 203 503 195 471 186 438 c 1
EndSplineSet
EndChar

StartChar: i
Encoding: 105 105 74
Width: 222
GlyphClass: 2
Flags: MW
HStem: 0 21G<16 104 16 16> 508 20G<119 207 207 207> 641 84<157 228 140 245>
VStem: 16 229
LayerCount: 2
Fore
SplineSet
228 641 m 1
 140 641 l 1
 157 725 l 1
 245 725 l 1
 228 641 l 1
104 0 m 1
 16 0 l 1
 119 528 l 1
 207 528 l 1
 104 0 l 1
EndSplineSet
EndChar

StartChar: j
Encoding: 106 106 75
Width: 222
GlyphClass: 2
Flags: MW
HStem: -208 70<-58 -40.5 -65 -11> 508 20G<119 207 207 207> 641 84<157 229 141 245>
LayerCount: 2
Fore
SplineSet
229 641 m 1
 141 641 l 1
 157 725 l 1
 245 725 l 1
 229 641 l 1
-49 -208 m 0
 -67 -208 -88 -206 -112 -201 c 1
 -101 -134 l 1
 -84 -137 -70 -138 -60 -138 c 0
 -21 -138 -5 -112 6 -52 c 2
 119 528 l 1
 207 528 l 1
 91 -65 l 2
 71 -169 27 -208 -49 -208 c 0
EndSplineSet
EndChar

StartChar: k
Encoding: 107 107 76
Width: 500
GlyphClass: 2
Flags: MW
HStem: 0 21G<17 104 17 17 352 447 352 352> 508 20G<434 542 542 542>
LayerCount: 2
Fore
SplineSet
447 0 m 1
 352 0 l 1
 221 245 l 1
 139 185 l 1
 104 0 l 1
 17 0 l 1
 157 725 l 1
 245 725 l 1
 158 277 l 1
 257 370 l 1
 434 528 l 1
 542 528 l 1
 283 301 l 1
 447 0 l 1
EndSplineSet
EndChar

StartChar: l
Encoding: 108 108 77
Width: 222
GlyphClass: 2
Flags: MW
HStem: 0 21G<16 104 16 16>
VStem: 16 229
LayerCount: 2
Fore
SplineSet
104 0 m 1
 16 0 l 1
 157 725 l 1
 245 725 l 1
 104 0 l 1
EndSplineSet
EndChar

StartChar: m
Encoding: 109 109 78
Width: 833
GlyphClass: 2
Flags: MW
HStem: 0 21G<17 104 17 17 322 409 322 322 627 627 627 714> 470 68<311.5 344 616 649> 508 20G<117 200 200 200>
VStem: 700 87<388.5 419>
LayerCount: 2
Fore
SplineSet
409 0 m 1xd0
 322 0 l 1
 383 310 l 2
 391 351 395 379 395 395 c 0
 395 443 372 470 316 470 c 0xd0
 240 470 179 399 162 295 c 2
 104 0 l 1
 17 0 l 1
 98 416 l 2
 104 447 110 484 117 528 c 1
 200 528 l 2xb0
 200 525 198 512 194 490 c 2
 186 438 l 1
 188 438 l 1
 235 513 278 538 345 538 c 0
 424 538 471 497 480 424 c 1
 535 509 582 538 650 538 c 0
 738 538 787 488 787 399 c 0
 787 378 783 352 776 319 c 2
 714 0 l 1
 627 0 l 1
 688 310 l 2
 696 351 700 379 700 395 c 0
 700 443 677 470 621 470 c 0
 545 470 484 401 467 296 c 2
 409 0 l 1xd0
EndSplineSet
EndChar

StartChar: n
Encoding: 110 110 79
Width: 556
GlyphClass: 2
Flags: MW
HStem: 0 21G<17 104 17 17 350 438 350 350> 470 68<328.5 362> 508 20G<117 200 200 200>
VStem: 117 83<526.5 528> 420 91<388.5 415.5>
LayerCount: 2
Fore
SplineSet
438 0 m 1xd8
 350 0 l 1
 412 315 l 2
 417 344 420 368 420 388 c 0
 420 443 391 470 333 470 c 0xd8
 250 470 183 403 162 296 c 2
 104 0 l 1
 17 0 l 1
 98 416 l 2
 104 447 110 484 117 528 c 1
 200 528 l 2xb8
 200 525 198 512 194 490 c 2
 186 438 l 1
 188 438 l 1
 241 513 291 538 366 538 c 0
 462 538 511 488 511 399 c 0
 511 378 507 352 500 319 c 2
 438 0 l 1xd8
EndSplineSet
EndChar

StartChar: o
Encoding: 111 111 80
Width: 556
GlyphClass: 2
Flags: MW
HStem: -10 65<205.5 278.5 205.5 284.5> 473 65<306 313 313 353.5>
VStem: 33 90<155 205> 434 90<333 379.5>
LayerCount: 2
Fore
SplineSet
524 333 m 0
 524 249 497 149 449 85 c 0
 401 22 329 -10 240 -10 c 0
 112 -10 33 72 33 205 c 1
 39 401 134 538 306 538 c 2
 313 538 l 2
 450 538 524 464 524 333 c 0
434 333 m 1
 434 426 394 473 313 473 c 0
 269 473 234 462 207 439 c 0
 180 416 160 382 145 336 c 0
 130 291 123 246 123 203 c 0
 123 107 166 55 245 55 c 0
 312 55 348 77 379 125 c 0
 410 173 430 252 434 333 c 1
EndSplineSet
EndChar

StartChar: p
Encoding: 112 112 81
Width: 556
GlyphClass: 2
Flags: MW
HStem: -208 21G<-25 63 -25 -25> -10 65<230.5 281.5 224.5 327> 470 68<323.5 369.5> 508 20G<114 195 195 195>
VStem: 114 78<488 528> 432 92<332 390>
LayerCount: 2
Fore
SplineSet
271 -10 m 0xec
 190 -10 140 26 119 87 c 1
 117 87 l 2
 117 84 115 73 112 55 c 0
 109 38 93 -50 63 -208 c 1
 -25 -208 l 1
 97 420 l 2
 104 457 110 493 114 528 c 1
 195 528 l 1xdc
 195 519 194 506 192 488 c 2
 187 450 l 1
 189 450 l 1
 237 511 285 538 362 538 c 0
 463 538 524 473 524 365 c 0
 524 299 514 235 494 173 c 0
 454 49 383 -10 271 -10 c 0xec
336 470 m 0xec
 272 470 227 444 195 391 c 0
 179 364 166 331 157 291 c 0
 148 251 144 215 144 184 c 0
 144 103 188 55 261 55 c 0
 302 55 334 67 357 92 c 0
 380 117 399 156 412 209 c 0
 425 263 432 310 432 350 c 0
 432 430 403 470 336 470 c 0xec
EndSplineSet
EndChar

StartChar: q
Encoding: 113 113 82
Width: 556
GlyphClass: 2
Flags: MW
HStem: -208 21G<313 401 313 313> -10 68<187.5 234.5> 473 65<276.5 327 231 333.5>
VStem: 34 91<138 196>
LayerCount: 2
Fore
SplineSet
196 -10 m 0
 93 -10 34 55 34 163 c 0
 34 229 44 293 64 355 c 0
 104 479 175 538 287 538 c 0
 367 538 418 502 438 441 c 1
 441 441 l 1
 444 458 449 477 454 498 c 0
 459 519 463 532 465 535 c 2
 549 535 l 1
 542 510 531 462 518 391 c 2
 401 -208 l 1
 313 -208 l 1
 355 7 l 1
 371 78 l 1
 369 78 l 1
 321 17 273 -10 196 -10 c 0
221 58 m 0
 286 58 330 84 362 137 c 0
 378 164 391 197 400 236 c 0
 409 276 414 312 414 344 c 0
 414 425 371 473 296 473 c 0
 257 473 225 461 202 437 c 0
 179 414 160 375 146 321 c 0
 132 268 125 220 125 178 c 0
 125 98 154 58 221 58 c 0
EndSplineSet
EndChar

StartChar: r
Encoding: 114 114 83
Width: 333
GlyphClass: 2
Flags: MW
HStem: 0 21G<17 104 17 17> 464 64 464 74<292.5 314.5>
LayerCount: 2
Fore
SplineSet
367 531 m 1xa0
 351 458 l 1
 336 462 322 464 307 464 c 0xa0
 272 464 241 446 214 410 c 0
 187 375 168 330 158 275 c 2
 104 0 l 1
 17 0 l 1
 96 405 l 1
 108 473 l 1
 117 528 l 1
 200 528 l 1xc0
 183 420 l 1
 185 420 l 1
 228 507 265 538 320 538 c 0
 335 538 351 536 367 531 c 1xa0
EndSplineSet
EndChar

StartChar: s
Encoding: 115 115 84
Width: 500
GlyphClass: 2
Flags: MW
HStem: -10 64<177 261.5 177 284> 473 64<239 313>
VStem: 69 85<392 422.5 392 436.5> 357 86<117 155 102.5 157> 400 79<400 412>
LayerCount: 2
Fore
SplineSet
443 155 m 1xf0
 443 50 360 -10 208 -10 c 0
 95 -10 29 26 2 109 c 1
 74 136 l 1
 95 79 139 54 215 54 c 0
 308 54 357 87 357 147 c 0xf0
 357 167 349 184 332 197 c 0
 316 211 281 226 227 243 c 0
 106 283 74 317 69 389 c 1
 69 484 148 537 285 537 c 0
 400 537 465 495 479 412 c 1
 400 400 l 1xe8
 385 451 347 473 279 473 c 0
 199 473 154 446 154 399 c 0
 154 385 157 373 164 364 c 0
 171 355 180 346 193 339 c 0
 206 332 236 321 283 306 c 0
 403 268 437 231 443 155 c 1xf0
EndSplineSet
EndChar

StartChar: t
Encoding: 116 116 85
Width: 278
GlyphClass: 2
Flags: MW
HStem: -10 70<106.5 186> 464 64<66 114 53 128 215 300>
VStem: 45 90<88.5 90>
LayerCount: 2
Fore
SplineSet
134 -10 m 0
 79 -10 45 26 45 81 c 0
 45 99 48 120 53 145 c 2
 114 464 l 1
 53 464 l 1
 66 528 l 1
 128 528 l 1
 179 646 l 1
 238 646 l 1
 215 528 l 1
 313 528 l 1
 300 464 l 1
 202 464 l 1
 141 149 l 2
 137 130 135 114 135 103 c 0
 135 74 150 60 179 60 c 0
 193 60 209 62 228 67 c 1
 219 2 l 1
 186 -6 158 -10 134 -10 c 0
EndSplineSet
EndChar

StartChar: u
Encoding: 117 117 86
Width: 556
GlyphClass: 2
Flags: MW
HStem: -9 68<190.5 224.5> 0 21G<353 436 353 353> 508 20G<114 203 203 203 448 536 536 536>
VStem: 42 90<113 139.5> 353 83<0 1.5>
LayerCount: 2
Fore
SplineSet
114 528 m 1xb8
 203 528 l 1
 141 213 l 2
 135 184 132 160 132 140 c 0
 132 86 161 59 220 59 c 0xb8
 301 59 370 125 391 232 c 2
 448 528 l 1
 536 528 l 1
 455 113 l 2
 448 82 442 44 436 0 c 1
 353 0 l 2x78
 353 3 355 16 358 37 c 0
 361 59 364 77 367 90 c 1
 365 90 l 1
 312 15 262 -9 187 -9 c 0
 91 -9 42 40 42 129 c 0
 42 150 45 177 52 209 c 2
 114 528 l 1xb8
EndSplineSet
EndChar

StartChar: v
Encoding: 118 118 87
Width: 500
GlyphClass: 2
Flags: MW
HStem: 0 21G<144 248 144 144> 508 20G<55 146 146 146 452 548 548 548>
VStem: 55 91<528 528>
LayerCount: 2
Fore
SplineSet
548 528 m 1
 248 0 l 1
 144 0 l 1
 55 528 l 1
 146 528 l 1
 195 185 l 2
 198 162 202 132 205 95 c 2
 207 69 l 1
 219 95 l 2
 234 126 249 155 265 184 c 2
 452 528 l 1
 548 528 l 1
EndSplineSet
EndChar

StartChar: w
Encoding: 119 119 88
Width: 722
GlyphClass: 2
Flags: MW
HStem: 0 21G<95 196 95 95 419 521 419 419> 508 20G<50 137 137 137 366 460 460 460 690 776 776 776>
VStem: 50 87<528 528>
LayerCount: 2
Fore
SplineSet
776 528 m 1
 521 0 l 1
 419 0 l 1
 401 341 l 1
 398 456 l 1
 389 431 380 410 372 391 c 2
 196 0 l 1
 95 0 l 1
 50 528 l 1
 137 528 l 1
 156 169 l 1
 160 73 l 1
 199 166 l 1
 366 528 l 1
 460 528 l 1
 481 166 l 2
 483 131 484 100 484 73 c 1
 495 98 563 250 690 528 c 1
 776 528 l 1
EndSplineSet
EndChar

StartChar: x
Encoding: 120 120 89
Width: 500
GlyphClass: 2
Flags: MW
HStem: 0 21G<-40 57 -40 -40 345 438 345 345> 508 20G<71 164 164 164 429 529 529 529>
LayerCount: 2
Fore
SplineSet
438 0 m 1
 345 0 l 1
 243 217 l 1
 57 0 l 1
 -40 0 l 1
 200 271 l 1
 71 528 l 1
 164 528 l 1
 258 323 l 1
 429 528 l 1
 529 528 l 1
 300 272 l 1
 438 0 l 1
EndSplineSet
EndChar

StartChar: y
Encoding: 121 121 90
Width: 500
GlyphClass: 2
Flags: MW
HStem: -208 69<-3.5 26.5 -9.5 38> 508 20G<55 144 144 144 453 550 550 550>
LayerCount: 2
Fore
SplineSet
8 -208 m 0
 -15 -208 -37 -206 -57 -201 c 1
 -42 -135 l 1
 -27 -138 -15 -139 -4 -139 c 0
 57 -139 102 -97 147 -17 c 2
 161 6 l 1
 55 528 l 1
 144 528 l 1
 199 236 l 2
 204 210 208 182 212 153 c 0
 217 124 219 105 219 96 c 1
 232 122 l 2
 237 133 311 268 453 528 c 1
 550 528 l 1
 245 0 l 2
 208 -63 179 -107 157 -132 c 0
 114 -183 68 -208 8 -208 c 0
EndSplineSet
EndChar

StartChar: z
Encoding: 122 122 91
Width: 500
GlyphClass: 2
Flags: MW
HStem: 0 68<112 403> 460 68<104 368 91 486>
LayerCount: 2
Fore
SplineSet
403 0 m 1
 -6 0 l 1
 5 67 l 1
 368 460 l 1
 91 460 l 1
 104 528 l 1
 486 528 l 1
 475 461 l 1
 112 68 l 1
 416 68 l 1
 403 0 l 1
EndSplineSet
EndChar

StartChar: braceleft
Encoding: 123 123 92
Width: 334
GlyphClass: 2
Flags: MW
HStem: -208 63<143 238 214 226> 228 62<10 22> 662 63<341 364 364 395>
VStem: 61 82<-101.5 -83 -83 -81 -101.5 -75> 97 85<159.5 176.5>
LayerCount: 2
Fore
SplineSet
226 -208 m 1xf0
 179 -208 l 2
 107 -208 61 -162 61 -85 c 0xf0
 61 -65 62 -46 65 -28 c 2
 93 112 l 2
 96 126 97 138 97 149 c 0
 97 204 66 225 10 228 c 1
 22 290 l 1
 94 293 135 329 150 405 c 2
 184 582 l 2
 203 674 248 725 341 725 c 2
 407 725 l 1
 395 662 l 1
 364 662 l 2
 305 662 277 636 261 557 c 2
 228 383 l 2
 215 320 169 275 109 260 c 1
 109 259 l 1
 154 247 182 215 182 164 c 0xe8
 182 155 181 145 179 135 c 2
 149 -21 l 2
 146 -37 144 -69 143 -81 c 2
 143 -83 l 2
 143 -120 165 -145 214 -145 c 2
 238 -145 l 1
 226 -208 l 1xf0
EndSplineSet
EndChar

StartChar: bar
Encoding: 124 124 93
Width: 260
GlyphClass: 2
Flags: MW
VStem: 104 81<-222 725>
LayerCount: 2
Fore
SplineSet
185 -222 m 1
 104 -222 l 1
 104 725 l 1
 185 725 l 1
 185 -222 l 1
EndSplineSet
EndChar

StartChar: braceright
Encoding: 125 125 94
Width: 334
GlyphClass: 2
Flags: MW
HStem: -208 63<-65 -35 -35 -12 -78 -35> 228 62<307 319> 662 63<104 115 91 150>
VStem: 147 85<340.5 358.5> 186 83<598 601 601 619>
LayerCount: 2
Fore
SplineSet
104 725 m 1xe8
 150 725 l 2
 223 725 269 679 269 603 c 0xe8
 269 582 267 563 264 545 c 2
 236 405 l 2
 233 391 232 379 232 368 c 0
 232 313 263 293 319 290 c 1
 307 228 l 1
 235 225 194 188 179 112 c 2
 145 -64 l 2
 126 -157 81 -208 -12 -208 c 2
 -78 -208 l 1
 -65 -145 l 1
 -35 -145 l 2
 24 -145 52 -119 68 -40 c 2
 102 134 l 2
 114 197 160 244 220 257 c 1
 220 258 l 1
 176 270 147 302 147 354 c 0xf0
 147 363 148 372 150 382 c 2
 180 538 l 2
 183 554 186 586 186 598 c 2
 186 601 l 2
 186 637 164 662 115 662 c 2
 91 662 l 1
 104 725 l 1xe8
EndSplineSet
EndChar

StartChar: asciitilde
Encoding: 126 126 95
Width: 584
GlyphClass: 2
Flags: MW
HStem: 270 67<429 454.5> 326 68<163.5 195.5>
LayerCount: 2
Fore
SplineSet
427 270 m 0x80
 382 270 334 288 287 304 c 0
 245 319 210 326 181 326 c 0
 137 326 101 314 60 283 c 1
 60 353 l 1
 96 380 139 394 188 394 c 0x40
 221 394 260 387 303 372 c 0
 351 355 382 345 396 342 c 0
 410 339 423 337 435 337 c 0
 477 337 517 352 554 382 c 1
 554 309 l 1
 514 282 482 270 427 270 c 0x80
EndSplineSet
EndChar

StartChar: exclamdown
Encoding: 161 161 97
Width: 333
GlyphClass: 2
Flags: MW
HStem: 431 98<167 242 147 262>
VStem: 31 231
LayerCount: 2
Fore
SplineSet
31 -159 m 1
 139 335 l 1
 211 335 l 1
 127 -159 l 1
 31 -159 l 1
167 529 m 1
 262 529 l 1
 242 431 l 1
 147 431 l 1
 167 529 l 1
EndSplineSet
EndChar

StartChar: cent
Encoding: 162 162 98
Width: 556
GlyphClass: 2
Flags: MW
HStem: 66 70<287 287> 545 69<333 333 333 376.5> 668 20G<347 408 408 408>
VStem: 77 90<222.5 289.5 222.5 313> 447 86<447 459>
LayerCount: 2
Fore
SplineSet
273 136 m 0
 340 136 388 173 415 248 c 1
 491 224 l 1
 453 124 385 71 287 66 c 1
 271 -15 l 1
 211 -15 l 1
 228 69 l 1
 131 84 77 156 77 269 c 0
 77 357 103 454 146 515 c 0
 189 576 248 610 333 614 c 1
 347 688 l 1
 408 688 l 1
 394 611 l 1
 479 599 528 542 533 459 c 1
 447 447 l 1
 443 510 406 545 347 545 c 0
 306 545 272 534 247 512 c 0
 222 490 202 455 188 407 c 0
 174 360 167 313 167 266 c 0
 167 179 202 136 273 136 c 0
EndSplineSet
EndChar

StartChar: sterling
Encoding: 163 163 99
Width: 556
GlyphClass: 2
Flags: MW
HStem: 0 75<8 8 99 325 325 336 -6 8> 305 63<60 138 47 150 238 425> 626 72<357.5 419>
VStem: 451 74<151 163>
LayerCount: 2
Fore
SplineSet
451 163 m 1
 525 151 l 1
 501 52 433 0 336 0 c 2
 -6 0 l 1
 8 75 l 1
 72 106 109 154 125 235 c 2
 138 305 l 1
 47 305 l 1
 60 368 l 1
 150 368 l 1
 177 505 l 2
 204 638 277 698 398 698 c 0
 495 698 560 654 575 586 c 1
 495 562 l 1
 482 603 443 626 395 626 c 0
 320 626 281 590 266 509 c 2
 238 368 l 1
 438 368 l 1
 425 305 l 1
 226 305 l 1
 213 233 l 2
 200 161 156 102 99 75 c 1
 325 75 l 2
 392 75 434 100 451 163 c 1
EndSplineSet
EndChar

StartChar: currency
Encoding: 164 164 100
Width: 556
GlyphClass: 2
Flags: MW
HStem: 122 76<274 311.5 274 315.5> 472 75<274 311.5>
VStem: 81 75<316.5 353.5 316.5 356.5> 430 76<315.5 354>
LayerCount: 2
Fore
SplineSet
81 334 m 0
 81 379 94 420 119 457 c 1
 70 506 l 1
 121 556 l 1
 169 507 l 1
 206 534 248 547 293 547 c 0
 338 547 379 534 416 508 c 1
 463 555 l 1
 514 504 l 1
 467 457 l 1
 493 419 506 378 506 334 c 0
 506 289 493 248 466 211 c 1
 515 162 l 1
 465 111 l 1
 416 160 l 1
 379 135 338 122 293 122 c 0
 246 122 205 135 170 161 c 1
 119 110 l 1
 69 161 l 1
 119 211 l 1
 94 248 81 289 81 334 c 0
156 335 m 0
 156 298 169 265 196 238 c 0
 223 211 255 198 293 198 c 0
 330 198 362 211 389 237 c 0
 416 264 430 296 430 335 c 0
 430 373 416 405 389 432 c 0
 362 459 330 472 293 472 c 0
 255 472 223 458 196 431 c 0
 169 404 156 372 156 335 c 0
EndSplineSet
EndChar

StartChar: yen
Encoding: 165 165 101
Width: 556
GlyphClass: 2
Flags: MW
HStem: 0 21G<179 266 179 179> 148 62<34 208 22 220 307 482> 285 61<61 217 61 236 49 217 364 509> 668 20G<78 172 172 172 536 636 636 636>
LayerCount: 2
Fore
SplineSet
636 688 m 1
 364 346 l 1
 521 346 l 1
 509 285 l 1
 322 285 l 1
 307 210 l 1
 494 210 l 1
 482 148 l 1
 295 148 l 1
 266 0 l 1
 179 0 l 1
 208 148 l 1
 22 148 l 1
 34 210 l 1
 220 210 l 1
 236 285 l 1
 49 285 l 1
 61 346 l 1
 217 346 l 1
 78 688 l 1
 172 688 l 1
 292 372 l 1
 536 688 l 1
 636 688 l 1
EndSplineSet
EndChar

StartChar: brokenbar
Encoding: 166 166 102
Width: 260
GlyphClass: 2
Flags: MW
VStem: 104 81<-222 158 345 725>
LayerCount: 2
Fore
SplineSet
185 345 m 1
 104 345 l 1
 104 725 l 1
 185 725 l 1
 185 345 l 1
185 -222 m 1
 104 -222 l 1
 104 158 l 1
 185 158 l 1
 185 -222 l 1
EndSplineSet
EndChar

StartChar: section
Encoding: 167 167 103
Width: 556
GlyphClass: 2
Flags: MW
HStem: -84 64<158 242.5 158 264.5> 661 64<292 367.5>
VStem: 50 85<313.5 363.5 313.5 364.5> 119 85<572 607.5 572 624.5> 338 86<42.5 83.5> 408 85<294.5 331.5> 450 80<588 600>
LayerCount: 2
Fore
SplineSet
493 329 m 0xd4
 493 256 448 209 359 189 c 1
 402 162 424 126 424 81 c 0
 424 -26 342 -84 187 -84 c 0
 76 -84 10 -48 -17 35 c 1
 55 62 l 1
 76 5 120 -20 196 -20 c 0
 289 -20 338 12 338 73 c 0
 338 94 329 111 312 125 c 0
 295 139 261 154 208 170 c 0
 103 203 50 256 50 329 c 0xe8
 50 400 97 448 185 467 c 1
 141 495 119 532 119 577 c 0
 119 672 198 725 339 725 c 0
 452 725 515 683 530 600 c 1
 450 588 l 1xd2
 437 637 399 661 336 661 c 0
 248 661 204 634 204 581 c 0
 204 563 213 547 230 533 c 0
 247 519 281 504 332 488 c 0
 451 451 493 400 493 329 c 0xd4
135 336 m 0
 135 291 170 258 269 229 c 1
 354 232 408 266 408 323 c 0xe4
 408 340 403 354 394 366 c 0
 385 379 371 390 353 399 c 0
 336 408 305 420 260 433 c 1
 184 429 135 391 135 336 c 0
EndSplineSet
EndChar

StartChar: dieresis
Encoding: 168 168 104
Width: 333
GlyphClass: 2
Flags: MW
HStem: 595 90<84 152 67 169 271 339 84 254>
VStem: 67 289<595 685>
LayerCount: 2
Fore
SplineSet
339 595 m 1
 254 595 l 1
 271 685 l 1
 356 685 l 1
 339 595 l 1
152 595 m 1
 67 595 l 1
 84 685 l 1
 169 685 l 1
 152 595 l 1
EndSplineSet
EndChar

StartChar: copyright
Encoding: 169 169 105
Width: 737
GlyphClass: 2
Flags: MW
HStem: -8 46<376 384 376 384 384 391 391 394> 136 51<348.5 414.5 348.5 427> 502 51<345.5 411.5> 652 46<374 377 377 384 384 390>
VStem: 31 46<345 353 260.5 355 260.5 445.5> 196 63<296 397.5 296 412> 692 45<337 345 345 353 244.5 432>
LayerCount: 2
Fore
SplineSet
737 345 m 1
 737 335 l 2
 737 154 575 -8 394 -8 c 2
 384 -8 l 2
 320 -8 260 8 205 41 c 0
 94 106 31 222 31 345 c 2
 31 355 l 2
 31 536 193 698 374 698 c 2
 384 698 l 1
 392 698 l 2
 576 698 737 536 737 353 c 2
 737 345 l 1
692 345 m 1
 692 353 l 2
 692 511 548 652 390 652 c 2
 384 652 l 1
 377 652 l 2
 219 652 77 511 77 353 c 2
 77 345 l 1
 77 340 l 2
 77 181 216 38 376 38 c 2
 384 38 l 1
 391 38 l 2
 551 38 692 179 692 337 c 2
 692 345 l 1
389 136 m 0
 266 136 196 214 196 346 c 0
 196 478 262 553 386 553 c 0
 465 553 521 519 552 451 c 1
 496 435 l 1
 475 480 436 502 387 502 c 0
 304 502 259 449 259 346 c 0
 259 246 308 187 389 187 c 0
 440 187 476 211 503 263 c 1
 559 246 l 1
 519 167 465 136 389 136 c 0
EndSplineSet
EndChar

StartChar: ordfeminine
Encoding: 170 170 106
Width: 370
GlyphClass: 2
Flags: MW
HStem: 321 53<286 359.5> 498 45<221 232> 650 49<230.5 275.5>
VStem: 43 76<406.5 446.5 406.5 459.5> 317 69<596.5 616.5>
LayerCount: 2
Fore
SplineSet
353 321 m 0
 310 321 286 342 286 374 c 2
 286 374 288 393 288 393 c 1
 288 393 286 393 286 393 c 1
 243 338 203 318 152 318 c 0
 87 318 43 358 43 419 c 0
 43 500 102 542 221 543 c 2
 309 545 l 1
 314 574 317 593 317 600 c 0
 317 633 296 650 255 650 c 0
 206 650 176 628 166 584 c 1
 101 592 l 1
 120 663 171 699 256 699 c 0
 339 699 386 662 386 602 c 0
 386 589 384 576 381 561 c 2
 355 427 l 2
 354 417 353 408 353 401 c 0
 353 383 361 374 376 374 c 0
 383 374 390 375 397 378 c 1
 390 327 l 1
 378 323 366 321 353 321 c 0
295 475 m 2
 300 500 l 1
 232 498 l 2
 152 497 119 471 119 422 c 0
 119 391 139 372 172 372 c 0
 201 372 227 382 251 402 c 0
 275 423 290 447 295 475 c 2
EndSplineSet
EndChar

StartChar: guillemotleft
Encoding: 171 171 107
Width: 556
GlyphClass: 2
Flags: MW
HStem: 69 11<167 247>
VStem: 37 515<247 459>
LayerCount: 2
Fore
SplineSet
478 69 m 1
 399 69 l 1
 269 247 l 1
 275 278 l 1
 475 459 l 1
 552 459 l 1
 549 441 l 1
 349 259 l 1
 480 80 l 1
 478 69 l 1
244 69 m 1
 167 69 l 1
 37 247 l 1
 43 278 l 1
 242 459 l 1
 319 459 l 1
 316 440 l 1
 117 259 l 1
 247 80 l 1
 244 69 l 1
EndSplineSet
EndChar

StartChar: logicalnot
Encoding: 172 172 108
Width: 584
GlyphClass: 2
Flags: MW
HStem: 297 71<49 464 49 535>
VStem: 464 71<88 297 297 297>
LayerCount: 2
Fore
SplineSet
535 88 m 1
 464 88 l 1
 464 297 l 1
 49 297 l 1
 49 368 l 1
 535 368 l 1
 535 88 l 1
EndSplineSet
EndChar

StartChar: uni00AD
Encoding: 173 173 109
Width: 333
GlyphClass: 2
Flags: MW
HStem: 227 78<66 295 51 311>
VStem: 51 260<227 305>
LayerCount: 2
Fore
SplineSet
295 227 m 1
 51 227 l 1
 66 305 l 1
 311 305 l 1
 295 227 l 1
EndSplineSet
EndChar

StartChar: registered
Encoding: 174 174 110
Width: 737
GlyphClass: 2
Flags: MW
HStem: -8 46<376 384 376 384 384 391 391 394> 305 47<306 385 306 395> 499 48<306 389 306 306> 652 46<374 377 377 384 384 390>
VStem: 31 46<345 353 260.5 355 260.5 445.5> 244 62<141 305 141 352 352 499> 475 62<406 452.5> 692 45<337 345 345 353 244.5 432>
LayerCount: 2
Fore
SplineSet
737 345 m 1
 737 335 l 2
 737 154 575 -8 394 -8 c 2
 384 -8 l 2
 320 -8 260 8 205 41 c 0
 94 106 31 222 31 345 c 2
 31 355 l 2
 31 536 193 698 374 698 c 2
 384 698 l 1
 392 698 l 2
 576 698 737 536 737 353 c 2
 737 345 l 1
692 345 m 1
 692 353 l 2
 692 511 548 652 390 652 c 2
 384 652 l 1
 377 652 l 2
 219 652 77 511 77 353 c 2
 77 345 l 1
 77 340 l 2
 77 181 216 38 376 38 c 2
 384 38 l 1
 391 38 l 2
 551 38 692 179 692 337 c 2
 692 345 l 1
553 141 m 1
 482 141 l 1
 385 305 l 1
 306 305 l 1
 306 141 l 1
 244 141 l 1
 244 547 l 1
 394 547 l 2
 486 547 537 503 537 431 c 0
 537 364 500 324 445 312 c 1
 553 141 l 1
475 430 m 0
 475 475 442 499 389 499 c 2
 306 499 l 1
 306 352 l 1
 395 352 l 2
 447 352 475 382 475 430 c 0
EndSplineSet
EndChar

StartChar: macron
Encoding: 175 175 111
Width: 552
GlyphClass: 2
Flags: MW
HStem: 734 57<-8 561 -8 561>
LayerCount: 2
Fore
SplineSet
561 791 m 1
 561 734 l 1
 -8 734 l 1
 -8 791 l 1
 561 791 l 1
EndSplineSet
EndChar

StartChar: degree
Encoding: 176 176 112
Width: 400
GlyphClass: 2
Flags: MW
HStem: 420 51<216.5 255> 647 51<216.5 255.5 216.5 260>
VStem: 96 53<540 578> 323 53<539.5 578.5 539.5 583.5>
LayerCount: 2
Fore
SplineSet
376 559 m 0
 376 520 362 487 334 460 c 0
 307 433 274 420 236 420 c 0
 197 420 164 434 137 461 c 0
 110 488 96 521 96 559 c 0
 96 597 109 630 136 657 c 0
 163 684 197 698 236 698 c 0
 275 698 308 684 335 657 c 0
 362 630 376 598 376 559 c 0
323 559 m 0
 323 608 284 647 236 647 c 0
 187 647 149 607 149 559 c 0
 149 511 188 471 236 471 c 0
 284 471 323 510 323 559 c 0
EndSplineSet
EndChar

StartChar: plusminus
Encoding: 177 177 113
Width: 549
GlyphClass: 2
Flags: MW
HStem: 0 71<32 518 32 518> 332 71<32 239 32 239 311 518>
VStem: 239 72<139 332 139 332 403 595>
LayerCount: 2
Fore
SplineSet
518 332 m 1
 311 332 l 1
 311 139 l 1
 239 139 l 1
 239 332 l 1
 32 332 l 1
 32 403 l 1
 239 403 l 1
 239 595 l 1
 311 595 l 1
 311 403 l 1
 518 403 l 1
 518 332 l 1
518 0 m 1
 32 0 l 1
 32 71 l 1
 518 71 l 1
 518 0 l 1
EndSplineSet
EndChar

StartChar: uni00B2
Encoding: 178 178 114
Width: 333
GlyphClass: 2
Flags: MW
HStem: 275 55<99 308> 642 52<208.5 252.5>
VStem: 80 61<573 581> 296 66<578 598.5>
LayerCount: 2
Fore
SplineSet
308 275 m 1
 15 275 l 1
 23 325 l 1
 33 341 44 355 57 368 c 0
 70 381 83 393 98 404 c 0
 113 415 138 431 171 452 c 0
 214 477 242 494 255 505 c 0
 282 528 296 551 296 582 c 0
 296 615 274 642 231 642 c 0
 186 642 150 614 141 573 c 1
 80 581 l 1
 99 654 153 694 234 694 c 0
 311 694 362 650 362 589 c 0
 362 567 357 547 347 529 c 0
 338 511 324 494 306 479 c 0
 289 464 256 442 208 414 c 0
 145 378 116 355 99 330 c 1
 318 330 l 1
 308 275 l 1
EndSplineSet
EndChar

StartChar: uni00B3
Encoding: 179 179 115
Width: 333
GlyphClass: 2
Flags: MW
HStem: 269 51<150 202 150 218.5> 459 53<152 190 162 182> 642 52<206 246.5>
VStem: 77 61<576 588> 262 67<375.5 418> 288 67<565.5 603.5>
LayerCount: 2
Fore
SplineSet
152 459 m 1xf8
 162 512 l 1
 190 512 l 2
 253 512 288 541 288 588 c 0
 288 619 265 642 228 642 c 0
 184 642 150 619 138 576 c 1
 77 588 l 1
 99 659 151 694 233 694 c 0
 305 694 355 654 355 595 c 0xf4
 355 536 320 500 249 486 c 1
 249 485 l 1
 297 477 329 443 329 399 c 0
 329 320 266 269 171 269 c 0
 86 269 37 307 26 383 c 1
 89 391 l 1
 94 344 126 320 174 320 c 0
 230 320 262 351 262 400 c 0
 262 436 231 459 182 459 c 2
 152 459 l 1xf8
EndSplineSet
EndChar

StartChar: acute
Encoding: 180 180 116
Width: 333
GlyphClass: 2
Flags: MW
HStem: 586 150<85 316 85 316>
VStem: 85 231<586 736>
LayerCount: 2
Fore
SplineSet
131 586 m 1
 85 586 l 1
 87 596 l 1
 210 736 l 1
 316 736 l 1
 314 722 l 1
 131 586 l 1
EndSplineSet
EndChar

StartChar: mu
Encoding: 181 181 117
Width: 576
GlyphClass: 2
Flags: MW
HStem: -208 21G<0 87 0 0> -10 68<212.5 248.5> 508 20G<143 231 231 231 446 534 534 534>
VStem: 446 88<528 528>
LayerCount: 2
Fore
SplineSet
87 -208 m 1
 0 -208 l 1
 143 528 l 1
 231 528 l 1
 166 193 l 2
 162 172 160 156 160 144 c 0
 160 87 186 58 239 58 c 0
 312 58 371 125 388 230 c 2
 446 528 l 1
 534 528 l 1
 457 134 l 2
 454 121 453 107 453 94 c 0
 453 71 462 59 480 59 c 0
 484 59 493 60 508 63 c 1
 497 0 l 1
 474 -7 454 -10 437 -10 c 0
 389 -10 371 23 371 83 c 1
 370 83 l 1
 328 21 278 -10 219 -10 c 0
 178 -10 149 5 133 29 c 1
 87 -208 l 1
EndSplineSet
EndChar

StartChar: paragraph
Encoding: 182 182 118
Width: 537
GlyphClass: 2
Flags: MW
HStem: 638 50<302 408 302 302 463 526 463 463>
VStem: 70 232<456.5 567.5> 247 55<-129 339 339 339> 408 55<-129 638 -129 638>
LayerCount: 2
Fore
SplineSet
526 638 m 1xd0
 463 638 l 1
 463 -129 l 1
 408 -129 l 1
 408 638 l 1
 302 638 l 1
 302 -129 l 1
 247 -129 l 1
 247 339 l 1xb0
 138 339 70 401 70 512 c 0
 70 623 139 688 251 688 c 2
 526 688 l 1
 526 638 l 1xd0
EndSplineSet
EndChar

StartChar: cedilla
Encoding: 184 184 120
Width: 333
GlyphClass: 2
Flags: MW
HStem: -208 45<81.5 117.5 81.5 135.5> -20 20G<132 184 184 184>
VStem: 169 65<-133.5 -107.5>
LayerCount: 2
Fore
SplineSet
184 0 m 1
 155 -47 l 1
 208 -50 234 -74 234 -113 c 0
 234 -176 185 -208 86 -208 c 0
 70 -208 53 -207 35 -204 c 1
 45 -160 l 1
 60 -162 75 -163 88 -163 c 0
 147 -163 169 -148 169 -119 c 0
 169 -96 150 -84 111 -84 c 0
 96 -84 87 -84 83 -85 c 2
 132 0 l 1
 184 0 l 1
EndSplineSet
EndChar

StartChar: uni00B9
Encoding: 185 185 121
Width: 333
GlyphClass: 2
Flags: MW
HStem: 275 52<40 143 207 301 30 143> 668 20G<217 277 277 277>
VStem: 30 282<275 327>
LayerCount: 2
Fore
SplineSet
301 275 m 1
 30 275 l 1
 40 327 l 1
 143 327 l 1
 200 625 l 1
 88 557 l 1
 101 621 l 1
 217 688 l 1
 277 688 l 1
 207 327 l 1
 312 327 l 1
 301 275 l 1
EndSplineSet
EndChar

StartChar: ordmasculine
Encoding: 186 186 122
Width: 365
GlyphClass: 2
Flags: MW
HStem: 318 52<173 215 173 252> 647 52<234.5 276>
VStem: 49 72<428.5 472 428.5 473.5> 331 70<549.5 593.5>
LayerCount: 2
Fore
SplineSet
197 318 m 0
 102 318 49 372 49 464 c 0
 49 483 51 504 56 526 c 0
 78 641 144 699 254 699 c 0
 349 699 401 646 401 553 c 0
 401 534 399 513 395 491 c 0
 373 376 307 318 197 318 c 0
250 647 m 0
 219 647 195 639 177 624 c 0
 160 609 146 584 136 550 c 0
 126 517 121 486 121 458 c 0
 121 399 147 370 199 370 c 0
 231 370 256 378 273 394 c 0
 291 410 305 435 315 470 c 0
 326 505 331 536 331 563 c 0
 331 624 302 647 250 647 c 0
EndSplineSet
EndChar

StartChar: guillemotright
Encoding: 187 187 123
Width: 556
GlyphClass: 2
Flags: MW
HStem: 449 10<77 156>
VStem: 2 516<69 278>
LayerCount: 2
Fore
SplineSet
512 247 m 1
 313 69 l 1
 235 69 l 1
 239 88 l 1
 439 267 l 1
 310 449 l 1
 312 459 l 1
 388 459 l 1
 518 278 l 1
 512 247 l 1
279 247 m 1
 81 69 l 1
 2 69 l 1
 6 88 l 1
 206 267 l 1
 77 449 l 1
 79 459 l 1
 156 459 l 1
 285 278 l 1
 279 247 l 1
EndSplineSet
EndChar

StartChar: onequarter
Encoding: 188 188 124
Width: 834
GlyphClass: 2
Flags: MW
HStem: 0 21G<134 208 134 134 621 621 621 685> 87 56<517 638 712 763 517 702> 275 52<57 160 224 318 47 160> 668 20G<234 294 294 294 695 771 771 771>
LayerCount: 2
Fore
SplineSet
318 275 m 1
 47 275 l 1
 57 327 l 1
 160 327 l 1
 217 625 l 1
 105 557 l 1
 118 621 l 1
 234 688 l 1
 294 688 l 1
 224 327 l 1
 329 327 l 1
 318 275 l 1
771 688 m 1
 208 0 l 1
 134 0 l 1
 695 688 l 1
 771 688 l 1
763 87 m 1
 702 87 l 1
 685 0 l 1
 621 0 l 1
 638 87 l 1
 440 87 l 1
 450 142 l 1
 687 414 l 1
 765 414 l 1
 712 143 l 1
 773 143 l 1
 763 87 l 1
679 300 m 1
 689 349 l 1
 637 283 l 1
 517 143 l 1
 648 143 l 1
 679 300 l 1
EndSplineSet
EndChar

StartChar: onehalf
Encoding: 189 189 125
Width: 834
GlyphClass: 2
Flags: MW
HStem: 0 56<542 751> 275 52<33 136 200 294 23 136> 368 51<651.5 695.5> 668 20G<210 270 270 270 671 746 746 746>
VStem: 523 61<299 306> 739 66<303 324.5>
LayerCount: 2
Fore
SplineSet
294 275 m 1
 23 275 l 1
 33 327 l 1
 136 327 l 1
 193 625 l 1
 82 557 l 1
 94 621 l 1
 210 688 l 1
 270 688 l 1
 200 327 l 1
 305 327 l 1
 294 275 l 1
746 688 m 1
 184 0 l 1
 109 0 l 1
 671 688 l 1
 746 688 l 1
751 0 m 1
 458 0 l 1
 466 51 l 1
 476 66 487 80 500 93 c 0
 513 106 526 119 541 130 c 0
 556 141 580 157 614 177 c 0
 657 202 685 220 698 231 c 0
 725 254 739 277 739 308 c 0
 739 341 717 368 674 368 c 0
 629 368 593 340 584 299 c 1
 523 306 l 1
 542 381 596 419 677 419 c 0
 754 419 805 377 805 314 c 0
 805 292 800 272 790 254 c 0
 780 237 766 220 749 205 c 0
 732 190 699 168 651 140 c 0
 588 103 559 81 542 56 c 1
 761 56 l 1
 751 0 l 1
EndSplineSet
EndChar

StartChar: threequarters
Encoding: 190 190 126
Width: 834
GlyphClass: 2
Flags: MW
HStem: 0 21G<134 208 134 134 621 621 621 685> 87 56<517 638 712 763 517 702> 269 51<190 242 190 258.5> 459 53<192 230 203 222> 642 52<246.5 287>
VStem: 66 63<383 391> 118 61<576 588> 303 66<375.5 418> 329 67<565.5 603.5>
LayerCount: 2
Fore
SplineSet
192 459 m 1xfd
 203 512 l 1
 230 512 l 2
 294 512 329 541 329 588 c 0
 329 619 305 642 269 642 c 0
 224 642 191 619 179 576 c 1
 118 588 l 1
 139 659 191 694 273 694 c 0
 346 694 396 654 396 595 c 0xfa80
 396 536 361 500 290 486 c 1
 290 485 l 1
 337 477 369 443 369 399 c 0
 369 320 306 269 211 269 c 0
 126 269 78 307 66 383 c 1
 129 391 l 1
 136 344 166 320 214 320 c 0
 270 320 303 351 303 400 c 0
 303 436 273 459 222 459 c 2
 192 459 l 1xfd
771 688 m 1
 208 0 l 1
 134 0 l 1
 695 688 l 1
 771 688 l 1
763 87 m 1
 702 87 l 1
 685 0 l 1
 621 0 l 1
 638 87 l 1
 440 87 l 1
 450 142 l 1
 687 414 l 1
 765 414 l 1
 712 143 l 1
 773 143 l 1
 763 87 l 1
679 300 m 1
 689 349 l 1
 637 283 l 1
 517 143 l 1
 648 143 l 1
 679 300 l 1
EndSplineSet
EndChar

StartChar: questiondown
Encoding: 191 191 127
Width: 611
GlyphClass: 2
Flags: MW
HStem: -169 78<213 296.5 213 310.5> 431 98<344 420 325 439>
VStem: 32 91<-17 36.5 -17 67.5> 427 80<17 37>
LayerCount: 2
Fore
SplineSet
243 -169 m 0
 178 -169 127 -153 89 -120 c 0
 51 -88 32 -46 32 5 c 0
 32 130 120 177 197 222 c 0
 238 245 267 266 283 284 c 0
 299 303 309 323 314 345 c 1
 399 345 l 1
 395 319 387 296 376 277 c 0
 365 258 350 240 333 225 c 0
 316 210 286 190 242 165 c 0
 208 146 183 129 168 115 c 0
 139 88 123 58 123 15 c 0
 123 -49 175 -91 251 -91 c 0
 342 -91 402 -43 427 37 c 1
 507 17 l 1
 467 -110 378 -169 243 -169 c 0
344 529 m 1
 439 529 l 1
 420 431 l 1
 325 431 l 1
 344 529 l 1
EndSplineSet
EndChar

StartChar: Agrave
Encoding: 192 192 128
Width: 667
GlyphClass: 2
Flags: MW
HStem: 0 21G<-41 61 -41 -41 527 622 527 527> 201 73<219 477 219 490 178 477> 668 20G<374 479 479 479>
LayerCount: 2
Fore
SplineSet
622 0 m 1
 527 0 l 1
 490 201 l 1
 178 201 l 1
 61 0 l 1
 -41 0 l 1
 374 688 l 1
 479 688 l 1
 622 0 l 1
427 544 m 1
 414 618 l 1
 410 609 404 598 396 584 c 2
 219 274 l 1
 477 274 l 1
 427 544 l 1
504 747 m 1
 460 747 l 1
 317 853 l 1
 320 867 l 1
 421 867 l 1
 505 757 l 1
 504 747 l 1
EndSplineSet
EndChar

StartChar: Aacute
Encoding: 193 193 129
Width: 667
GlyphClass: 2
Flags: MW
HStem: 0 21G<-41 61 -41 -41 527 622 527 527> 201 73<219 477 219 490 178 477> 668 20G<374 479 479 479>
LayerCount: 2
Fore
SplineSet
622 0 m 1
 527 0 l 1
 490 201 l 1
 178 201 l 1
 61 0 l 1
 -41 0 l 1
 374 688 l 1
 479 688 l 1
 622 0 l 1
427 544 m 1
 414 618 l 1
 410 609 404 598 396 584 c 2
 219 274 l 1
 477 274 l 1
 427 544 l 1
418 747 m 1
 363 747 l 1
 364 757 l 1
 492 867 l 1
 593 867 l 1
 590 853 l 1
 418 747 l 1
EndSplineSet
EndChar

StartChar: Acircumflex
Encoding: 194 194 130
Width: 667
GlyphClass: 2
Flags: MW
HStem: 0 21G<-41 61 -41 -41 527 622 527 527> 201 73<219 477 219 490 178 477> 668 20G<374 479 479 479>
LayerCount: 2
Fore
SplineSet
622 0 m 1
 527 0 l 1
 490 201 l 1
 178 201 l 1
 61 0 l 1
 -41 0 l 1
 374 688 l 1
 479 688 l 1
 622 0 l 1
427 544 m 1
 414 618 l 1
 410 609 404 598 396 584 c 2
 219 274 l 1
 477 274 l 1
 427 544 l 1
498 874 m 1
 584 757 l 1
 583 747 l 1
 536 747 l 1
 442 815 l 1
 441 815 l 1
 315 747 l 1
 260 747 l 1
 262 757 l 1
 398 874 l 1
 498 874 l 1
EndSplineSet
EndChar

StartChar: Atilde
Encoding: 195 195 131
Width: 667
GlyphClass: 2
Flags: MW
HStem: 0 21G<-41 61 -41 -41 527 622 527 527> 201 73<219 477 219 490 178 477> 668 20G<374 479 479 479> 747 68<495.5 526.5> 810 68<354.5 388.5>
VStem: 579 50<878 878>
LayerCount: 2
Fore
SplineSet
622 0 m 1xe4
 527 0 l 1
 490 201 l 1
 178 201 l 1
 61 0 l 1
 -41 0 l 1
 374 688 l 1
 479 688 l 1
 622 0 l 1xe4
427 544 m 1
 414 618 l 1
 410 609 404 598 396 584 c 2
 219 274 l 1
 477 274 l 1
 427 544 l 1
506 747 m 0xf4
 452 747 408 810 369 810 c 0xec
 340 810 320 792 304 747 c 1
 255 747 l 1xf4
 286 846 323 878 378 878 c 0xec
 435 878 476 815 515 815 c 0xf4
 544 815 566 836 579 878 c 1
 629 878 l 1xec
 618 843 607 817 596 800 c 0
 576 767 547 747 506 747 c 0xf4
EndSplineSet
EndChar

StartChar: Adieresis
Encoding: 196 196 132
Width: 667
GlyphClass: 2
Flags: MW
HStem: 0 21G<-41 61 -41 -41 527 622 527 527> 201 73<219 477 219 490 178 477> 668 20G<374 479 479 479> 747 90<313 381 296 398 500 568 313 483>
LayerCount: 2
Fore
SplineSet
622 0 m 1
 527 0 l 1
 490 201 l 1
 178 201 l 1
 61 0 l 1
 -41 0 l 1
 374 688 l 1
 479 688 l 1
 622 0 l 1
427 544 m 1
 414 618 l 1
 410 609 404 598 396 584 c 2
 219 274 l 1
 477 274 l 1
 427 544 l 1
568 747 m 1
 483 747 l 1
 500 837 l 1
 585 837 l 1
 568 747 l 1
381 747 m 1
 296 747 l 1
 313 837 l 1
 398 837 l 1
 381 747 l 1
EndSplineSet
EndChar

StartChar: Aring
Encoding: 197 197 133
Width: 667
GlyphClass: 2
Flags: MW
HStem: 0 21G<-49 52 -49 -49 518 613 518 518> 201 73<210 468 210 481 169 468> 668 20G<365 471 471 471> 726 51<402.5 435.5> 909 53<402.5 435 402.5 437.5>
VStem: 301 52<827.5 860.5> 484 53<827.5 860.5 827.5 862.5>
LayerCount: 2
Fore
SplineSet
613 0 m 1
 518 0 l 1
 481 201 l 1
 169 201 l 1
 52 0 l 1
 -49 0 l 1
 365 688 l 1
 471 688 l 1
 613 0 l 1
418 544 m 1
 405 618 l 1
 401 609 395 598 387 584 c 2
 210 274 l 1
 468 274 l 1
 418 544 l 1
537 844 m 0
 537 811 525 783 502 760 c 0
 479 737 452 726 419 726 c 0
 386 726 358 737 335 760 c 0
 312 783 301 811 301 844 c 0
 301 877 312 904 335 927 c 0
 358 950 386 962 419 962 c 0
 451 962 479 950 502 927 c 0
 525 904 537 877 537 844 c 0
484 844 m 0
 484 881 456 909 419 909 c 0
 380 909 353 880 353 844 c 0
 353 808 380 777 419 777 c 0
 456 777 484 807 484 844 c 0
EndSplineSet
EndChar

StartChar: AE
Encoding: 198 198 134
Width: 1000
GlyphClass: 2
Flags: MW
HStem: 0 76<530 896> 201 73<244 461 196 475> 316 75<591 908 576 922> 612 76<634 995 634 634>
LayerCount: 2
Fore
SplineSet
896 0 m 1
 421 0 l 1
 461 201 l 1
 196 201 l 1
 60 0 l 1
 -40 0 l 1
 429 688 l 1
 1009 688 l 1
 995 612 l 1
 634 612 l 1
 591 391 l 1
 922 391 l 1
 908 316 l 1
 576 316 l 1
 530 76 l 1
 911 76 l 1
 896 0 l 1
475 274 m 1
 542 616 l 1
 468 616 l 1
 401 511 l 1
 244 274 l 1
 475 274 l 1
EndSplineSet
EndChar

StartChar: Ccedilla
Encoding: 199 199 135
Width: 722
GlyphClass: 2
Flags: MW
HStem: -208 45<271.5 308 271.5 326.5> -9 75<317 317 369 369> 622 76<377.5 496.5>
VStem: 55 92<211.5 318> 359 66<-133.5 -107.5>
LayerCount: 2
Fore
SplineSet
593 208 m 1
 663 165 l 1
 587 50 493 -3 369 -9 c 1
 346 -47 l 1
 398 -50 425 -74 425 -113 c 0
 425 -176 376 -208 277 -208 c 0
 260 -208 243 -207 225 -204 c 1
 235 -160 l 1
 251 -162 265 -163 278 -163 c 0
 338 -163 359 -148 359 -119 c 0
 359 -96 340 -84 301 -84 c 0
 287 -84 278 -84 273 -85 c 2
 317 -9 l 1
 152 1 55 112 55 278 c 0
 55 358 72 430 106 495 c 0
 175 624 303 698 452 698 c 0
 593 698 696 637 728 530 c 1
 640 503 l 1
 616 576 546 622 447 622 c 0
 266 622 147 483 147 276 c 0
 147 147 223 66 348 66 c 0
 444 66 529 115 593 208 c 1
EndSplineSet
EndChar

StartChar: Egrave
Encoding: 200 200 136
Width: 667
GlyphClass: 2
Flags: MW
HStem: 0 76<139 563> 316 75<200 575 185 589> 612 76<243 662 243 243>
LayerCount: 2
Fore
SplineSet
563 0 m 1
 31 0 l 1
 164 688 l 1
 676 688 l 1
 662 612 l 1
 243 612 l 1
 200 391 l 1
 589 391 l 1
 575 316 l 1
 185 316 l 1
 139 76 l 1
 578 76 l 1
 563 0 l 1
501 747 m 1
 458 747 l 1
 314 853 l 1
 317 867 l 1
 418 867 l 1
 502 757 l 1
 501 747 l 1
EndSplineSet
EndChar

StartChar: Eacute
Encoding: 201 201 137
Width: 667
GlyphClass: 2
Flags: MW
HStem: 0 76<139 563> 316 75<200 575 185 589> 612 76<243 662 243 243>
LayerCount: 2
Fore
SplineSet
563 0 m 1
 31 0 l 1
 164 688 l 1
 676 688 l 1
 662 612 l 1
 243 612 l 1
 200 391 l 1
 589 391 l 1
 575 316 l 1
 185 316 l 1
 139 76 l 1
 578 76 l 1
 563 0 l 1
411 747 m 1
 355 747 l 1
 356 757 l 1
 484 867 l 1
 585 867 l 1
 583 853 l 1
 411 747 l 1
EndSplineSet
EndChar

StartChar: Ecircumflex
Encoding: 202 202 138
Width: 667
GlyphClass: 2
Flags: MW
HStem: 0 76<139 563> 316 75<200 575 185 589> 612 76<243 662 243 243>
LayerCount: 2
Fore
SplineSet
563 0 m 1
 31 0 l 1
 164 688 l 1
 676 688 l 1
 662 612 l 1
 243 612 l 1
 200 391 l 1
 589 391 l 1
 575 316 l 1
 185 316 l 1
 139 76 l 1
 578 76 l 1
 563 0 l 1
502 874 m 1
 589 757 l 1
 587 747 l 1
 541 747 l 1
 447 815 l 1
 446 815 l 1
 319 747 l 1
 264 747 l 1
 266 757 l 1
 403 874 l 1
 502 874 l 1
EndSplineSet
EndChar

StartChar: Edieresis
Encoding: 203 203 139
Width: 667
GlyphClass: 2
Flags: MW
HStem: 0 76<139 563> 316 75<200 575 185 589> 612 76<243 662 243 243> 747 90<307 375 290 392 494 562 307 477>
LayerCount: 2
Fore
SplineSet
563 0 m 1
 31 0 l 1
 164 688 l 1
 676 688 l 1
 662 612 l 1
 243 612 l 1
 200 391 l 1
 589 391 l 1
 575 316 l 1
 185 316 l 1
 139 76 l 1
 578 76 l 1
 563 0 l 1
562 747 m 1
 477 747 l 1
 494 837 l 1
 579 837 l 1
 562 747 l 1
375 747 m 1
 290 747 l 1
 307 837 l 1
 392 837 l 1
 375 747 l 1
EndSplineSet
EndChar

StartChar: Igrave
Encoding: 204 204 140
Width: 278
GlyphClass: 2
Flags: MW
HStem: 0 21G<40 133 40 40> 668 20G<173 267 267 267>
VStem: 40 250
LayerCount: 2
Fore
SplineSet
133 0 m 1
 40 0 l 1
 173 688 l 1
 267 688 l 1
 133 0 l 1
290 747 m 1
 246 747 l 1
 103 853 l 1
 105 867 l 1
 207 867 l 1
 291 757 l 1
 290 747 l 1
EndSplineSet
EndChar

StartChar: Iacute
Encoding: 205 205 141
Width: 278
GlyphClass: 2
Flags: MW
HStem: 0 21G<40 133 40 40> 668 20G<173 267 267 267>
LayerCount: 2
Fore
SplineSet
133 0 m 1
 40 0 l 1
 173 688 l 1
 267 688 l 1
 133 0 l 1
234 747 m 1
 178 747 l 1
 180 757 l 1
 307 867 l 1
 408 867 l 1
 406 853 l 1
 234 747 l 1
EndSplineSet
EndChar

StartChar: Icircumflex
Encoding: 206 206 142
Width: 278
GlyphClass: 2
Flags: MW
HStem: 0 21G<40 133 40 40> 668 20G<173 267 267 267>
LayerCount: 2
Fore
SplineSet
133 0 m 1
 40 0 l 1
 173 688 l 1
 267 688 l 1
 133 0 l 1
301 874 m 1
 388 757 l 1
 386 747 l 1
 339 747 l 1
 246 815 l 1
 245 815 l 1
 118 747 l 1
 63 747 l 1
 65 757 l 1
 202 874 l 1
 301 874 l 1
EndSplineSet
EndChar

StartChar: Idieresis
Encoding: 207 207 143
Width: 278
GlyphClass: 2
Flags: MW
HStem: 0 21G<40 133 40 40> 668 20G<173 267 267 267> 747 90<108 177 91 194 296 363 108 279>
LayerCount: 2
Fore
SplineSet
133 0 m 1
 40 0 l 1
 173 688 l 1
 267 688 l 1
 133 0 l 1
363 747 m 1
 279 747 l 1
 296 837 l 1
 380 837 l 1
 363 747 l 1
177 747 m 1
 91 747 l 1
 108 837 l 1
 194 837 l 1
 177 747 l 1
EndSplineSet
EndChar

StartChar: Eth
Encoding: 208 208 144
Width: 722
GlyphClass: 2
Flags: MW
HStem: 0 75<138 287 287 299> 316 75<31 92 17 106 200 383> 613 75<243 243 243 371>
VStem: 605 95<348 433 348 458.5>
LayerCount: 2
Fore
SplineSet
164 688 m 1
 373 688 l 2
 474 688 554 661 612 607 c 0
 671 554 700 480 700 386 c 0
 700 310 684 243 652 185 c 0
 588 69 456 0 299 0 c 2
 31 0 l 1
 92 316 l 1
 17 316 l 1
 31 391 l 1
 106 391 l 1
 164 688 l 1
243 613 m 1
 200 391 l 1
 398 391 l 1
 383 316 l 1
 185 316 l 1
 138 75 l 1
 287 75 l 2
 479 75 605 195 605 387 c 0
 605 530 519 613 371 613 c 2
 243 613 l 1
EndSplineSet
EndChar

StartChar: Ntilde
Encoding: 209 209 145
Width: 722
GlyphClass: 2
Flags: MW
HStem: 0 21G<31 114 31 31 482 589 482 482> 668 20G<164 268 268 268 639 723 723 723> 810 68<377.5 412.5>
VStem: 603 49<878 878> 639 84<688 688>
LayerCount: 2
Fore
SplineSet
589 0 m 1xe8
 482 0 l 1
 223 591 l 1
 216 535 209 491 202 460 c 2
 114 0 l 1
 31 0 l 1
 164 688 l 1
 268 688 l 1
 528 95 l 1
 537 156 544 202 550 233 c 2
 639 688 l 1
 723 688 l 1
 589 0 l 1xe8
530 747 m 1
 474 747 432 810 393 810 c 0
 362 810 344 792 328 747 c 1
 279 747 l 1
 310 846 348 878 401 878 c 0
 460 878 498 815 538 815 c 0
 568 815 590 836 603 878 c 1
 652 878 l 1xf0
 619 776 592 753 530 747 c 1
EndSplineSet
EndChar

StartChar: Ograve
Encoding: 210 210 146
Width: 778
GlyphClass: 2
Flags: MW
HStem: -10 76<284.5 383 284.5 461.5> 623 75<421.5 503 380.5 518.5>
VStem: 54 93<207 304.5 207 318.5> 657 93<416 459 416 481.5>
LayerCount: 2
Fore
SplineSet
458 698 m 0
 548 698 619 672 671 621 c 0
 724 570 750 502 750 416 c 0
 746 155 577 -10 346 -10 c 0
 162 -10 54 99 54 280 c 0
 54 357 71 429 105 494 c 0
 174 625 303 698 458 698 c 0
454 623 m 0
 389 623 333 608 288 579 c 0
 243 550 208 507 183 449 c 0
 159 392 147 334 147 275 c 0
 147 139 218 66 351 66 c 0
 415 66 469 80 514 108 c 0
 559 136 594 178 619 234 c 0
 644 291 657 351 657 414 c 0
 657 549 583 623 454 623 c 0
517 747 m 1
 474 747 l 1
 331 853 l 1
 333 867 l 1
 434 867 l 1
 519 757 l 1
 517 747 l 1
EndSplineSet
EndChar

StartChar: Oacute
Encoding: 211 211 147
Width: 778
GlyphClass: 2
Flags: MW
HStem: -10 76<284.5 383 284.5 461.5> 623 75<421.5 503 380.5 518.5>
VStem: 54 93<207 304.5 207 318.5> 657 93<416 459 416 481.5>
LayerCount: 2
Fore
SplineSet
458 698 m 0
 548 698 619 672 671 621 c 0
 724 570 750 502 750 416 c 0
 746 155 577 -10 346 -10 c 0
 162 -10 54 99 54 280 c 0
 54 357 71 429 105 494 c 0
 174 625 303 698 458 698 c 0
454 623 m 0
 389 623 333 608 288 579 c 0
 243 550 208 507 183 449 c 0
 159 392 147 334 147 275 c 0
 147 139 218 66 351 66 c 0
 415 66 469 80 514 108 c 0
 559 136 594 178 619 234 c 0
 644 291 657 351 657 414 c 0
 657 549 583 623 454 623 c 0
455 747 m 1
 399 747 l 1
 400 757 l 1
 528 867 l 1
 629 867 l 1
 626 853 l 1
 455 747 l 1
EndSplineSet
EndChar

StartChar: Ocircumflex
Encoding: 212 212 148
Width: 778
GlyphClass: 2
Flags: MW
HStem: -10 76<284.5 383 284.5 461.5> 623 75<421.5 503 380.5 518.5>
VStem: 54 93<207 304.5 207 318.5> 657 93<416 459 416 481.5>
LayerCount: 2
Fore
SplineSet
458 698 m 0
 548 698 619 672 671 621 c 0
 724 570 750 502 750 416 c 0
 746 155 577 -10 346 -10 c 0
 162 -10 54 99 54 280 c 0
 54 357 71 429 105 494 c 0
 174 625 303 698 458 698 c 0
454 623 m 0
 389 623 333 608 288 579 c 0
 243 550 208 507 183 449 c 0
 159 392 147 334 147 275 c 0
 147 139 218 66 351 66 c 0
 415 66 469 80 514 108 c 0
 559 136 594 178 619 234 c 0
 644 291 657 351 657 414 c 0
 657 549 583 623 454 623 c 0
531 874 m 1
 618 757 l 1
 616 747 l 1
 569 747 l 1
 476 815 l 1
 475 815 l 1
 348 747 l 1
 293 747 l 1
 295 757 l 1
 432 874 l 1
 531 874 l 1
EndSplineSet
EndChar

StartChar: Otilde
Encoding: 213 213 149
Width: 778
GlyphClass: 2
Flags: MW
HStem: -10 76<284.5 383 284.5 461.5> 623 75<421.5 503 380.5 518.5> 810 68<402.5 437.5>
VStem: 54 93<207 304.5 207 318.5> 627 50<878 878> 657 93<416 459 416 481.5>
LayerCount: 2
Fore
SplineSet
458 698 m 0xf4
 548 698 619 672 671 621 c 0
 724 570 750 502 750 416 c 0
 746 155 577 -10 346 -10 c 0
 162 -10 54 99 54 280 c 0
 54 357 71 429 105 494 c 0
 174 625 303 698 458 698 c 0xf4
454 623 m 0
 389 623 333 608 288 579 c 0
 243 550 208 507 183 449 c 0
 159 392 147 334 147 275 c 0
 147 139 218 66 351 66 c 0
 415 66 469 80 514 108 c 0
 559 136 594 178 619 234 c 0
 644 291 657 351 657 414 c 0
 657 549 583 623 454 623 c 0
555 747 m 1
 499 747 458 810 417 810 c 0
 388 810 369 792 353 747 c 1
 304 747 l 1
 335 846 373 878 426 878 c 0
 485 878 523 815 563 815 c 0
 592 815 614 836 627 878 c 1
 677 878 l 1xf8
 644 776 617 753 555 747 c 1
EndSplineSet
EndChar

StartChar: Odieresis
Encoding: 214 214 150
Width: 778
GlyphClass: 2
Flags: MW
HStem: -10 76<284.5 383 284.5 461.5> 623 75<421.5 503 380.5 518.5> 747 90<341 410 324 427 529 596 341 512>
VStem: 54 93<207 304.5 207 318.5> 657 93<416 459 416 481.5>
LayerCount: 2
Fore
SplineSet
458 698 m 0
 548 698 619 672 671 621 c 0
 724 570 750 502 750 416 c 0
 746 155 577 -10 346 -10 c 0
 162 -10 54 99 54 280 c 0
 54 357 71 429 105 494 c 0
 174 625 303 698 458 698 c 0
454 623 m 0
 389 623 333 608 288 579 c 0
 243 550 208 507 183 449 c 0
 159 392 147 334 147 275 c 0
 147 139 218 66 351 66 c 0
 415 66 469 80 514 108 c 0
 559 136 594 178 619 234 c 0
 644 291 657 351 657 414 c 0
 657 549 583 623 454 623 c 0
596 747 m 1
 512 747 l 1
 529 837 l 1
 613 837 l 1
 596 747 l 1
410 747 m 1
 324 747 l 1
 341 837 l 1
 427 837 l 1
 410 747 l 1
EndSplineSet
EndChar

StartChar: multiply
Encoding: 215 215 151
Width: 584
GlyphClass: 2
Flags: MW
HStem: 110 446<134 136>
VStem: 84 446<161 162>
LayerCount: 2
Fore
SplineSet
134 110 m 1
 84 161 l 1
 257 334 l 1
 85 506 l 1
 136 556 l 1
 307 384 l 1
 478 555 l 1
 529 504 l 1
 358 334 l 1
 530 162 l 1
 480 111 l 1
 308 283 l 1
 134 110 l 1
EndSplineSet
EndChar

StartChar: Oslash
Encoding: 216 216 152
Width: 778
GlyphClass: 2
Flags: MW
HStem: -10 76<316 378 316 457> 623 75<416.5 478.5>
VStem: 49 94<252.5 304.5 252.5 318.5> 652 93<416 435.5>
LayerCount: 2
Fore
SplineSet
826 716 m 1
 695 588 l 1
 728 541 745 484 745 416 c 0
 741 155 573 -10 341 -10 c 0
 259 -10 193 10 144 51 c 1
 65 -26 l 1
 -27 -26 l 1
 100 98 l 1
 66 147 49 207 49 280 c 0
 49 357 66 429 100 494 c 0
 169 625 298 698 453 698 c 0
 534 698 599 677 650 636 c 1
 732 716 l 1
 826 716 l 1
449 623 m 0
 384 623 328 608 283 579 c 0
 238 550 203 507 179 449 c 0
 155 392 143 334 143 275 c 0
 143 230 150 193 165 162 c 1
 590 577 l 1
 555 608 508 623 449 623 c 0
652 414 m 0
 652 457 644 494 629 524 c 1
 205 110 l 1
 239 81 286 66 346 66 c 0
 410 66 464 80 509 108 c 0
 554 136 589 178 614 234 c 0
 639 291 652 351 652 414 c 0
EndSplineSet
EndChar

StartChar: Ugrave
Encoding: 217 217 153
Width: 722
GlyphClass: 2
Flags: MW
HStem: -10 76<275.5 389.5 275.5 409> 668 20G<159 252 252 252 634 727 727 727>
VStem: 75 90<162.5 216 162.5 224.5> 159 93<688 688>
LayerCount: 2
Fore
SplineSet
319 -10 m 0xe0
 168 -10 75 74 75 210 c 0xe0
 75 239 81 286 86 310 c 2
 159 688 l 1
 252 688 l 1xd0
 173 276 l 2
 168 248 165 225 165 207 c 0
 165 118 224 66 327 66 c 0
 452 66 527 132 552 264 c 2
 634 688 l 1
 727 688 l 1
 644 259 l 2
 609 80 499 -10 319 -10 c 0xe0
523 747 m 1
 479 747 l 1
 336 853 l 1
 339 867 l 1
 440 867 l 1
 524 757 l 1
 523 747 l 1
EndSplineSet
EndChar

StartChar: Uacute
Encoding: 218 218 154
Width: 722
GlyphClass: 2
Flags: MW
HStem: -10 76<275.5 389.5 275.5 409> 668 20G<159 252 252 252 634 727 727 727>
VStem: 75 90<162.5 216 162.5 224.5> 159 93<688 688>
LayerCount: 2
Fore
SplineSet
319 -10 m 0xe0
 168 -10 75 74 75 210 c 0xe0
 75 239 81 286 86 310 c 2
 159 688 l 1
 252 688 l 1xd0
 173 276 l 2
 168 248 165 225 165 207 c 0
 165 118 224 66 327 66 c 0
 452 66 527 132 552 264 c 2
 634 688 l 1
 727 688 l 1
 644 259 l 2
 609 80 499 -10 319 -10 c 0xe0
435 747 m 1
 379 747 l 1
 380 757 l 1
 508 867 l 1
 609 867 l 1
 606 853 l 1
 435 747 l 1
EndSplineSet
EndChar

StartChar: Ucircumflex
Encoding: 219 219 155
Width: 722
GlyphClass: 2
Flags: MW
HStem: -10 76<275.5 389.5 275.5 409> 668 20G<159 252 252 252 634 727 727 727>
VStem: 75 90<162.5 216 162.5 224.5> 159 93<688 688>
LayerCount: 2
Fore
SplineSet
319 -10 m 0xe0
 168 -10 75 74 75 210 c 0xe0
 75 239 81 286 86 310 c 2
 159 688 l 1
 252 688 l 1xd0
 173 276 l 2
 168 248 165 225 165 207 c 0
 165 118 224 66 327 66 c 0
 452 66 527 132 552 264 c 2
 634 688 l 1
 727 688 l 1
 644 259 l 2
 609 80 499 -10 319 -10 c 0xe0
523 874 m 1
 610 757 l 1
 608 747 l 1
 562 747 l 1
 468 815 l 1
 467 815 l 1
 340 747 l 1
 285 747 l 1
 287 757 l 1
 424 874 l 1
 523 874 l 1
EndSplineSet
EndChar

StartChar: Udieresis
Encoding: 220 220 156
Width: 722
GlyphClass: 2
Flags: MW
HStem: -10 76<275.5 389.5 275.5 409> 668 20G<159 252 252 252 634 727 727 727> 747 90<327 395 310 412 514 582 327 497>
VStem: 75 90<162.5 216 162.5 224.5> 159 93<688 688>
LayerCount: 2
Fore
SplineSet
319 -10 m 0xf0
 168 -10 75 74 75 210 c 0xf0
 75 239 81 286 86 310 c 2
 159 688 l 1
 252 688 l 1xe8
 173 276 l 2
 168 248 165 225 165 207 c 0
 165 118 224 66 327 66 c 0
 452 66 527 132 552 264 c 2
 634 688 l 1
 727 688 l 1
 644 259 l 2
 609 80 499 -10 319 -10 c 0xf0
582 747 m 1
 497 747 l 1
 514 837 l 1
 599 837 l 1
 582 747 l 1
395 747 m 1
 310 747 l 1
 327 837 l 1
 412 837 l 1
 395 747 l 1
EndSplineSet
EndChar

StartChar: Yacute
Encoding: 221 221 157
Width: 667
GlyphClass: 2
Flags: MW
HStem: 0 21G<235 328 235 235> 668 20G<104 200 200 200 623 727 727 727>
LayerCount: 2
Fore
SplineSet
383 285 m 1
 328 0 l 1
 235 0 l 1
 292 285 l 1
 104 688 l 1
 200 688 l 1
 349 359 l 1
 623 688 l 1
 727 688 l 1
 383 285 l 1
398 747 m 1
 343 747 l 1
 344 757 l 1
 472 867 l 1
 573 867 l 1
 570 853 l 1
 398 747 l 1
EndSplineSet
EndChar

StartChar: Thorn
Encoding: 222 222 158
Width: 667
GlyphClass: 2
Flags: MW
HStem: 0 21G<31 124 31 31> 145 74<153 357 168 357 357 360> 490 75<221 394 234 391> 668 20G<165 258 258 258>
VStem: 543 95<320.5 409.5>
LayerCount: 2
Fore
SplineSet
153 145 m 1
 124 0 l 1
 31 0 l 1
 165 688 l 1
 258 688 l 1
 234 565 l 1
 394 565 l 2
 547 565 638 495 638 375 c 0
 638 232 532 145 360 145 c 2
 153 145 l 1
221 490 m 1
 168 219 l 1
 357 219 l 2
 481 219 543 270 543 371 c 0
 543 448 491 490 391 490 c 2
 221 490 l 1
EndSplineSet
EndChar

StartChar: germandbls
Encoding: 223 223 159
Width: 611
GlyphClass: 2
Flags: MW
HStem: -14 70<330 387 330 411.5> 0 21G<17 104 17 17> 656 69<320.5 400.5>
VStem: 327 84<366.5 385 366.5 393.5> 462 86<119 167> 476 87<560.5 601.5>
LayerCount: 2
Fore
SplineSet
104 0 m 1x74
 17 0 l 1
 114 501 l 2
 145 656 229 725 372 725 c 0
 487 725 563 667 563 584 c 0x74
 563 535 538 493 487 459 c 0
 456 438 435 422 425 412 c 0
 416 402 411 391 411 379 c 0
 411 354 428 330 480 283 c 0
 525 240 548 196 548 150 c 0
 548 47 474 -14 349 -14 c 0
 293 -14 235 -3 204 13 c 1
 231 83 l 1
 269 65 309 56 351 56 c 0
 423 56 462 89 462 149 c 0xb8
 462 185 443 217 395 258 c 0
 347 299 327 332 327 369 c 0
 327 418 353 455 402 484 c 0
 455 515 476 542 476 579 c 0
 476 624 433 656 368 656 c 0
 273 656 222 604 201 499 c 2
 104 0 l 1x74
EndSplineSet
EndChar

StartChar: agrave
Encoding: 224 224 160
Width: 556
GlyphClass: 2
Flags: MW
HStem: -5 59<425.5 500.5> 260 61<296 301> 471 67<282.5 351.5>
VStem: 25 94<115.5 160 115.5 196> 369 87<45.5 96.5> 419 88<383.5 414>
LayerCount: 2
Fore
SplineSet
456 -5 m 0xf8
 395 -5 369 21 369 70 c 2xf8
 371 101 l 1
 368 101 l 1
 315 20 262 -10 179 -10 c 0
 134 -10 97 4 68 31 c 0
 39 58 25 93 25 136 c 0
 25 256 108 318 296 321 c 2
 410 322 l 1
 416 354 419 375 419 384 c 0
 419 444 382 471 321 471 c 0
 244 471 209 444 190 387 c 1
 104 401 l 1
 132 497 203 538 326 538 c 0
 438 538 507 482 507 394 c 0xf4
 507 373 504 348 498 317 c 2
 461 133 l 2
 458 117 456 103 456 90 c 0
 456 66 469 54 496 54 c 0
 505 54 514 55 525 58 c 1
 518 3 l 1
 497 -2 476 -5 456 -5 c 0xf8
385 201 m 2
 398 262 l 1
 301 260 l 2
 224 257 182 245 158 226 c 0
 134 207 119 180 119 140 c 0
 119 91 153 57 204 57 c 0
 298 57 369 126 385 201 c 2
411 586 m 1
 368 586 l 1
 230 722 l 1
 232 736 l 1
 333 736 l 1
 412 596 l 1
 411 586 l 1
EndSplineSet
EndChar

StartChar: aacute
Encoding: 225 225 161
Width: 556
GlyphClass: 2
Flags: MW
HStem: -5 59<425.5 500.5> 260 61<296 301> 471 67<282.5 351.5>
VStem: 25 94<115.5 160 115.5 196> 369 87<45.5 96.5> 419 88<383.5 414>
LayerCount: 2
Fore
SplineSet
456 -5 m 0xf8
 395 -5 369 21 369 70 c 2xf8
 371 101 l 1
 368 101 l 1
 315 20 262 -10 179 -10 c 0
 134 -10 97 4 68 31 c 0
 39 58 25 93 25 136 c 0
 25 256 108 318 296 321 c 2
 410 322 l 1
 416 354 419 375 419 384 c 0
 419 444 382 471 321 471 c 0
 244 471 209 444 190 387 c 1
 104 401 l 1
 132 497 203 538 326 538 c 0
 438 538 507 482 507 394 c 0xf4
 507 373 504 348 498 317 c 2
 461 133 l 2
 458 117 456 103 456 90 c 0
 456 66 469 54 496 54 c 0
 505 54 514 55 525 58 c 1
 518 3 l 1
 497 -2 476 -5 456 -5 c 0xf8
385 201 m 2
 398 262 l 1
 301 260 l 2
 224 257 182 245 158 226 c 0
 134 207 119 180 119 140 c 0
 119 91 153 57 204 57 c 0
 298 57 369 126 385 201 c 2
310 586 m 1
 264 586 l 1
 265 596 l 1
 389 736 l 1
 495 736 l 1
 492 722 l 1
 310 586 l 1
EndSplineSet
EndChar

StartChar: acircumflex
Encoding: 226 226 162
Width: 556
GlyphClass: 2
Flags: MW
HStem: -5 59<425.5 500.5> 260 61<296 301> 471 67<282.5 351.5>
VStem: 25 94<115.5 160 115.5 196> 369 87<45.5 96.5> 419 88<383.5 414>
LayerCount: 2
Fore
SplineSet
456 -5 m 0xf8
 395 -5 369 21 369 70 c 2xf8
 371 101 l 1
 368 101 l 1
 315 20 262 -10 179 -10 c 0
 134 -10 97 4 68 31 c 0
 39 58 25 93 25 136 c 0
 25 256 108 318 296 321 c 2
 410 322 l 1
 416 354 419 375 419 384 c 0
 419 444 382 471 321 471 c 0
 244 471 209 444 190 387 c 1
 104 401 l 1
 132 497 203 538 326 538 c 0
 438 538 507 482 507 394 c 0xf4
 507 373 504 348 498 317 c 2
 461 133 l 2
 458 117 456 103 456 90 c 0
 456 66 469 54 496 54 c 0
 505 54 514 55 525 58 c 1
 518 3 l 1
 497 -2 476 -5 456 -5 c 0xf8
385 201 m 2
 398 262 l 1
 301 260 l 2
 224 257 182 245 158 226 c 0
 134 207 119 180 119 140 c 0
 119 91 153 57 204 57 c 0
 298 57 369 126 385 201 c 2
408 728 m 1
 492 596 l 1
 490 586 l 1
 445 586 l 1
 354 669 l 1
 353 669 l 1
 224 586 l 1
 167 586 l 1
 169 596 l 1
 309 728 l 1
 408 728 l 1
EndSplineSet
EndChar

StartChar: atilde
Encoding: 227 227 163
Width: 556
GlyphClass: 2
Flags: MW
HStem: -5 59<425.5 500.5> 260 61<296 301> 471 67<282.5 351.5> 586 73<400.5 432> 645 72<257.5 294>
VStem: 25 94<115.5 160 115.5 196> 369 87<45.5 96.5> 419 88<383.5 414>
LayerCount: 2
Fore
SplineSet
456 -5 m 0xe6
 395 -5 369 21 369 70 c 2xe6
 371 101 l 1
 368 101 l 1
 315 20 262 -10 179 -10 c 0
 134 -10 97 4 68 31 c 0
 39 58 25 93 25 136 c 0
 25 256 108 318 296 321 c 2
 410 322 l 1
 416 354 419 375 419 384 c 0
 419 444 382 471 321 471 c 0
 244 471 209 444 190 387 c 1
 104 401 l 1
 132 497 203 538 326 538 c 0
 438 538 507 482 507 394 c 0xe5
 507 373 504 348 498 317 c 2
 461 133 l 2
 458 117 456 103 456 90 c 0
 456 66 469 54 496 54 c 0
 505 54 514 55 525 58 c 1
 518 3 l 1
 497 -2 476 -5 456 -5 c 0xe6
385 201 m 2
 398 262 l 1
 301 260 l 2
 224 257 182 245 158 226 c 0
 134 207 119 180 119 140 c 0
 119 91 153 57 204 57 c 0
 298 57 369 126 385 201 c 2
412 586 m 0xf4
 356 586 314 645 274 645 c 0xec
 241 645 218 625 205 586 c 1
 161 586 l 1xf4
 192 686 230 717 283 717 c 0xec
 341 717 381 659 420 659 c 0xf4
 453 659 476 678 489 717 c 1
 534 717 l 1xec
 523 682 512 656 501 639 c 0
 481 607 452 586 412 586 c 0xf4
EndSplineSet
EndChar

StartChar: adieresis
Encoding: 228 228 164
Width: 556
GlyphClass: 2
Flags: MW
HStem: -5 59<425.5 500.5> 260 61<296 301> 471 67<282.5 351.5> 595 90<214 282 197 299 401 469 214 384>
VStem: 25 94<115.5 160 115.5 196> 369 87<45.5 96.5> 419 88<383.5 414>
LayerCount: 2
Fore
SplineSet
456 -5 m 0xfc
 395 -5 369 21 369 70 c 2xfc
 371 101 l 1
 368 101 l 1
 315 20 262 -10 179 -10 c 0
 134 -10 97 4 68 31 c 0
 39 58 25 93 25 136 c 0
 25 256 108 318 296 321 c 2
 410 322 l 1
 416 354 419 375 419 384 c 0
 419 444 382 471 321 471 c 0
 244 471 209 444 190 387 c 1
 104 401 l 1
 132 497 203 538 326 538 c 0
 438 538 507 482 507 394 c 0xfa
 507 373 504 348 498 317 c 2
 461 133 l 2
 458 117 456 103 456 90 c 0
 456 66 469 54 496 54 c 0
 505 54 514 55 525 58 c 1
 518 3 l 1
 497 -2 476 -5 456 -5 c 0xfc
385 201 m 2
 398 262 l 1
 301 260 l 2
 224 257 182 245 158 226 c 0
 134 207 119 180 119 140 c 0
 119 91 153 57 204 57 c 0
 298 57 369 126 385 201 c 2
469 595 m 1
 384 595 l 1
 401 685 l 1
 486 685 l 1
 469 595 l 1
282 595 m 1
 197 595 l 1
 214 685 l 1
 299 685 l 1
 282 595 l 1
EndSplineSet
EndChar

StartChar: aring
Encoding: 229 229 165
Width: 556
GlyphClass: 2
Flags: MW
HStem: -5 59<425.5 500.5> 260 61<296 301> 471 67<282.5 351.5> 570 52<341.5 374.5> 754 52<341.5 374 341.5 376.5>
VStem: 25 94<115.5 160 115.5 196> 240 52<672 704.5> 369 87<45.5 96.5> 419 88<383.5 414> 423 53<672 704.5 672 707.5>
LayerCount: 2
Fore
SplineSet
456 -5 m 0xff
 395 -5 369 21 369 70 c 2xff
 371 101 l 1
 368 101 l 1
 315 20 262 -10 179 -10 c 0
 134 -10 97 4 68 31 c 0
 39 58 25 93 25 136 c 0
 25 256 108 318 296 321 c 2
 410 322 l 1
 416 354 419 375 419 384 c 0
 419 444 382 471 321 471 c 0
 244 471 209 444 190 387 c 1
 104 401 l 1
 132 497 203 538 326 538 c 0
 438 538 507 482 507 394 c 0xfe80
 507 373 504 348 498 317 c 2
 461 133 l 2
 458 117 456 103 456 90 c 0
 456 66 469 54 496 54 c 0
 505 54 514 55 525 58 c 1
 518 3 l 1
 497 -2 476 -5 456 -5 c 0xff
385 201 m 2
 398 262 l 1
 301 260 l 2
 224 257 182 245 158 226 c 0
 134 207 119 180 119 140 c 0
 119 91 153 57 204 57 c 0
 298 57 369 126 385 201 c 2
476 688 m 0xfe40
 476 656 464 628 441 605 c 0
 418 582 391 570 358 570 c 0
 325 570 297 582 274 605 c 0
 251 628 240 656 240 688 c 0
 240 721 251 749 274 772 c 0
 297 795 325 806 358 806 c 0
 390 806 418 794 441 771 c 0
 464 748 476 721 476 688 c 0xfe40
423 688 m 0
 423 727 395 754 358 754 c 0
 319 754 292 724 292 688 c 0
 292 653 319 622 358 622 c 0
 395 622 423 652 423 688 c 0
EndSplineSet
EndChar

StartChar: ae
Encoding: 230 230 166
Width: 889
GlyphClass: 2
Flags: MW
HStem: -10 67<166.5 215.5> 246 67<495 763 495 841 483 763> 259 62<293 297> 471 67<277 351>
VStem: 16 93<114.5 178.5 114.5 196> 410 85<313 322> 763 90<313 406.5>
LayerCount: 2
Fore
SplineSet
841 246 m 1xde
 483 246 l 1xde
 481 235 480 216 479 190 c 0
 479 103 519 56 598 56 c 0
 654 56 702 87 730 144 c 1
 798 113 l 1
 751 26 684 -10 587 -10 c 0
 488 -10 426 38 403 121 c 1
 340 30 262 -10 169 -10 c 0
 76 -10 16 51 16 136 c 0
 16 256 100 317 293 321 c 2xbe
 410 322 l 1
 416 354 419 375 419 384 c 0
 419 442 385 471 317 471 c 0
 237 471 200 444 181 387 c 1
 94 401 l 1
 125 497 197 538 325 538 c 0
 397 538 450 512 483 461 c 1
 524 512 580 538 652 538 c 0
 779 538 853 467 853 346 c 0
 853 314 846 267 841 246 c 1xde
389 217 m 2
 397 261 l 1
 297 259 l 2xbe
 157 255 109 217 109 140 c 0
 109 89 141 57 192 57 c 0
 291 57 373 132 389 217 c 2
495 313 m 1xde
 763 313 l 1
 765 348 l 1
 765 429 726 473 653 473 c 0
 573 473 516 416 495 313 c 1xde
EndSplineSet
EndChar

StartChar: ccedilla
Encoding: 231 231 167
Width: 500
GlyphClass: 2
Flags: MW
HStem: -208 45<146.5 183 146.5 201.5> 469 69<281.5 332>
VStem: 33 90<146.5 213.5 146.5 225.5> 234 66<-133.5 -107.5> 402 87<371 383>
LayerCount: 2
Fore
SplineSet
229 60 m 0
 296 60 343 97 370 172 c 1
 446 148 l 1
 409 49 342 -4 244 -10 c 1
 221 -47 l 1
 273 -50 300 -74 300 -113 c 0
 300 -176 251 -208 152 -208 c 0
 135 -208 118 -207 100 -204 c 1
 110 -160 l 1
 126 -162 140 -163 153 -163 c 0
 213 -163 234 -148 234 -119 c 0
 234 -96 215 -84 176 -84 c 0
 162 -84 153 -84 148 -85 c 2
 192 -8 l 1
 89 5 33 77 33 193 c 0
 33 258 45 319 68 374 c 0
 116 486 192 538 305 538 c 0
 416 538 482 479 489 383 c 1
 402 371 l 1
 398 434 362 469 302 469 c 0
 261 469 228 458 203 436 c 0
 178 414 158 379 144 331 c 0
 130 284 123 237 123 190 c 0
 123 103 158 60 229 60 c 0
EndSplineSet
EndChar

StartChar: egrave
Encoding: 232 232 168
Width: 556
GlyphClass: 2
Flags: MW
HStem: -10 66<207.5 282.5 207.5 293> 246 67<137 430 137 507 125 430> 473 65<302 308 308 349.5>
VStem: 34 87<146.5 205 146.5 300> 430 89<313 407.5>
LayerCount: 2
Fore
SplineSet
507 246 m 1
 125 246 l 1
 123 235 122 216 121 190 c 0
 121 103 164 56 251 56 c 0
 314 56 368 89 397 144 c 1
 464 113 l 1
 417 28 345 -10 241 -10 c 0
 110 -10 34 66 34 198 c 2
 34 205 l 2
 34 395 149 538 302 538 c 2
 308 538 l 2
 441 538 519 469 519 346 c 0
 519 311 515 278 507 246 c 1
137 313 m 1
 430 313 l 1
 432 348 l 1
 432 429 389 473 310 473 c 0
 222 473 161 416 137 313 c 1
390 586 m 1
 347 586 l 1
 209 722 l 1
 211 736 l 1
 313 736 l 1
 391 596 l 1
 390 586 l 1
EndSplineSet
EndChar

StartChar: eacute
Encoding: 233 233 169
Width: 556
GlyphClass: 2
Flags: MW
HStem: -10 66<207.5 282.5 207.5 293> 246 67<137 430 137 507 125 430> 473 65<302 308 308 349.5>
VStem: 34 87<146.5 205 146.5 300> 430 89<313 407.5>
LayerCount: 2
Fore
SplineSet
507 246 m 1
 125 246 l 1
 123 235 122 216 121 190 c 0
 121 103 164 56 251 56 c 0
 314 56 368 89 397 144 c 1
 464 113 l 1
 417 28 345 -10 241 -10 c 0
 110 -10 34 66 34 198 c 2
 34 205 l 2
 34 395 149 538 302 538 c 2
 308 538 l 2
 441 538 519 469 519 346 c 0
 519 311 515 278 507 246 c 1
137 313 m 1
 430 313 l 1
 432 348 l 1
 432 429 389 473 310 473 c 0
 222 473 161 416 137 313 c 1
306 586 m 1
 260 586 l 1
 262 596 l 1
 385 736 l 1
 491 736 l 1
 489 722 l 1
 306 586 l 1
EndSplineSet
EndChar

StartChar: ecircumflex
Encoding: 234 234 170
Width: 556
GlyphClass: 2
Flags: MW
HStem: -10 66<207.5 282.5 207.5 293> 246 67<137 430 137 507 125 430> 473 65<302 308 308 349.5>
VStem: 34 87<146.5 205 146.5 300> 430 89<313 407.5>
LayerCount: 2
Fore
SplineSet
507 246 m 1
 125 246 l 1
 123 235 122 216 121 190 c 0
 121 103 164 56 251 56 c 0
 314 56 368 89 397 144 c 1
 464 113 l 1
 417 28 345 -10 241 -10 c 0
 110 -10 34 66 34 198 c 2
 34 205 l 2
 34 395 149 538 302 538 c 2
 308 538 l 2
 441 538 519 469 519 346 c 0
 519 311 515 278 507 246 c 1
137 313 m 1
 430 313 l 1
 432 348 l 1
 432 429 389 473 310 473 c 0
 222 473 161 416 137 313 c 1
405 728 m 1
 488 596 l 1
 486 586 l 1
 441 586 l 1
 351 669 l 1
 350 669 l 1
 220 586 l 1
 164 586 l 1
 166 596 l 1
 305 728 l 1
 405 728 l 1
EndSplineSet
EndChar

StartChar: edieresis
Encoding: 235 235 171
Width: 556
GlyphClass: 2
Flags: MW
HStem: -10 66<207.5 282.5 207.5 293> 246 67<137 430 137 507 125 430> 473 65<302 308 308 349.5> 595 90<202 270 185 287 389 457 202 372>
VStem: 34 87<146.5 205 146.5 300> 430 89<313 407.5>
LayerCount: 2
Fore
SplineSet
507 246 m 1
 125 246 l 1
 123 235 122 216 121 190 c 0
 121 103 164 56 251 56 c 0
 314 56 368 89 397 144 c 1
 464 113 l 1
 417 28 345 -10 241 -10 c 0
 110 -10 34 66 34 198 c 2
 34 205 l 2
 34 395 149 538 302 538 c 2
 308 538 l 2
 441 538 519 469 519 346 c 0
 519 311 515 278 507 246 c 1
137 313 m 1
 430 313 l 1
 432 348 l 1
 432 429 389 473 310 473 c 0
 222 473 161 416 137 313 c 1
457 595 m 1
 372 595 l 1
 389 685 l 1
 474 685 l 1
 457 595 l 1
270 595 m 1
 185 595 l 1
 202 685 l 1
 287 685 l 1
 270 595 l 1
EndSplineSet
EndChar

StartChar: igrave
Encoding: 236 236 172
Width: 278
GlyphClass: 2
Flags: MW
HStem: 0 21G<43 131 43 43> 508 20G<146 234 234 234>
VStem: 43 199
LayerCount: 2
Fore
SplineSet
131 0 m 1
 43 0 l 1
 146 528 l 1
 234 528 l 1
 131 0 l 1
242 586 m 1
 199 586 l 1
 62 722 l 1
 64 736 l 1
 165 736 l 1
 244 596 l 1
 242 586 l 1
EndSplineSet
EndChar

StartChar: iacute
Encoding: 237 237 173
Width: 278
GlyphClass: 2
Flags: MW
HStem: 0 21G<43 131 43 43> 508 20G<146 234 234 234>
VStem: 43 316
LayerCount: 2
Fore
SplineSet
131 0 m 1
 43 0 l 1
 146 528 l 1
 234 528 l 1
 131 0 l 1
174 586 m 1
 128 586 l 1
 129 596 l 1
 253 736 l 1
 359 736 l 1
 356 722 l 1
 174 586 l 1
EndSplineSet
EndChar

StartChar: icircumflex
Encoding: 238 238 174
Width: 278
GlyphClass: 2
Flags: MW
HStem: 0 21G<43 131 43 43> 508 20G<146 234 234 234>
VStem: 28 325<586 596>
LayerCount: 2
Fore
SplineSet
131 0 m 1
 43 0 l 1
 146 528 l 1
 234 528 l 1
 131 0 l 1
270 728 m 1
 353 596 l 1
 351 586 l 1
 306 586 l 1
 215 669 l 1
 214 669 l 1
 85 586 l 1
 28 586 l 1
 30 596 l 1
 170 728 l 1
 270 728 l 1
EndSplineSet
EndChar

StartChar: idieresis
Encoding: 239 239 175
Width: 278
GlyphClass: 2
Flags: MW
HStem: 0 21G<43 131 43 43> 508 20G<146 234 234 234> 595 90<81 149 63 166 268 335 81 251>
VStem: 43 310
LayerCount: 2
Fore
SplineSet
131 0 m 1
 43 0 l 1
 146 528 l 1
 234 528 l 1
 131 0 l 1
335 595 m 1
 251 595 l 1
 268 685 l 1
 353 685 l 1
 335 595 l 1
149 595 m 1
 63 595 l 1
 81 685 l 1
 166 685 l 1
 149 595 l 1
EndSplineSet
EndChar

StartChar: eth
Encoding: 240 240 176
Width: 556
GlyphClass: 2
Flags: MW
HStem: -7 65<203 271.5 203 302.5> 413 65<274.5 321 239 331>
VStem: 33 90<147 207.5 147 223> 419 96<321 337.5>
LayerCount: 2
Fore
SplineSet
218 613 m 1
 305 648 l 1
 274 677 242 703 210 725 c 1
 296 725 l 1
 321 712 346 696 372 675 c 1
 500 725 l 1
 491 672 l 1
 409 639 l 1
 485 548 515 463 515 355 c 0
 515 287 504 223 483 164 c 0
 442 47 365 -7 240 -7 c 0
 111 -7 33 72 33 197 c 0
 33 249 43 297 64 342 c 0
 107 431 183 478 295 478 c 0
 347 478 399 456 422 427 c 1
 410 500 378 567 341 610 c 1
 208 555 l 1
 218 613 l 1
294 413 m 0
 255 413 224 404 199 385 c 0
 174 367 155 339 142 301 c 0
 129 263 123 226 123 189 c 0
 123 105 165 58 241 58 c 0
 302 58 344 80 372 125 c 0
 387 148 398 178 406 215 c 0
 415 252 419 283 419 310 c 0
 419 365 368 413 294 413 c 0
EndSplineSet
EndChar

StartChar: ntilde
Encoding: 241 241 177
Width: 556
GlyphClass: 2
Flags: MW
HStem: 0 21G<17 104 17 17 350 438 350 350> 470 68<328.5 362> 508 20G<117 200 200 200> 586 73<401.5 432> 645 72<258 295>
VStem: 117 83<526.5 528> 420 91<388.5 415.5>
LayerCount: 2
Fore
SplineSet
438 0 m 1xc6
 350 0 l 1
 412 315 l 2
 417 344 420 368 420 388 c 0
 420 443 391 470 333 470 c 0xc6
 250 470 183 403 162 296 c 2
 104 0 l 1
 17 0 l 1
 98 416 l 2
 104 447 110 484 117 528 c 1
 200 528 l 2xa6
 200 525 198 512 194 490 c 2
 186 438 l 1
 188 438 l 1
 241 513 291 538 366 538 c 0
 462 538 511 488 511 399 c 0
 511 378 507 352 500 319 c 2
 438 0 l 1xc6
412 586 m 0x96
 356 586 316 645 274 645 c 0x8e
 242 645 219 625 205 586 c 1
 161 586 l 1x96
 192 686 229 717 284 717 c 0x8e
 340 717 382 659 421 659 c 0x96
 454 659 477 678 490 717 c 1
 535 717 l 1x8e
 524 682 513 656 502 639 c 0
 481 607 452 586 412 586 c 0x96
EndSplineSet
EndChar

StartChar: ograve
Encoding: 242 242 178
Width: 556
GlyphClass: 2
Flags: MW
HStem: -10 65<208 281.5 208 287.5> 473 65<309 316 316 355.5>
VStem: 36 90<155 205> 437 90<333 379.5>
LayerCount: 2
Fore
SplineSet
527 333 m 0
 527 249 500 149 452 85 c 0
 404 22 332 -10 243 -10 c 0
 115 -10 36 72 36 205 c 1
 42 401 137 538 309 538 c 2
 316 538 l 2
 453 538 527 464 527 333 c 0
437 333 m 1
 437 426 396 473 315 473 c 0
 272 473 237 462 210 439 c 0
 183 416 163 382 148 336 c 0
 133 291 126 246 126 203 c 0
 126 107 168 55 248 55 c 0
 315 55 351 77 382 125 c 0
 413 173 433 252 437 333 c 1
395 586 m 1
 352 586 l 1
 214 722 l 1
 216 736 l 1
 317 736 l 1
 396 596 l 1
 395 586 l 1
EndSplineSet
EndChar

StartChar: oacute
Encoding: 243 243 179
Width: 556
GlyphClass: 2
Flags: MW
HStem: -10 65<208 281.5 208 287.5> 473 65<309 316 316 355.5>
VStem: 36 90<155 205> 437 90<333 379.5>
LayerCount: 2
Fore
SplineSet
527 333 m 0
 527 249 500 149 452 85 c 0
 404 22 332 -10 243 -10 c 0
 115 -10 36 72 36 205 c 1
 42 401 137 538 309 538 c 2
 316 538 l 2
 453 538 527 464 527 333 c 0
437 333 m 1
 437 426 396 473 315 473 c 0
 272 473 237 462 210 439 c 0
 183 416 163 382 148 336 c 0
 133 291 126 246 126 203 c 0
 126 107 168 55 248 55 c 0
 315 55 351 77 382 125 c 0
 413 173 433 252 437 333 c 1
306 586 m 1
 260 586 l 1
 262 596 l 1
 385 736 l 1
 491 736 l 1
 489 722 l 1
 306 586 l 1
EndSplineSet
EndChar

StartChar: ocircumflex
Encoding: 244 244 180
Width: 556
GlyphClass: 2
Flags: MW
HStem: -10 65<208 281.5 208 287.5> 473 65<309 316 316 355.5>
VStem: 36 90<155 205> 437 90<333 379.5>
LayerCount: 2
Fore
SplineSet
527 333 m 0
 527 249 500 149 452 85 c 0
 404 22 332 -10 243 -10 c 0
 115 -10 36 72 36 205 c 1
 42 401 137 538 309 538 c 2
 316 538 l 2
 453 538 527 464 527 333 c 0
437 333 m 1
 437 426 396 473 315 473 c 0
 272 473 237 462 210 439 c 0
 183 416 163 382 148 336 c 0
 133 291 126 246 126 203 c 0
 126 107 168 55 248 55 c 0
 315 55 351 77 382 125 c 0
 413 173 433 252 437 333 c 1
409 728 m 1
 493 596 l 1
 491 586 l 1
 446 586 l 1
 355 669 l 1
 354 669 l 1
 225 586 l 1
 168 586 l 1
 170 596 l 1
 310 728 l 1
 409 728 l 1
EndSplineSet
EndChar

StartChar: otilde
Encoding: 245 245 181
Width: 556
GlyphClass: 2
Flags: MW
HStem: -10 65<208 281.5 208 287.5> 473 65<309 316 316 355.5> 586 73<386.5 417.5> 645 72<243.5 279.5>
VStem: 36 90<155 205> 437 90<333 379.5>
LayerCount: 2
Fore
SplineSet
527 333 m 0xcc
 527 249 500 149 452 85 c 0
 404 22 332 -10 243 -10 c 0
 115 -10 36 72 36 205 c 1
 42 401 137 538 309 538 c 2
 316 538 l 2
 453 538 527 464 527 333 c 0xcc
437 333 m 1
 437 426 396 473 315 473 c 0
 272 473 237 462 210 439 c 0
 183 416 163 382 148 336 c 0
 133 291 126 246 126 203 c 0
 126 107 168 55 248 55 c 0
 315 55 351 77 382 125 c 0
 413 173 433 252 437 333 c 1
397 586 m 0xec
 343 586 299 645 260 645 c 0xdc
 227 645 204 625 190 586 c 1
 146 586 l 1xec
 177 686 216 717 269 717 c 0xdc
 327 717 367 659 406 659 c 0xec
 439 659 462 678 475 717 c 1
 520 717 l 1xdc
 509 682 498 656 487 639 c 0
 467 607 438 586 397 586 c 0xec
EndSplineSet
EndChar

StartChar: odieresis
Encoding: 246 246 182
Width: 556
GlyphClass: 2
Flags: MW
HStem: -10 65<208 281.5 208 287.5> 473 65<309 316 316 355.5> 595 90<208 276 190 293 395 462 208 378>
VStem: 36 90<155 205> 437 90<333 379.5>
LayerCount: 2
Fore
SplineSet
527 333 m 0
 527 249 500 149 452 85 c 0
 404 22 332 -10 243 -10 c 0
 115 -10 36 72 36 205 c 1
 42 401 137 538 309 538 c 2
 316 538 l 2
 453 538 527 464 527 333 c 0
437 333 m 1
 437 426 396 473 315 473 c 0
 272 473 237 462 210 439 c 0
 183 416 163 382 148 336 c 0
 133 291 126 246 126 203 c 0
 126 107 168 55 248 55 c 0
 315 55 351 77 382 125 c 0
 413 173 433 252 437 333 c 1
462 595 m 1
 378 595 l 1
 395 685 l 1
 479 685 l 1
 462 595 l 1
276 595 m 1
 190 595 l 1
 208 685 l 1
 293 685 l 1
 276 595 l 1
EndSplineSet
EndChar

StartChar: divide
Encoding: 247 247 183
Width: 549
GlyphClass: 2
Flags: MW
HStem: 109 89<242 324 242 324> 297 71<40 526 40 526> 468 89<242 324 242 324>
VStem: 242 82<109 198 468 557>
LayerCount: 2
Fore
SplineSet
324 468 m 1
 242 468 l 1
 242 557 l 1
 324 557 l 1
 324 468 l 1
526 297 m 1
 40 297 l 1
 40 368 l 1
 526 368 l 1
 526 297 l 1
324 109 m 1
 242 109 l 1
 242 198 l 1
 324 198 l 1
 324 109 l 1
EndSplineSet
EndChar

StartChar: oslash
Encoding: 248 248 184
Width: 611
GlyphClass: 2
Flags: MW
HStem: -7 65<256 295.5 256 340.5> 473 65<334 342 342 358>
VStem: 61 90<191 205> 462 91<333 344>
LayerCount: 2
Fore
SplineSet
21 -19 m 1
 98 71 l 1
 73 106 61 151 61 205 c 0
 67 401 161 538 334 538 c 2
 342 538 l 2
 395 538 438 527 472 505 c 1
 506 545 l 1
 588 545 l 1
 517 462 l 1
 541 429 553 386 553 333 c 0
 553 299 549 264 540 228 c 0
 504 71 413 -7 268 -7 c 0
 218 -7 176 4 142 27 c 1
 103 -19 l 1
 21 -19 l 1
151 203 m 0
 151 179 154 158 159 141 c 1
 422 447 l 1
 402 464 375 473 341 473 c 0
 297 473 262 462 235 439 c 0
 208 416 188 382 173 336 c 0
 158 291 151 246 151 203 c 0
462 333 m 0
 462 355 460 374 455 391 c 1
 191 84 l 1
 212 67 239 58 273 58 c 0
 318 58 353 69 378 90 c 0
 429 134 458 229 462 333 c 0
EndSplineSet
EndChar

StartChar: ugrave
Encoding: 249 249 185
Width: 556
GlyphClass: 2
Flags: MW
HStem: -9 68<190.5 224.5> 0 21G<353 436 353 353> 508 20G<114 203 203 203 448 536 536 536>
VStem: 42 90<113 139.5> 353 83<0 1.5>
LayerCount: 2
Fore
SplineSet
114 528 m 1xb8
 203 528 l 1
 141 213 l 2
 135 184 132 160 132 140 c 0
 132 86 161 59 220 59 c 0xb8
 301 59 370 125 391 232 c 2
 448 528 l 1
 536 528 l 1
 455 113 l 2
 448 82 442 44 436 0 c 1
 353 0 l 2x78
 353 3 355 16 358 37 c 0
 361 59 364 77 367 90 c 1
 365 90 l 1
 312 15 262 -9 187 -9 c 0
 91 -9 42 40 42 129 c 0
 42 150 45 177 52 209 c 2
 114 528 l 1xb8
401 586 m 1
 358 586 l 1
 221 722 l 1
 223 736 l 1
 324 736 l 1
 403 596 l 1
 401 586 l 1
EndSplineSet
EndChar

StartChar: uacute
Encoding: 250 250 186
Width: 556
GlyphClass: 2
Flags: MW
HStem: -9 68<190.5 224.5> 0 21G<353 436 353 353> 508 20G<114 203 203 203 448 536 536 536>
VStem: 42 90<113 139.5> 353 83<0 1.5>
LayerCount: 2
Fore
SplineSet
114 528 m 1xb8
 203 528 l 1
 141 213 l 2
 135 184 132 160 132 140 c 0
 132 86 161 59 220 59 c 0xb8
 301 59 370 125 391 232 c 2
 448 528 l 1
 536 528 l 1
 455 113 l 2
 448 82 442 44 436 0 c 1
 353 0 l 2x78
 353 3 355 16 358 37 c 0
 361 59 364 77 367 90 c 1
 365 90 l 1
 312 15 262 -9 187 -9 c 0
 91 -9 42 40 42 129 c 0
 42 150 45 177 52 209 c 2
 114 528 l 1xb8
310 586 m 1
 264 586 l 1
 266 596 l 1
 389 736 l 1
 495 736 l 1
 493 722 l 1
 310 586 l 1
EndSplineSet
EndChar

StartChar: ucircumflex
Encoding: 251 251 187
Width: 556
GlyphClass: 2
Flags: MW
HStem: -9 68<190.5 224.5> 0 21G<353 436 353 353> 508 20G<114 203 203 203 448 536 536 536>
VStem: 42 90<113 139.5> 353 83<0 1.5>
LayerCount: 2
Fore
SplineSet
114 528 m 1xb8
 203 528 l 1
 141 213 l 2
 135 184 132 160 132 140 c 0
 132 86 161 59 220 59 c 0xb8
 301 59 370 125 391 232 c 2
 448 528 l 1
 536 528 l 1
 455 113 l 2
 448 82 442 44 436 0 c 1
 353 0 l 2x78
 353 3 355 16 358 37 c 0
 361 59 364 77 367 90 c 1
 365 90 l 1
 312 15 262 -9 187 -9 c 0
 91 -9 42 40 42 129 c 0
 42 150 45 177 52 209 c 2
 114 528 l 1xb8
415 728 m 1
 499 596 l 1
 497 586 l 1
 452 586 l 1
 361 669 l 1
 360 669 l 1
 230 586 l 1
 174 586 l 1
 176 596 l 1
 315 728 l 1
 415 728 l 1
EndSplineSet
EndChar

StartChar: udieresis
Encoding: 252 252 188
Width: 556
GlyphClass: 2
Flags: MW
HStem: -9 68<190.5 224.5> 0 21G<353 436 353 353> 508 20G<114 203 203 203 448 536 536 536> 595 90<217 286 200 303 405 472 217 388>
VStem: 42 90<113 139.5> 353 83<0 1.5>
LayerCount: 2
Fore
SplineSet
114 528 m 1xbc
 203 528 l 1
 141 213 l 2
 135 184 132 160 132 140 c 0
 132 86 161 59 220 59 c 0xbc
 301 59 370 125 391 232 c 2
 448 528 l 1
 536 528 l 1
 455 113 l 2
 448 82 442 44 436 0 c 1
 353 0 l 2x7c
 353 3 355 16 358 37 c 0
 361 59 364 77 367 90 c 1
 365 90 l 1
 312 15 262 -9 187 -9 c 0
 91 -9 42 40 42 129 c 0
 42 150 45 177 52 209 c 2
 114 528 l 1xbc
472 595 m 1
 388 595 l 1
 405 685 l 1
 489 685 l 1
 472 595 l 1
286 595 m 1
 200 595 l 1
 217 685 l 1
 303 685 l 1
 286 595 l 1
EndSplineSet
EndChar

StartChar: yacute
Encoding: 253 253 189
Width: 500
GlyphClass: 2
Flags: MW
HStem: -208 69<-3.5 26.5 -9.5 38> 508 20G<55 144 144 144 453 550 550 550>
LayerCount: 2
Fore
SplineSet
8 -208 m 0
 -15 -208 -37 -206 -57 -201 c 1
 -42 -135 l 1
 -27 -138 -15 -139 -4 -139 c 0
 57 -139 102 -97 147 -17 c 2
 161 6 l 1
 55 528 l 1
 144 528 l 1
 199 236 l 2
 204 210 208 182 212 153 c 0
 217 124 219 105 219 96 c 1
 232 122 l 2
 237 133 311 268 453 528 c 1
 550 528 l 1
 245 0 l 2
 208 -63 179 -107 157 -132 c 0
 114 -183 68 -208 8 -208 c 0
292 586 m 1
 246 586 l 1
 247 596 l 1
 371 736 l 1
 477 736 l 1
 474 722 l 1
 292 586 l 1
EndSplineSet
EndChar

StartChar: thorn
Encoding: 254 254 190
Width: 556
GlyphClass: 2
Flags: MW
HStem: -208 21G<-25 63 -25 -25> -10 65<230.5 281.5 224.5 327> 470 68<323.5 369.5>
VStem: 432 92<332 390>
LayerCount: 2
Fore
SplineSet
271 -10 m 0
 190 -10 140 26 119 87 c 1
 117 87 l 1
 114 59 109 30 103 -1 c 2
 63 -208 l 1
 -25 -208 l 1
 156 725 l 1
 244 725 l 1
 204 518 l 2
 201 503 196 481 187 450 c 1
 189 450 l 1
 237 511 285 538 362 538 c 0
 463 538 524 473 524 365 c 0
 524 299 514 235 494 173 c 0
 454 49 383 -10 271 -10 c 0
336 470 m 0
 272 470 227 444 195 391 c 0
 179 364 166 331 157 291 c 0
 148 251 144 215 144 184 c 0
 144 103 188 55 261 55 c 0
 302 55 334 67 357 92 c 0
 380 117 399 156 412 209 c 0
 425 263 432 310 432 350 c 0
 432 430 403 470 336 470 c 0
EndSplineSet
EndChar

StartChar: ydieresis
Encoding: 255 255 191
Width: 500
GlyphClass: 2
Flags: MW
HStem: -208 69<-3.5 26.5 -9.5 38> 508 20G<55 144 144 144 453 550 550 550> 595 90<190 258 173 275 377 445 190 360>
LayerCount: 2
Fore
SplineSet
8 -208 m 0
 -15 -208 -37 -206 -57 -201 c 1
 -42 -135 l 1
 -27 -138 -15 -139 -4 -139 c 0
 57 -139 102 -97 147 -17 c 2
 161 6 l 1
 55 528 l 1
 144 528 l 1
 199 236 l 2
 204 210 208 182 212 153 c 0
 217 124 219 105 219 96 c 1
 232 122 l 2
 237 133 311 268 453 528 c 1
 550 528 l 1
 245 0 l 2
 208 -63 179 -107 157 -132 c 0
 114 -183 68 -208 8 -208 c 0
445 595 m 1
 360 595 l 1
 377 685 l 1
 462 685 l 1
 445 595 l 1
258 595 m 1
 173 595 l 1
 190 685 l 1
 275 685 l 1
 258 595 l 1
EndSplineSet
EndChar

StartChar: Amacron
Encoding: 256 256 192
Width: 667
GlyphClass: 2
Flags: MW
HStem: 0 21G<-49 52 -49 -49 518 613 518 518> 201 73<210 468 210 481 169 468> 668 20G<365 471 471 471> 767 62<294 550 282 563>
LayerCount: 2
Fore
SplineSet
613 0 m 1
 518 0 l 1
 481 201 l 1
 169 201 l 1
 52 0 l 1
 -49 0 l 1
 365 688 l 1
 471 688 l 1
 613 0 l 1
418 544 m 1
 405 618 l 1
 401 609 395 598 387 584 c 2
 210 274 l 1
 468 274 l 1
 418 544 l 1
563 829 m 1
 550 767 l 1
 282 767 l 1
 294 829 l 1
 563 829 l 1
EndSplineSet
EndChar

StartChar: amacron
Encoding: 257 257 193
Width: 556
GlyphClass: 2
Flags: MW
HStem: -5 59<422.5 497.5> 260 61<293 298> 471 67<279.5 348.5> 604 62<212 468 200 481>
VStem: 22 94<115.5 160 115.5 196> 101 87<387 401> 366 87<45.5 96.5> 416 88<383.5 414>
LayerCount: 2
Fore
SplineSet
453 -5 m 0xf2
 392 -5 366 21 366 70 c 2
 368 101 l 1
 365 101 l 1
 312 20 259 -10 176 -10 c 0
 131 -10 94 4 65 31 c 0
 36 58 22 93 22 136 c 0xfa
 22 256 105 318 293 321 c 2
 407 322 l 1
 413 354 416 375 416 384 c 0
 416 444 379 471 318 471 c 0
 241 471 205 444 188 387 c 1
 101 401 l 1
 130 497 200 538 323 538 c 0
 435 538 504 482 504 394 c 0xf5
 504 373 501 348 495 317 c 2
 458 133 l 2
 455 117 453 103 453 90 c 0
 453 66 466 54 493 54 c 0
 502 54 511 55 522 58 c 1
 515 3 l 1
 494 -2 473 -5 453 -5 c 0xf2
382 201 m 2
 395 262 l 1
 298 260 l 2
 221 257 179 245 155 226 c 0
 131 207 116 180 116 140 c 0
 116 91 150 57 201 57 c 0
 295 57 366 126 382 201 c 2
481 666 m 1
 468 604 l 1
 200 604 l 1
 212 666 l 1
 481 666 l 1
EndSplineSet
EndChar

StartChar: Abreve
Encoding: 258 258 194
Width: 667
GlyphClass: 2
Flags: MW
HStem: 0 21G<-49 52 -49 -49 518 613 518 518> 201 73<210 468 210 481 169 468> 668 20G<365 471 471 471> 742 67<402.5 459 402.5 466.5>
VStem: 281 56<864 864>
LayerCount: 2
Fore
SplineSet
613 0 m 1
 518 0 l 1
 481 201 l 1
 169 201 l 1
 52 0 l 1
 -49 0 l 1
 365 688 l 1
 471 688 l 1
 613 0 l 1
418 544 m 1
 405 618 l 1
 401 609 395 598 387 584 c 2
 210 274 l 1
 468 274 l 1
 418 544 l 1
425 742 m 0
 338 742 282 792 281 864 c 1
 337 864 l 1
 340 825 375 809 430 809 c 0
 488 809 527 827 548 864 c 1
 605 864 l 1
 572 785 508 742 425 742 c 0
EndSplineSet
EndChar

StartChar: abreve
Encoding: 259 259 195
Width: 556
GlyphClass: 2
Flags: MW
HStem: -5 59<422.5 497.5> 260 61<293 298> 471 67<279.5 348.5> 586 72<313.5 370 313.5 377.5>
VStem: 22 94<115.5 160 115.5 196> 101 87<387 401> 192 57<737 737> 366 87<45.5 96.5> 416 88<383.5 414>
LayerCount: 2
Fore
SplineSet
453 -5 m 0xf3
 392 -5 366 21 366 70 c 2
 368 101 l 1
 365 101 l 1
 312 20 259 -10 176 -10 c 0
 131 -10 94 4 65 31 c 0
 36 58 22 93 22 136 c 0xfb
 22 256 105 318 293 321 c 2
 407 322 l 1
 413 354 416 375 416 384 c 0
 416 444 379 471 318 471 c 0
 241 471 205 444 188 387 c 1
 101 401 l 1
 130 497 200 538 323 538 c 0
 435 538 504 482 504 394 c 0xf680
 504 373 501 348 495 317 c 2
 458 133 l 2
 455 117 453 103 453 90 c 0
 453 66 466 54 493 54 c 0
 502 54 511 55 522 58 c 1
 515 3 l 1
 494 -2 473 -5 453 -5 c 0xf3
382 201 m 2
 395 262 l 1
 298 260 l 2
 221 257 179 245 155 226 c 0
 131 207 116 180 116 140 c 0
 116 91 150 57 201 57 c 0
 295 57 366 126 382 201 c 2
336 586 m 0
 249 586 193 648 192 737 c 1
 249 737 l 1
 250 682 286 658 341 658 c 0
 399 658 438 684 459 737 c 1
 517 737 l 1
 484 641 419 586 336 586 c 0
EndSplineSet
EndChar

StartChar: Aogonek
Encoding: 260 260 196
Width: 667
GlyphClass: 2
Flags: MW
HStem: -208 53<515 517.5> 0 21G<-49 52 -49 -49 518 519 518 518 583 583 583 613> 201 73<210 468 210 481 169 468> 668 20G<365 471 471 471>
VStem: 418 71<-126.5 -99.5>
LayerCount: 2
Fore
SplineSet
505 -208 m 0
 448 -208 418 -175 418 -126 c 0
 418 -73 459 -23 519 0 c 1
 518 0 l 1
 481 201 l 1
 169 201 l 1
 52 0 l 1
 -49 0 l 1
 365 688 l 1
 471 688 l 1
 613 0 l 1
 583 0 l 1
 523 -31 489 -74 489 -115 c 0
 489 -138 503 -155 527 -155 c 0
 545 -155 564 -151 583 -144 c 1
 576 -195 l 1
 554 -204 530 -208 505 -208 c 0
418 544 m 1
 405 618 l 1
 401 609 395 598 387 584 c 2
 210 274 l 1
 468 274 l 1
 418 544 l 1
EndSplineSet
EndChar

StartChar: aogonek
Encoding: 261 261 197
Width: 556
GlyphClass: 2
Flags: MW
HStem: -204 54<401.5 404.5> -10 67<175.5 217.5> 260 61<293 298> 471 67<279.5 348.5>
VStem: 22 94<115.5 160 115.5 196> 101 87<387 401> 305 70<-121.5 -95> 366 87<-5 70> 416 88<383.5 414>
LayerCount: 2
Fore
SplineSet
392 -204 m 0xf2
 335 -204 305 -170 305 -122 c 0xf2
 305 -68 344 -19 402 4 c 1
 377 15 366 38 366 70 c 2
 368 101 l 1
 365 101 l 1
 312 20 259 -10 176 -10 c 0
 131 -10 94 4 65 31 c 0
 36 58 22 93 22 136 c 0xf9
 22 256 105 318 293 321 c 2
 407 322 l 1
 413 354 416 375 416 384 c 0
 416 444 379 471 318 471 c 0
 241 471 205 444 188 387 c 1
 101 401 l 1
 130 497 200 538 323 538 c 0
 435 538 504 482 504 394 c 0xf480
 504 373 501 348 495 317 c 2
 458 133 l 2
 455 117 453 103 453 90 c 0
 453 66 466 54 493 54 c 0
 502 54 511 55 522 58 c 1
 515 3 l 1
 494 -2 473 -5 453 -5 c 2xf1
 452 -5 l 1
 402 -36 375 -74 375 -110 c 0
 375 -133 389 -150 414 -150 c 0
 431 -150 450 -146 469 -139 c 1
 462 -190 l 1
 440 -199 417 -204 392 -204 c 0xf2
382 201 m 2
 395 262 l 1
 298 260 l 2
 221 257 179 245 155 226 c 0
 131 207 116 180 116 140 c 0xf8
 116 91 150 57 201 57 c 0
 295 57 366 126 382 201 c 2
EndSplineSet
EndChar

StartChar: Cacute
Encoding: 262 262 198
Width: 722
GlyphClass: 2
Flags: MW
HStem: -10 76<285.5 396 285.5 410.5> 622 76<377.5 496.5>
VStem: 55 92<211.5 318>
LayerCount: 2
Fore
SplineSet
593 208 m 1
 663 165 l 1
 582 42 479 -10 342 -10 c 0
 162 -10 55 104 55 278 c 0
 55 358 72 430 106 495 c 0
 175 624 303 698 452 698 c 0
 593 698 696 637 728 530 c 1
 640 503 l 1
 616 576 546 622 447 622 c 0
 266 622 147 483 147 276 c 0
 147 147 223 66 348 66 c 0
 444 66 529 115 593 208 c 1
477 747 m 1
 421 747 l 1
 423 757 l 1
 550 867 l 1
 651 867 l 1
 649 853 l 1
 477 747 l 1
EndSplineSet
EndChar

StartChar: cacute
Encoding: 263 263 199
Width: 500
GlyphClass: 2
Flags: MW
HStem: -10 70<193.5 262.5 193.5 280.5> 469 69<281.5 332>
VStem: 33 90<146.5 213.5 146.5 225.5> 402 87<371 383>
LayerCount: 2
Fore
SplineSet
229 60 m 0
 296 60 343 97 370 172 c 1
 446 148 l 1
 407 43 334 -10 227 -10 c 0
 102 -10 33 65 33 193 c 0
 33 258 45 319 68 374 c 0
 116 486 192 538 305 538 c 0
 416 538 482 479 489 383 c 1
 402 371 l 1
 398 434 362 469 302 469 c 0
 261 469 228 458 203 436 c 0
 178 414 158 379 144 331 c 0
 130 284 123 237 123 190 c 0
 123 103 158 60 229 60 c 0
307 586 m 1
 261 586 l 1
 262 596 l 1
 386 736 l 1
 492 736 l 1
 489 722 l 1
 307 586 l 1
EndSplineSet
EndChar

StartChar: Ccircumflex
Encoding: 264 264 200
Width: 722
GlyphClass: 2
Flags: MW
HStem: -10 76<285.5 396 285.5 410.5> 622 76<377.5 496.5>
VStem: 55 92<211.5 318>
LayerCount: 2
Fore
SplineSet
593 208 m 1
 663 165 l 1
 582 42 479 -10 342 -10 c 0
 162 -10 55 104 55 278 c 0
 55 358 72 430 106 495 c 0
 175 624 303 698 452 698 c 0
 593 698 696 637 728 530 c 1
 640 503 l 1
 616 576 546 622 447 622 c 0
 266 622 147 483 147 276 c 0
 147 147 223 66 348 66 c 0
 444 66 529 115 593 208 c 1
543 874 m 1
 629 757 l 1
 627 747 l 1
 581 747 l 1
 487 815 l 1
 486 815 l 1
 360 747 l 1
 305 747 l 1
 307 757 l 1
 443 874 l 1
 543 874 l 1
EndSplineSet
EndChar

StartChar: ccircumflex
Encoding: 265 265 201
Width: 500
GlyphClass: 2
Flags: MW
HStem: -10 70<193.5 262.5 193.5 280.5> 469 69<281.5 332>
VStem: 33 90<146.5 213.5 146.5 225.5> 402 87<371 383>
LayerCount: 2
Fore
SplineSet
229 60 m 0
 296 60 343 97 370 172 c 1
 446 148 l 1
 407 43 334 -10 227 -10 c 0
 102 -10 33 65 33 193 c 0
 33 258 45 319 68 374 c 0
 116 486 192 538 305 538 c 0
 416 538 482 479 489 383 c 1
 402 371 l 1
 398 434 362 469 302 469 c 0
 261 469 228 458 203 436 c 0
 178 414 158 379 144 331 c 0
 130 284 123 237 123 190 c 0
 123 103 158 60 229 60 c 0
390 728 m 1
 474 596 l 1
 472 586 l 1
 427 586 l 1
 336 669 l 1
 335 669 l 1
 206 586 l 1
 149 586 l 1
 151 596 l 1
 291 728 l 1
 390 728 l 1
EndSplineSet
EndChar

StartChar: Cdotaccent
Encoding: 266 266 202
Width: 722
GlyphClass: 2
Flags: MW
HStem: -10 76<285.5 396 285.5 410.5> 622 76<377.5 496.5> 747 84<440 511 423 528>
VStem: 55 92<211.5 318>
LayerCount: 2
Fore
SplineSet
593 208 m 1
 663 165 l 1
 582 42 479 -10 342 -10 c 0
 162 -10 55 104 55 278 c 0
 55 358 72 430 106 495 c 0
 175 624 303 698 452 698 c 0
 593 698 696 637 728 530 c 1
 640 503 l 1
 616 576 546 622 447 622 c 0
 266 622 147 483 147 276 c 0
 147 147 223 66 348 66 c 0
 444 66 529 115 593 208 c 1
511 747 m 1
 423 747 l 1
 440 831 l 1
 528 831 l 1
 511 747 l 1
EndSplineSet
EndChar

StartChar: cdotaccent
Encoding: 267 267 203
Width: 500
GlyphClass: 2
Flags: MW
HStem: -10 70<193.5 262.5 193.5 280.5> 469 69<281.5 332> 641 84<304 375 288 392>
VStem: 33 90<146.5 213.5 146.5 225.5> 402 87<371 383>
LayerCount: 2
Fore
SplineSet
229 60 m 0
 296 60 343 97 370 172 c 1
 446 148 l 1
 407 43 334 -10 227 -10 c 0
 102 -10 33 65 33 193 c 0
 33 258 45 319 68 374 c 0
 116 486 192 538 305 538 c 0
 416 538 482 479 489 383 c 1
 402 371 l 1
 398 434 362 469 302 469 c 0
 261 469 228 458 203 436 c 0
 178 414 158 379 144 331 c 0
 130 284 123 237 123 190 c 0
 123 103 158 60 229 60 c 0
375 641 m 1
 288 641 l 1
 304 725 l 1
 392 725 l 1
 375 641 l 1
EndSplineSet
EndChar

StartChar: Ccaron
Encoding: 268 268 204
Width: 722
GlyphClass: 2
Flags: MW
HStem: -10 76<285.5 396 285.5 410.5> 622 76<377.5 496.5>
VStem: 55 92<211.5 318>
LayerCount: 2
Fore
SplineSet
593 208 m 1
 663 165 l 1
 582 42 479 -10 342 -10 c 0
 162 -10 55 104 55 278 c 0
 55 358 72 430 106 495 c 0
 175 624 303 698 452 698 c 0
 593 698 696 637 728 530 c 1
 640 503 l 1
 616 576 546 622 447 622 c 0
 266 622 147 483 147 276 c 0
 147 147 223 66 348 66 c 0
 444 66 529 115 593 208 c 1
648 864 m 1
 516 747 l 1
 416 747 l 1
 325 864 l 1
 327 874 l 1
 372 874 l 1
 472 806 l 1
 473 806 l 1
 593 874 l 1
 650 874 l 1
 648 864 l 1
EndSplineSet
EndChar

StartChar: ccaron
Encoding: 269 269 205
Width: 500
GlyphClass: 2
Flags: MW
HStem: -10 70<193.5 262.5 193.5 280.5> 469 69<281.5 332>
VStem: 33 90<146.5 213.5 146.5 225.5> 402 87<371 383>
LayerCount: 2
Fore
SplineSet
229 60 m 0
 296 60 343 97 370 172 c 1
 446 148 l 1
 407 43 334 -10 227 -10 c 0
 102 -10 33 65 33 193 c 0
 33 258 45 319 68 374 c 0
 116 486 192 538 305 538 c 0
 416 538 482 479 489 383 c 1
 402 371 l 1
 398 434 362 469 302 469 c 0
 261 469 228 458 203 436 c 0
 178 414 158 379 144 331 c 0
 130 284 123 237 123 190 c 0
 123 103 158 60 229 60 c 0
494 718 m 1
 359 586 l 1
 259 586 l 1
 171 718 l 1
 173 728 l 1
 220 728 l 1
 317 646 l 1
 318 646 l 1
 441 728 l 1
 496 728 l 1
 494 718 l 1
EndSplineSet
EndChar

StartChar: Dcaron
Encoding: 270 270 206
Width: 722
GlyphClass: 2
Flags: MW
HStem: 0 75<138 277 277 281 281 283> 613 75<243 243 243 361>
VStem: 595 95<381 386 265 387 265 458.5>
LayerCount: 2
Fore
SplineSet
164 688 m 1
 363 688 l 2
 465 688 545 661 603 607 c 0
 661 554 690 480 690 386 c 2
 690 376 l 2
 690 154 518 0 283 0 c 2
 281 0 l 1
 31 0 l 1
 164 688 l 1
243 613 m 1
 138 75 l 1
 277 75 l 1
 284 75 l 2
 469 75 595 196 595 381 c 2
 595 387 l 2
 595 530 509 613 361 613 c 2
 243 613 l 1
592 864 m 1
 459 747 l 1
 360 747 l 1
 269 864 l 1
 271 874 l 1
 316 874 l 1
 416 806 l 1
 417 806 l 1
 537 874 l 1
 594 874 l 1
 592 864 l 1
EndSplineSet
EndChar

StartChar: dcaron
Encoding: 271 271 207
Width: 625
GlyphClass: 2
Flags: MW
HStem: -10 68<187.5 234> 0 21G<360 444 360 360> 473 65<276.5 327 231 333.5>
VStem: 34 91<138 196> 360 84<0 8.5>
LayerCount: 2
Fore
SplineSet
196 -10 m 0xb8
 93 -10 34 55 34 163 c 0
 34 229 44 293 64 355 c 0
 104 479 175 538 287 538 c 0
 367 538 418 502 438 441 c 1
 441 441 l 1
 455 520 l 1
 495 725 l 1
 583 725 l 1
 463 109 l 2
 454 63 447 27 444 0 c 1
 360 0 l 1x78
 360 17 364 43 371 78 c 1
 368 78 l 1
 321 17 272 -10 196 -10 c 0xb8
221 58 m 0xb8
 286 58 330 84 362 137 c 0
 378 164 391 197 400 236 c 0
 409 276 414 312 414 344 c 0
 414 425 371 473 296 473 c 0
 257 473 225 461 202 437 c 0
 179 414 160 375 146 321 c 0
 132 268 125 220 125 178 c 0
 125 98 154 58 221 58 c 0xb8
647 550 m 1
 590 550 l 1
 627 583 649 614 654 643 c 1
 611 643 l 1
 627 725 l 1
 722 725 l 1
 712 673 l 2
 701 616 679 581 647 550 c 1
EndSplineSet
EndChar

StartChar: Dcroat
Encoding: 272 272 208
Width: 722
GlyphClass: 2
Flags: MW
HStem: 0 75<138 287 287 299> 316 75<31 92 17 106 200 383> 613 75<243 243 243 371>
VStem: 605 95<348 433 348 458.5>
LayerCount: 2
Fore
SplineSet
164 688 m 1
 373 688 l 2
 474 688 554 661 612 607 c 0
 671 554 700 480 700 386 c 0
 700 310 684 243 652 185 c 0
 588 69 456 0 299 0 c 2
 31 0 l 1
 92 316 l 1
 17 316 l 1
 31 391 l 1
 106 391 l 1
 164 688 l 1
243 613 m 1
 200 391 l 1
 398 391 l 1
 383 316 l 1
 185 316 l 1
 138 75 l 1
 287 75 l 2
 479 75 605 195 605 387 c 0
 605 530 519 613 371 613 c 2
 243 613 l 1
EndSplineSet
EndChar

StartChar: dcroat
Encoding: 273 273 209
Width: 556
GlyphClass: 2
Flags: MW
HStem: -10 68<187.5 234.5> 0 21G<360 444 360 360> 473 65<276.5 327 231 333.5> 589 64<334 469 322 481 569 621>
VStem: 34 91<138 196> 360 84<0 8.5>
LayerCount: 2
Fore
SplineSet
221 58 m 0xbc
 286 58 330 84 362 137 c 0
 378 164 391 197 400 236 c 0
 409 276 414 312 414 344 c 0
 414 425 371 473 296 473 c 0
 257 473 225 461 202 437 c 0
 179 414 160 375 146 321 c 0
 132 268 125 220 125 178 c 0
 125 98 154 58 221 58 c 0xbc
196 -10 m 0
 93 -10 34 55 34 163 c 0
 34 229 44 293 64 355 c 0
 104 479 175 538 287 538 c 0
 367 538 418 502 438 441 c 1
 441 441 l 1
 469 589 l 1
 322 589 l 1
 334 653 l 1
 481 653 l 1
 495 725 l 1
 583 725 l 1
 569 653 l 1
 633 653 l 1
 621 589 l 1
 557 589 l 1
 463 109 l 2
 454 63 447 27 444 0 c 1
 360 0 l 1x7c
 360 17 364 43 371 78 c 1
 369 78 l 1
 321 17 273 -10 196 -10 c 0
EndSplineSet
EndChar

StartChar: Emacron
Encoding: 274 274 210
Width: 667
GlyphClass: 2
Flags: MW
HStem: 0 76<139 563> 316 75<200 575 185 589> 612 76<243 662 243 243> 767 62<310 565 297 578>
LayerCount: 2
Fore
SplineSet
563 0 m 1
 31 0 l 1
 164 688 l 1
 676 688 l 1
 662 612 l 1
 243 612 l 1
 200 391 l 1
 589 391 l 1
 575 316 l 1
 185 316 l 1
 139 76 l 1
 578 76 l 1
 563 0 l 1
578 829 m 1
 565 767 l 1
 297 767 l 1
 310 829 l 1
 578 829 l 1
EndSplineSet
EndChar

StartChar: emacron
Encoding: 275 275 211
Width: 556
GlyphClass: 2
Flags: MW
HStem: -10 66<207.5 282.5 207.5 293> 246 67<137 430 137 507 125 430> 473 65<302 308 308 349.5> 604 62<208 464 196 477>
VStem: 34 87<146.5 205 146.5 300> 430 89<313 407.5>
LayerCount: 2
Fore
SplineSet
507 246 m 1
 125 246 l 1
 123 235 122 216 121 190 c 0
 121 103 164 56 251 56 c 0
 314 56 368 89 397 144 c 1
 464 113 l 1
 417 28 345 -10 241 -10 c 0
 110 -10 34 66 34 198 c 2
 34 205 l 2
 34 395 149 538 302 538 c 2
 308 538 l 2
 441 538 519 469 519 346 c 0
 519 311 515 278 507 246 c 1
137 313 m 1
 430 313 l 1
 432 348 l 1
 432 429 389 473 310 473 c 0
 222 473 161 416 137 313 c 1
477 666 m 1
 464 604 l 1
 196 604 l 1
 208 666 l 1
 477 666 l 1
EndSplineSet
EndChar

StartChar: Ebreve
Encoding: 276 276 212
Width: 667
GlyphClass: 2
Flags: MW
HStem: 0 76<139 563> 316 75<200 575 185 589> 612 76<243 662 243 243> 742 67<390.5 447 390.5 454.5>
VStem: 269 57<864 864>
LayerCount: 2
Fore
SplineSet
563 0 m 1
 31 0 l 1
 164 688 l 1
 676 688 l 1
 662 612 l 1
 243 612 l 1
 200 391 l 1
 589 391 l 1
 575 316 l 1
 185 316 l 1
 139 76 l 1
 578 76 l 1
 563 0 l 1
414 742 m 0
 327 742 270 792 269 864 c 1
 326 864 l 1
 327 825 363 809 418 809 c 0
 476 809 516 827 537 864 c 1
 594 864 l 1
 559 785 495 742 414 742 c 0
EndSplineSet
EndChar

StartChar: ebreve
Encoding: 277 277 213
Width: 556
GlyphClass: 2
Flags: MW
HStem: -10 66<207.5 282.5 207.5 293> 246 67<137 430 137 507 125 430> 473 65<302 308 308 349.5> 586 72<318.5 374.5 318.5 382.5>
VStem: 34 87<146.5 205 146.5 300> 196 57<737 737> 430 89<313 407.5>
LayerCount: 2
Fore
SplineSet
507 246 m 1
 125 246 l 1
 123 235 122 216 121 190 c 0
 121 103 164 56 251 56 c 0
 314 56 368 89 397 144 c 1
 464 113 l 1
 417 28 345 -10 241 -10 c 0
 110 -10 34 66 34 198 c 2
 34 205 l 2
 34 395 149 538 302 538 c 2
 308 538 l 2
 441 538 519 469 519 346 c 0
 519 311 515 278 507 246 c 1
137 313 m 1
 430 313 l 1
 432 348 l 1
 432 429 389 473 310 473 c 0
 222 473 161 416 137 313 c 1
341 586 m 0
 254 586 197 648 196 737 c 1
 253 737 l 1
 254 682 292 658 345 658 c 0
 404 658 443 684 464 737 c 1
 521 737 l 1
 488 641 424 586 341 586 c 0
EndSplineSet
EndChar

StartChar: Edotaccent
Encoding: 278 278 214
Width: 667
GlyphClass: 2
Flags: MW
HStem: 0 76<139 563> 316 75<200 575 185 589> 612 76<243 662 243 243> 747 84<398 469 381 486>
LayerCount: 2
Fore
SplineSet
563 0 m 1
 31 0 l 1
 164 688 l 1
 676 688 l 1
 662 612 l 1
 243 612 l 1
 200 391 l 1
 589 391 l 1
 575 316 l 1
 185 316 l 1
 139 76 l 1
 578 76 l 1
 563 0 l 1
469 747 m 1
 381 747 l 1
 398 831 l 1
 486 831 l 1
 469 747 l 1
EndSplineSet
EndChar

StartChar: edotaccent
Encoding: 279 279 215
Width: 556
GlyphClass: 2
Flags: MW
HStem: -10 66<207.5 282.5 207.5 293> 246 67<137 430 137 507 125 430> 473 65<302 308 308 349.5> 641 84<312 383 295 399>
VStem: 34 87<146.5 205 146.5 300> 430 89<313 407.5>
LayerCount: 2
Fore
SplineSet
507 246 m 1
 125 246 l 1
 123 235 122 216 121 190 c 0
 121 103 164 56 251 56 c 0
 314 56 368 89 397 144 c 1
 464 113 l 1
 417 28 345 -10 241 -10 c 0
 110 -10 34 66 34 198 c 2
 34 205 l 2
 34 395 149 538 302 538 c 2
 308 538 l 2
 441 538 519 469 519 346 c 0
 519 311 515 278 507 246 c 1
137 313 m 1
 430 313 l 1
 432 348 l 1
 432 429 389 473 310 473 c 0
 222 473 161 416 137 313 c 1
383 641 m 1
 295 641 l 1
 312 725 l 1
 399 725 l 1
 383 641 l 1
EndSplineSet
EndChar

StartChar: Eogonek
Encoding: 280 280 216
Width: 667
GlyphClass: 2
Flags: MW
HStem: -208 53<308.5 311.5> 0 76<139 312 377 377 377 563> 316 75<200 575 185 589> 612 76<243 662 243 243>
VStem: 212 71<-126.5 -99.5>
LayerCount: 2
Fore
SplineSet
299 -208 m 0
 242 -208 212 -175 212 -126 c 0
 212 -73 253 -23 312 0 c 1
 31 0 l 1
 164 688 l 1
 676 688 l 1
 662 612 l 1
 243 612 l 1
 200 391 l 1
 589 391 l 1
 575 316 l 1
 185 316 l 1
 139 76 l 1
 578 76 l 1
 563 0 l 1
 377 0 l 1
 317 -31 283 -74 283 -115 c 0
 283 -138 296 -155 321 -155 c 0
 338 -155 357 -151 377 -144 c 1
 369 -195 l 1
 348 -204 324 -208 299 -208 c 0
EndSplineSet
EndChar

StartChar: eogonek
Encoding: 281 281 217
Width: 556
GlyphClass: 2
Flags: MW
HStem: -199 54<248 250.5> 246 67<137 430 137 507 125 430> 473 65<302 308 308 349.5>
VStem: 34 87<146.5 205 146.5 300> 152 70<-116.5 -95.5> 430 89<313 407.5>
LayerCount: 2
Fore
SplineSet
238 -199 m 0
 181 -199 152 -165 152 -117 c 0
 152 -74 176 -35 215 -9 c 1
 100 1 34 75 34 198 c 2
 34 205 l 2
 34 395 149 538 302 538 c 2
 308 538 l 2
 441 538 519 469 519 346 c 0
 519 311 515 278 507 246 c 1
 125 246 l 1
 123 235 122 216 121 190 c 0
 121 103 164 56 251 56 c 0
 314 56 368 89 397 144 c 1
 464 113 l 1
 425 42 367 3 289 -7 c 1
 246 -36 222 -72 222 -105 c 0
 222 -128 236 -145 260 -145 c 0
 278 -145 297 -141 316 -134 c 1
 309 -186 l 1
 287 -195 263 -199 238 -199 c 0
137 313 m 1
 430 313 l 1
 432 348 l 1
 432 429 389 473 310 473 c 0
 222 473 161 416 137 313 c 1
EndSplineSet
EndChar

StartChar: Ecaron
Encoding: 282 282 218
Width: 667
GlyphClass: 2
Flags: MW
HStem: 0 76<139 563> 316 75<200 575 185 589> 612 76<243 662 243 243>
LayerCount: 2
Fore
SplineSet
563 0 m 1
 31 0 l 1
 164 688 l 1
 676 688 l 1
 662 612 l 1
 243 612 l 1
 200 391 l 1
 589 391 l 1
 575 316 l 1
 185 316 l 1
 139 76 l 1
 578 76 l 1
 563 0 l 1
613 864 m 1
 481 747 l 1
 381 747 l 1
 290 864 l 1
 292 874 l 1
 337 874 l 1
 438 806 l 1
 559 874 l 1
 615 874 l 1
 613 864 l 1
EndSplineSet
EndChar

StartChar: ecaron
Encoding: 283 283 219
Width: 556
GlyphClass: 2
Flags: MW
HStem: -10 66<207.5 282.5 207.5 293> 246 67<137 430 137 507 125 430> 473 65<302 308 308 349.5>
VStem: 34 87<146.5 205 146.5 300> 430 89<313 407.5>
LayerCount: 2
Fore
SplineSet
507 246 m 1
 125 246 l 1
 123 235 122 216 121 190 c 0
 121 103 164 56 251 56 c 0
 314 56 368 89 397 144 c 1
 464 113 l 1
 417 28 345 -10 241 -10 c 0
 110 -10 34 66 34 198 c 2
 34 205 l 2
 34 395 149 538 302 538 c 2
 308 538 l 2
 441 538 519 469 519 346 c 0
 519 311 515 278 507 246 c 1
137 313 m 1
 430 313 l 1
 432 348 l 1
 432 429 389 473 310 473 c 0
 222 473 161 416 137 313 c 1
515 718 m 1
 380 586 l 1
 280 586 l 1
 192 718 l 1
 194 728 l 1
 241 728 l 1
 338 646 l 1
 339 646 l 1
 462 728 l 1
 517 728 l 1
 515 718 l 1
EndSplineSet
EndChar

StartChar: Gcircumflex
Encoding: 284 284 220
Width: 778
GlyphClass: 2
Flags: MW
HStem: -10 76<295 410.5 295 424.5> 266 78<436 626 420 728> 622 76<451 461 461 503.5>
VStem: 49 96<280 288 288 384 213.5 405.5>
LayerCount: 2
Fore
SplineSet
362 -10 m 0
 163 -10 49 97 49 280 c 2
 49 288 l 2
 49 523 217 698 451 698 c 2
 461 698 l 2
 605 698 699 643 735 536 c 1
 641 510 l 1
 617 585 552 622 455 622 c 0
 265 622 145 486 145 282 c 0
 145 145 225 66 365 66 c 0
 456 66 541 91 601 142 c 1
 626 266 l 1
 420 266 l 1
 436 344 l 1
 728 344 l 1
 679 103 l 1
 587 24 487 -10 362 -10 c 0
544 874 m 1
 630 757 l 1
 628 747 l 1
 582 747 l 1
 488 815 l 1
 487 815 l 1
 361 747 l 1
 306 747 l 1
 308 757 l 1
 444 874 l 1
 544 874 l 1
EndSplineSet
EndChar

StartChar: gcircumflex
Encoding: 285 285 221
Width: 556
GlyphClass: 2
Flags: MW
HStem: -208 67<163.5 242 163.5 264.5> -4 65<150 233> 473 65<266.5 326.5 245.5 332.5> 508 20G<464 547 547 547>
VStem: 34 92<142.5 196.5>
LayerCount: 2
Fore
SplineSet
194 -208 m 0xd8
 83 -208 19 -167 2 -84 c 1
 82 -64 l 1
 93 -115 131 -141 196 -141 c 0
 288 -141 336 -96 357 13 c 2
 374 98 l 1
 373 98 l 1
 352 69 334 49 319 36 c 0
 288 11 251 -4 200 -4 c 0
 100 -4 34 67 34 175 c 0
 34 218 40 265 52 315 c 0
 65 366 81 407 102 440 c 0
 145 507 204 538 287 538 c 0xe8
 366 538 424 497 439 438 c 1
 440 438 l 1
 452 490 l 2
 458 513 462 525 464 528 c 2
 547 528 l 1
 538 488 l 1
 523 419 l 1
 445 15 l 2
 413 -142 335 -208 194 -208 c 0xd8
126 182 m 0
 126 103 161 61 228 61 c 2
 233 61 l 2
 334 61 414 197 414 339 c 2
 414 344 l 2
 414 425 369 473 296 473 c 0
 237 473 201 450 174 398 c 0
 161 372 149 338 140 295 c 0
 131 252 126 215 126 182 c 0
395 728 m 1
 479 596 l 1
 477 586 l 1
 432 586 l 1
 341 669 l 1
 340 669 l 1
 210 586 l 1
 154 586 l 1
 156 596 l 1
 295 728 l 1
 395 728 l 1
EndSplineSet
EndChar

StartChar: Gbreve
Encoding: 286 286 222
Width: 778
GlyphClass: 2
Flags: MW
HStem: -10 76<295 410.5 295 424.5> 266 78<436 626 420 728> 622 76<451 461 461 503.5> 742 67<444.5 500.5 444.5 507.5>
VStem: 49 96<280 288 288 384 213.5 405.5> 322 57<864 864>
LayerCount: 2
Fore
SplineSet
362 -10 m 0
 163 -10 49 97 49 280 c 2
 49 288 l 2
 49 523 217 698 451 698 c 2
 461 698 l 2
 605 698 699 643 735 536 c 1
 641 510 l 1
 617 585 552 622 455 622 c 0
 265 622 145 486 145 282 c 0
 145 145 225 66 365 66 c 0
 456 66 541 91 601 142 c 1
 626 266 l 1
 420 266 l 1
 436 344 l 1
 728 344 l 1
 679 103 l 1
 587 24 487 -10 362 -10 c 0
467 742 m 0
 380 742 323 792 322 864 c 1
 379 864 l 1
 380 825 418 809 471 809 c 0
 530 809 569 827 590 864 c 1
 647 864 l 1
 614 785 548 742 467 742 c 0
EndSplineSet
EndChar

StartChar: gbreve
Encoding: 287 287 223
Width: 556
GlyphClass: 2
Flags: MW
HStem: -208 67<163.5 242 163.5 264.5> -4 65<150 233> 473 65<266.5 326.5 245.5 332.5> 508 20G<464 547 547 547> 586 72<306.5 363 306.5 371.5>
VStem: 34 92<142.5 196.5> 185 57<737 737>
LayerCount: 2
Fore
SplineSet
194 -208 m 0xde
 83 -208 19 -167 2 -84 c 1
 82 -64 l 1
 93 -115 131 -141 196 -141 c 0
 288 -141 336 -96 357 13 c 2
 374 98 l 1
 373 98 l 1
 352 69 334 49 319 36 c 0
 288 11 251 -4 200 -4 c 0
 100 -4 34 67 34 175 c 0
 34 218 40 265 52 315 c 0
 65 366 81 407 102 440 c 0
 145 507 204 538 287 538 c 0xee
 366 538 424 497 439 438 c 1
 440 438 l 1
 452 490 l 2
 458 513 462 525 464 528 c 2
 547 528 l 1
 538 488 l 1
 523 419 l 1
 445 15 l 2
 413 -142 335 -208 194 -208 c 0xde
126 182 m 0
 126 103 161 61 228 61 c 2
 233 61 l 2
 334 61 414 197 414 339 c 2
 414 344 l 2
 414 425 369 473 296 473 c 0
 237 473 201 450 174 398 c 0
 161 372 149 338 140 295 c 0
 131 252 126 215 126 182 c 0
330 586 m 0
 243 586 186 648 185 737 c 1
 242 737 l 1
 243 682 279 658 334 658 c 0
 392 658 432 684 453 737 c 1
 510 737 l 1
 477 641 413 586 330 586 c 0
EndSplineSet
EndChar

StartChar: Gdotaccent
Encoding: 288 288 224
Width: 778
GlyphClass: 2
Flags: MW
HStem: -10 76<295 410.5 295 424.5> 266 78<436 626 420 728> 622 76<451 461 461 503.5> 747 84<441 512 424 529>
VStem: 49 96<280 288 288 384 213.5 405.5>
LayerCount: 2
Fore
SplineSet
362 -10 m 0
 163 -10 49 97 49 280 c 2
 49 288 l 2
 49 523 217 698 451 698 c 2
 461 698 l 2
 605 698 699 643 735 536 c 1
 641 510 l 1
 617 585 552 622 455 622 c 0
 265 622 145 486 145 282 c 0
 145 145 225 66 365 66 c 0
 456 66 541 91 601 142 c 1
 626 266 l 1
 420 266 l 1
 436 344 l 1
 728 344 l 1
 679 103 l 1
 587 24 487 -10 362 -10 c 0
512 747 m 1
 424 747 l 1
 441 831 l 1
 529 831 l 1
 512 747 l 1
EndSplineSet
EndChar

StartChar: gdotaccent
Encoding: 289 289 225
Width: 556
GlyphClass: 2
Flags: MW
HStem: -208 67<163.5 242 163.5 264.5> -4 65<150 233> 473 65<266.5 326.5 245.5 332.5> 508 20G<464 547 547 547> 641 84<321 392 304 409>
VStem: 34 92<142.5 196.5>
LayerCount: 2
Fore
SplineSet
194 -208 m 0xdc
 83 -208 19 -167 2 -84 c 1
 82 -64 l 1
 93 -115 131 -141 196 -141 c 0
 288 -141 336 -96 357 13 c 2
 374 98 l 1
 373 98 l 1
 352 69 334 49 319 36 c 0
 288 11 251 -4 200 -4 c 0
 100 -4 34 67 34 175 c 0
 34 218 40 265 52 315 c 0
 65 366 81 407 102 440 c 0
 145 507 204 538 287 538 c 0xec
 366 538 424 497 439 438 c 1
 440 438 l 1
 452 490 l 2
 458 513 462 525 464 528 c 2
 547 528 l 1
 538 488 l 1
 523 419 l 1
 445 15 l 2
 413 -142 335 -208 194 -208 c 0xdc
126 182 m 0
 126 103 161 61 228 61 c 2
 233 61 l 2
 334 61 414 197 414 339 c 2
 414 344 l 2
 414 425 369 473 296 473 c 0
 237 473 201 450 174 398 c 0
 161 372 149 338 140 295 c 0
 131 252 126 215 126 182 c 0
392 641 m 1
 304 641 l 1
 321 725 l 1
 409 725 l 1
 392 641 l 1
EndSplineSet
EndChar

StartChar: Gcommaaccent
Encoding: 290 290 226
Width: 778
GlyphClass: 2
Flags: MW
HStem: -129 81<318 346 303 414> -10 76<295 410.5 295 424.5> 266 78<436 626 420 728> 622 76<451 461 461 503.5>
VStem: 49 96<280 288 288 384 213.5 405.5>
LayerCount: 2
Fore
SplineSet
362 -10 m 0
 163 -10 49 97 49 280 c 2
 49 288 l 2
 49 523 217 698 451 698 c 2
 461 698 l 2
 605 698 699 643 735 536 c 1
 641 510 l 1
 617 585 552 622 455 622 c 0
 265 622 145 486 145 282 c 0
 145 145 225 66 365 66 c 0
 456 66 541 91 601 142 c 1
 626 266 l 1
 420 266 l 1
 436 344 l 1
 728 344 l 1
 679 103 l 1
 587 24 487 -10 362 -10 c 0
339 -222 m 1
 282 -222 l 1
 319 -189 340 -158 346 -129 c 1
 303 -129 l 1
 318 -48 l 1
 414 -48 l 1
 404 -100 l 2
 393 -156 371 -191 339 -222 c 1
EndSplineSet
EndChar

StartChar: gcommaaccent
Encoding: 291 291 227
Width: 556
GlyphClass: 2
Flags: MW
HStem: -208 67<163.5 242 163.5 264.5> -4 65<150 233> 473 65<266.5 326.5 245.5 332.5> 508 20G<464 547 547 547>
VStem: 34 92<142.5 196.5>
LayerCount: 2
Fore
SplineSet
194 -208 m 0xd8
 83 -208 19 -167 2 -84 c 1
 82 -64 l 1
 93 -115 131 -141 196 -141 c 0
 288 -141 336 -96 357 13 c 2
 374 98 l 1
 373 98 l 1
 352 69 334 49 319 36 c 0
 288 11 251 -4 200 -4 c 0
 100 -4 34 67 34 175 c 0
 34 218 40 265 52 315 c 0
 65 366 81 407 102 440 c 0
 145 507 204 538 287 538 c 0xe8
 366 538 424 497 439 438 c 1
 440 438 l 1
 452 490 l 2
 458 513 462 525 464 528 c 2
 547 528 l 1
 538 488 l 1
 523 419 l 1
 445 15 l 2
 413 -142 335 -208 194 -208 c 0xd8
126 182 m 0
 126 103 161 61 228 61 c 2
 233 61 l 2
 334 61 414 197 414 339 c 2
 414 344 l 2
 414 425 369 473 296 473 c 0
 237 473 201 450 174 398 c 0
 161 372 149 338 140 295 c 0
 131 252 126 215 126 182 c 0
358 766 m 1
 415 766 l 1
 378 733 356 702 351 673 c 1
 394 673 l 1
 378 591 l 1
 283 591 l 1
 293 643 l 2
 304 700 326 735 358 766 c 1
EndSplineSet
EndChar

StartChar: Hcircumflex
Encoding: 292 292 228
Width: 722
GlyphClass: 2
Flags: MW
HStem: 0 21G<31 124 31 31 499 589 499 499> 319 78<201 561 186 576> 668 20G<165 258 258 258 632 723 723 723>
LayerCount: 2
Fore
SplineSet
589 0 m 1
 499 0 l 1
 561 319 l 1
 186 319 l 1
 124 0 l 1
 31 0 l 1
 165 688 l 1
 258 688 l 1
 201 397 l 1
 576 397 l 1
 632 688 l 1
 723 688 l 1
 589 0 l 1
528 874 m 1
 614 757 l 1
 612 747 l 1
 566 747 l 1
 472 815 l 1
 471 815 l 1
 345 747 l 1
 290 747 l 1
 292 757 l 1
 428 874 l 1
 528 874 l 1
EndSplineSet
EndChar

StartChar: hcircumflex
Encoding: 293 293 229
Width: 556
GlyphClass: 2
Flags: MW
HStem: 0 21G<17 104 17 17 350 438 350 350> 470 68<327.5 362>
VStem: 420 90<388.5 415.5>
LayerCount: 2
Fore
SplineSet
186 438 m 1
 187 438 l 1
 242 513 290 538 365 538 c 0
 462 538 510 488 510 399 c 0
 510 378 507 352 500 319 c 2
 438 0 l 1
 350 0 l 1
 411 315 l 2
 417 344 420 368 420 388 c 0
 420 443 391 470 333 470 c 0
 250 470 182 403 162 296 c 2
 104 0 l 1
 17 0 l 1
 157 725 l 1
 245 725 l 1
 208 536 l 2
 203 503 195 471 186 438 c 1
464 913 m 1
 550 795 l 1
 548 786 l 1
 502 786 l 1
 408 854 l 1
 407 854 l 1
 281 786 l 1
 226 786 l 1
 228 795 l 1
 364 913 l 1
 464 913 l 1
EndSplineSet
EndChar

StartChar: Hbar
Encoding: 294 294 230
Width: 722
GlyphClass: 2
Flags: MW
HStem: 0 21G<30 124 30 30 498 589 498 498> 319 78<201 560 185 575> 500 76<67 127 52 142 235 595 701 761> 668 20G<164 257 257 257 631 722 722 722>
LayerCount: 2
Fore
SplineSet
589 0 m 1
 498 0 l 1
 560 319 l 1
 185 319 l 1
 124 0 l 1
 30 0 l 1
 127 500 l 1
 52 500 l 1
 67 576 l 1
 142 576 l 1
 164 688 l 1
 257 688 l 1
 235 576 l 1
 610 576 l 1
 631 688 l 1
 722 688 l 1
 701 576 l 1
 775 576 l 1
 761 500 l 1
 686 500 l 1
 589 0 l 1
201 397 m 1
 575 397 l 1
 595 500 l 1
 221 500 l 1
 201 397 l 1
EndSplineSet
EndChar

StartChar: hbar
Encoding: 295 295 231
Width: 556
GlyphClass: 2
Flags: MW
HStem: 0 21G<17 104 17 17 350 438 350 350> 450 68<323.5 358> 589 64<79 131 67 143 231 366>
VStem: 416 90<368.5 396>
LayerCount: 2
Fore
SplineSet
182 418 m 1
 183 418 l 1
 238 494 286 518 361 518 c 0
 458 518 506 470 506 379 c 0
 506 358 503 332 496 299 c 2
 438 0 l 1
 350 0 l 1
 407 295 l 2
 413 324 416 348 416 369 c 0
 416 423 387 450 329 450 c 0
 246 450 178 383 158 276 c 2
 104 0 l 1
 17 0 l 1
 131 589 l 1
 67 589 l 1
 79 653 l 1
 143 653 l 1
 157 725 l 1
 245 725 l 1
 231 653 l 1
 378 653 l 1
 366 589 l 1
 219 589 l 1
 205 517 196 472 191 454 c 0
 186 437 183 425 182 418 c 1
EndSplineSet
EndChar

StartChar: Itilde
Encoding: 296 296 232
Width: 278
GlyphClass: 2
Flags: MW
HStem: 0 21G<40 133 40 40> 668 20G<173 267 267 267> 810 68<158.5 194>
VStem: 384 50<878 878>
LayerCount: 2
Fore
SplineSet
133 0 m 1
 40 0 l 1
 173 688 l 1
 267 688 l 1
 133 0 l 1
311 747 m 1
 256 747 214 810 174 810 c 0
 143 810 125 792 109 747 c 1
 60 747 l 1
 91 846 128 878 183 878 c 0
 239 878 281 815 319 815 c 0
 349 815 371 836 384 878 c 1
 434 878 l 1
 400 776 373 753 311 747 c 1
EndSplineSet
EndChar

StartChar: itilde
Encoding: 297 297 233
Width: 222
GlyphClass: 2
Flags: MW
HStem: 0 21G<17 104 17 17> 508 20G<119 207 207 207> 586 73<233.5 264> 645 72<90 126.5>
LayerCount: 2
Fore
SplineSet
104 0 m 1xc0
 17 0 l 1
 119 528 l 1
 207 528 l 1
 104 0 l 1xc0
244 586 m 0xe0
 190 586 147 645 106 645 c 0xd0
 74 645 51 625 37 586 c 1
 -7 586 l 1xe0
 24 686 61 717 116 717 c 0xd0
 172 717 214 659 253 659 c 0xe0
 286 659 309 678 322 717 c 1
 367 717 l 1xd0
 356 682 345 656 334 639 c 0
 313 607 284 586 244 586 c 0xe0
EndSplineSet
EndChar

StartChar: Imacron
Encoding: 298 298 234
Width: 278
GlyphClass: 2
Flags: MW
HStem: 0 21G<40 133 40 40> 668 20G<173 267 267 267> 767 62<107 363 95 376>
LayerCount: 2
Fore
SplineSet
133 0 m 1
 40 0 l 1
 173 688 l 1
 267 688 l 1
 133 0 l 1
376 829 m 1
 363 767 l 1
 95 767 l 1
 107 829 l 1
 376 829 l 1
EndSplineSet
EndChar

StartChar: imacron
Encoding: 299 299 235
Width: 222
GlyphClass: 2
Flags: MW
HStem: 0 21G<17 104 17 17> 508 20G<119 207 207 207> 604 62<52 308 39 320>
VStem: 17 303
LayerCount: 2
Fore
SplineSet
104 0 m 1
 17 0 l 1
 119 528 l 1
 207 528 l 1
 104 0 l 1
320 666 m 1
 308 604 l 1
 39 604 l 1
 52 666 l 1
 320 666 l 1
EndSplineSet
EndChar

StartChar: Ibreve
Encoding: 300 300 236
Width: 278
GlyphClass: 2
Flags: MW
HStem: 0 21G<40 133 40 40> 668 20G<173 267 267 267> 742 67<203.5 260 203.5 267.5>
VStem: 82 57<864 864>
LayerCount: 2
Fore
SplineSet
133 0 m 1
 40 0 l 1
 173 688 l 1
 267 688 l 1
 133 0 l 1
227 742 m 0
 140 742 83 792 82 864 c 1
 139 864 l 1
 140 825 176 809 231 809 c 0
 289 809 329 827 350 864 c 1
 407 864 l 1
 372 785 308 742 227 742 c 0
EndSplineSet
EndChar

StartChar: ibreve
Encoding: 301 301 237
Width: 222
GlyphClass: 2
Flags: MW
HStem: 0 21G<17 104 17 17> 508 20G<119 207 207 207> 586 72<152.5 208.5 152.5 216.5>
VStem: 30 57<737 737>
LayerCount: 2
Fore
SplineSet
104 0 m 1
 17 0 l 1
 119 528 l 1
 207 528 l 1
 104 0 l 1
175 586 m 0
 88 586 31 648 30 737 c 1
 87 737 l 1
 88 682 126 658 179 658 c 0
 238 658 277 684 298 737 c 1
 355 737 l 1
 322 641 258 586 175 586 c 0
EndSplineSet
EndChar

StartChar: Iogonek
Encoding: 302 302 238
Width: 278
GlyphClass: 2
Flags: MW
HStem: -208 53<65.5 68.5> 668 20G<173 267 267 267>
VStem: -31 71<-126.5 -99.5>
LayerCount: 2
Fore
SplineSet
56 -208 m 0
 -1 -208 -31 -175 -31 -126 c 0
 -31 -73 9 -23 69 0 c 1
 40 0 l 1
 173 688 l 1
 267 688 l 1
 133 0 l 1
 134 0 l 1
 73 -31 40 -74 40 -115 c 0
 40 -138 53 -155 78 -155 c 0
 95 -155 114 -151 133 -144 c 1
 126 -195 l 1
 104 -204 81 -208 56 -208 c 0
EndSplineSet
EndChar

StartChar: iogonek
Encoding: 303 303 239
Width: 222
GlyphClass: 2
Flags: MW
HStem: -208 53<35.5 38.5> 508 20G<119 207 207 207> 641 84<157 228 140 245>
VStem: -61 71<-126.5 -99.5>
LayerCount: 2
Fore
SplineSet
26 -208 m 0
 -31 -208 -61 -175 -61 -126 c 0
 -61 -73 -20 -23 39 0 c 1
 16 0 l 1
 119 528 l 1
 207 528 l 1
 104 0 l 1
 44 -31 10 -74 10 -115 c 0
 10 -138 23 -155 48 -155 c 0
 65 -155 84 -151 104 -144 c 1
 96 -195 l 1
 74 -204 51 -208 26 -208 c 0
228 641 m 1
 140 641 l 1
 157 725 l 1
 245 725 l 1
 228 641 l 1
EndSplineSet
EndChar

StartChar: Idotaccent
Encoding: 304 304 240
Width: 278
GlyphClass: 2
Flags: MW
HStem: 0 21G<40 133 40 40> 668 20G<173 267 267 267> 747 84<200 271 184 288>
VStem: 40 248
LayerCount: 2
Fore
SplineSet
133 0 m 1
 40 0 l 1
 173 688 l 1
 267 688 l 1
 133 0 l 1
271 747 m 1
 184 747 l 1
 200 831 l 1
 288 831 l 1
 271 747 l 1
EndSplineSet
EndChar

StartChar: dotlessi
Encoding: 305 305 241
Width: 278
GlyphClass: 2
Flags: MW
HStem: 0 21G<43 131 43 43> 508 20G<146 234 234 234>
VStem: 43 191
LayerCount: 2
Fore
SplineSet
131 0 m 1
 43 0 l 1
 146 528 l 1
 234 528 l 1
 131 0 l 1
EndSplineSet
EndChar

StartChar: IJ
Encoding: 306 306 242
Width: 733
GlyphClass: 2
Flags: MW
HStem: -10 76<395.5 462 395.5 483> 0 21G<40 133 40 40> 612 76<506 634>
VStem: 231 82<167 184>
LayerCount: 2
Fore
SplineSet
133 0 m 1x70
 40 0 l 1
 173 688 l 1
 267 688 l 1
 133 0 l 1x70
419 -10 m 0xb0
 316 -10 248 52 231 167 c 1
 313 184 l 1
 328 107 363 66 428 66 c 0
 496 66 537 111 557 215 c 2
 634 612 l 1
 492 612 l 1
 506 688 l 1
 741 688 l 1
 647 207 l 2
 619 60 547 -10 419 -10 c 0xb0
EndSplineSet
EndChar

StartChar: ij
Encoding: 307 307 243
Width: 444
GlyphClass: 2
Flags: MW
HStem: -208 70<164 180.5 156.5 210.5> 0 21G<16 104 16 16> 508 20G<119 207 207 207 341 429 429 429> 641 84<157 228 140 245 379 451>
LayerCount: 2
Fore
SplineSet
228 641 m 1
 140 641 l 1
 157 725 l 1
 245 725 l 1
 228 641 l 1
104 0 m 1
 16 0 l 1
 119 528 l 1
 207 528 l 1
 104 0 l 1
451 641 m 1
 363 641 l 1
 379 725 l 1
 467 725 l 1
 451 641 l 1
173 -208 m 0
 155 -208 134 -206 110 -201 c 1
 121 -134 l 1
 138 -137 151 -138 162 -138 c 0
 199 -138 217 -112 228 -52 c 2
 341 528 l 1
 429 528 l 1
 313 -65 l 2
 293 -169 248 -208 173 -208 c 0
EndSplineSet
EndChar

StartChar: Jcircumflex
Encoding: 308 308 244
Width: 500
GlyphClass: 2
Flags: MW
HStem: -10 76<162 228.5 162 249.5> 612 76<273 400 258 508>
VStem: -2 82<167 184>
LayerCount: 2
Fore
SplineSet
186 -10 m 0
 82 -10 14 52 -2 167 c 1
 80 184 l 1
 95 107 130 66 194 66 c 0
 263 66 304 111 324 215 c 2
 400 612 l 1
 258 612 l 1
 273 688 l 1
 508 688 l 1
 414 207 l 2
 386 60 313 -10 186 -10 c 0
485 874 m 1
 572 757 l 1
 570 747 l 1
 523 747 l 1
 430 815 l 1
 429 815 l 1
 302 747 l 1
 247 747 l 1
 249 757 l 1
 386 874 l 1
 485 874 l 1
EndSplineSet
EndChar

StartChar: jcircumflex
Encoding: 309 309 245
Width: 222
GlyphClass: 2
Flags: MW
HStem: -208 70<-58 -40.5 -65 -11> 508 20G<119 207 207 207>
LayerCount: 2
Fore
SplineSet
243 728 m 1
 327 596 l 1
 325 586 l 1
 280 586 l 1
 189 669 l 1
 188 669 l 1
 59 586 l 1
 2 586 l 1
 4 596 l 1
 144 728 l 1
 243 728 l 1
-49 -208 m 0
 -67 -208 -88 -206 -112 -201 c 1
 -101 -134 l 1
 -84 -137 -70 -138 -60 -138 c 0
 -21 -138 -5 -112 6 -52 c 2
 119 528 l 1
 207 528 l 1
 91 -65 l 2
 71 -169 27 -208 -49 -208 c 0
EndSplineSet
EndChar

StartChar: Kcommaaccent
Encoding: 310 310 246
Width: 667
GlyphClass: 2
Flags: MW
HStem: -129 81<256 283 240 351> 0 21G<31 124 31 31 499 609 499 499> 668 20G<164 257 257 257 584 704 704 704>
LayerCount: 2
Fore
SplineSet
609 0 m 1
 499 0 l 1
 269 329 l 1
 176 266 l 1
 124 0 l 1
 31 0 l 1
 164 688 l 1
 257 688 l 1
 191 351 l 1
 259 414 l 1
 584 688 l 1
 704 688 l 1
 337 380 l 1
 609 0 l 1
276 -222 m 1
 219 -222 l 1
 256 -189 278 -158 283 -129 c 1
 240 -129 l 1
 256 -48 l 1
 351 -48 l 1
 341 -100 l 2
 330 -156 308 -191 276 -222 c 1
EndSplineSet
EndChar

StartChar: kcommaaccent
Encoding: 311 311 247
Width: 500
GlyphClass: 2
Flags: MW
HStem: -129 81<182 209 166 277> 0 21G<17 104 17 17 352 447 352 352> 508 20G<434 542 542 542>
LayerCount: 2
Fore
SplineSet
447 0 m 1
 352 0 l 1
 221 245 l 1
 139 185 l 1
 104 0 l 1
 17 0 l 1
 157 725 l 1
 245 725 l 1
 158 277 l 1
 257 370 l 1
 434 528 l 1
 542 528 l 1
 283 301 l 1
 447 0 l 1
202 -222 m 1
 145 -222 l 1
 182 -189 204 -158 209 -129 c 1
 166 -129 l 1
 182 -48 l 1
 277 -48 l 1
 267 -100 l 2
 256 -156 234 -191 202 -222 c 1
EndSplineSet
EndChar

StartChar: kgreenlandic
Encoding: 312 312 248
Width: 500
GlyphClass: 2
Flags: MW
HStem: 0 21G<17 104 17 17 352 447 352 352> 508 20G<119 207 207 207 434 542 542 542>
LayerCount: 2
Fore
SplineSet
447 0 m 1
 352 0 l 1
 221 245 l 1
 139 185 l 1
 104 0 l 1
 17 0 l 1
 119 528 l 1
 207 528 l 1
 158 277 l 1
 257 370 l 1
 434 528 l 1
 542 528 l 1
 283 301 l 1
 447 0 l 1
EndSplineSet
EndChar

StartChar: Lacute
Encoding: 313 313 249
Width: 556
GlyphClass: 2
Flags: MW
HStem: 0 76<139 472> 668 20G<164 257 257 257>
LayerCount: 2
Fore
SplineSet
472 0 m 1
 31 0 l 1
 164 688 l 1
 257 688 l 1
 139 76 l 1
 486 76 l 1
 472 0 l 1
271 747 m 1
 215 747 l 1
 217 757 l 1
 344 867 l 1
 445 867 l 1
 443 853 l 1
 271 747 l 1
EndSplineSet
EndChar

StartChar: lacute
Encoding: 314 314 250
Width: 222
GlyphClass: 2
Flags: MW
HStem: 0 21G<16 104 16 16>
LayerCount: 2
Fore
SplineSet
104 0 m 1
 16 0 l 1
 157 725 l 1
 245 725 l 1
 104 0 l 1
207 786 m 1
 151 786 l 1
 152 795 l 1
 280 906 l 1
 381 906 l 1
 378 892 l 1
 207 786 l 1
EndSplineSet
EndChar

StartChar: Lcommaaccent
Encoding: 315 315 251
Width: 556
GlyphClass: 2
Flags: MW
HStem: -129 81<208 236 193 304> 0 76<139 472> 668 20G<164 257 257 257>
LayerCount: 2
Fore
SplineSet
472 0 m 1
 31 0 l 1
 164 688 l 1
 257 688 l 1
 139 76 l 1
 486 76 l 1
 472 0 l 1
229 -222 m 1
 172 -222 l 1
 209 -189 231 -158 236 -129 c 1
 193 -129 l 1
 208 -48 l 1
 304 -48 l 1
 294 -100 l 2
 283 -156 261 -191 229 -222 c 1
EndSplineSet
EndChar

StartChar: lcommaaccent
Encoding: 316 316 252
Width: 222
GlyphClass: 2
Flags: MW
HStem: -129 81<3 31 -12 99> 0 21G<16 104 16 16>
VStem: -33 278
LayerCount: 2
Fore
SplineSet
104 0 m 1
 16 0 l 1
 157 725 l 1
 245 725 l 1
 104 0 l 1
24 -222 m 1
 -33 -222 l 1
 4 -189 25 -158 31 -129 c 1
 -12 -129 l 1
 3 -48 l 1
 99 -48 l 1
 89 -100 l 2
 78 -156 56 -191 24 -222 c 1
EndSplineSet
EndChar

StartChar: Lcaron
Encoding: 317 317 253
Width: 556
GlyphClass: 2
Flags: MW
HStem: 0 76<139 472> 668 20G<164 257 257 257 418 513 513 513>
LayerCount: 2
Fore
SplineSet
472 0 m 1
 31 0 l 1
 164 688 l 1
 257 688 l 1
 139 76 l 1
 486 76 l 1
 472 0 l 1
438 514 m 1
 381 514 l 1
 418 547 440 577 445 606 c 1
 402 606 l 1
 418 688 l 1
 513 688 l 1
 503 636 l 2
 492 580 470 545 438 514 c 1
EndSplineSet
EndChar

StartChar: lcaron
Encoding: 318 318 254
Width: 281
GlyphClass: 2
Flags: MW
HStem: 0 21G<16 104 16 16>
LayerCount: 2
Fore
SplineSet
104 0 m 1
 16 0 l 1
 157 725 l 1
 245 725 l 1
 104 0 l 1
311 550 m 1
 254 550 l 1
 291 583 313 614 318 643 c 1
 275 643 l 1
 291 725 l 1
 386 725 l 1
 376 673 l 2
 365 616 343 581 311 550 c 1
EndSplineSet
EndChar

StartChar: Ldot
Encoding: 319 319 255
Width: 556
GlyphClass: 2
Flags: MW
HStem: 0 76<139 472> 335 84<347 418 331 435> 668 20G<164 257 257 257>
LayerCount: 2
Fore
SplineSet
472 0 m 1
 31 0 l 1
 164 688 l 1
 257 688 l 1
 139 76 l 1
 486 76 l 1
 472 0 l 1
418 335 m 1
 331 335 l 1
 347 419 l 1
 435 419 l 1
 418 335 l 1
EndSplineSet
EndChar

StartChar: ldot
Encoding: 320 320 256
Width: 400
GlyphClass: 2
Flags: MW
HStem: 0 21G<16 104 16 16> 335 84<282 353 265 370>
LayerCount: 2
Fore
SplineSet
104 0 m 1
 16 0 l 1
 157 725 l 1
 245 725 l 1
 104 0 l 1
353 335 m 1
 265 335 l 1
 282 419 l 1
 370 419 l 1
 353 335 l 1
EndSplineSet
EndChar

StartChar: Lslash
Encoding: 321 321 257
Width: 556
GlyphClass: 2
Flags: MW
HStem: 0 76<138 470> 668 20G<163 256 256 256>
LayerCount: 2
Fore
SplineSet
184 316 m 1
 138 76 l 1
 485 76 l 1
 470 0 l 1
 29 0 l 1
 81 263 l 1
 1 221 l 1
 15 298 l 1
 96 340 l 1
 163 688 l 1
 256 688 l 1
 199 394 l 1
 349 466 l 1
 333 389 l 1
 184 316 l 1
EndSplineSet
EndChar

StartChar: lslash
Encoding: 322 322 258
Width: 222
GlyphClass: 2
Flags: MW
HStem: 0 21G<16 103 16 16>
VStem: 1 243
LayerCount: 2
Fore
SplineSet
103 0 m 1
 16 0 l 1
 67 265 l 1
 1 231 l 1
 16 309 l 1
 82 342 l 1
 156 725 l 1
 244 725 l 1
 180 393 l 1
 247 428 l 1
 232 350 l 1
 165 315 l 1
 103 0 l 1
EndSplineSet
EndChar

StartChar: Nacute
Encoding: 323 323 259
Width: 722
GlyphClass: 2
Flags: MW
HStem: 0 21G<31 114 31 31 482 589 482 482> 668 20G<164 268 268 268 639 723 723 723>
VStem: 639 84<688 688>
LayerCount: 2
Fore
SplineSet
589 0 m 1
 482 0 l 1
 223 591 l 1
 216 535 209 491 202 460 c 2
 114 0 l 1
 31 0 l 1
 164 688 l 1
 268 688 l 1
 528 95 l 1
 537 156 544 202 550 233 c 2
 639 688 l 1
 723 688 l 1
 589 0 l 1
445 747 m 1
 389 747 l 1
 391 757 l 1
 518 867 l 1
 619 867 l 1
 617 853 l 1
 445 747 l 1
EndSplineSet
EndChar

StartChar: nacute
Encoding: 324 324 260
Width: 556
GlyphClass: 2
Flags: MW
HStem: 0 21G<19 106 19 19 352 440 352 352> 470 68<330.5 364> 508 20G<119 202 202 202>
VStem: 119 83<526.5 528> 422 91<388.5 415.5>
LayerCount: 2
Fore
SplineSet
440 0 m 1xd8
 352 0 l 1
 414 315 l 2
 419 344 422 368 422 388 c 0
 422 443 393 470 335 470 c 0xd8
 252 470 185 403 164 296 c 2
 106 0 l 1
 19 0 l 1
 100 416 l 2
 106 447 112 484 119 528 c 1
 202 528 l 2xb8
 202 525 200 512 196 490 c 2
 188 438 l 1
 189 438 l 1
 244 513 293 538 368 538 c 0
 464 538 513 488 513 399 c 0
 513 378 509 352 502 319 c 2
 440 0 l 1xd8
321 586 m 1
 275 586 l 1
 276 596 l 1
 400 736 l 1
 506 736 l 1
 503 722 l 1
 321 586 l 1
EndSplineSet
EndChar

StartChar: Ncommaaccent
Encoding: 325 325 261
Width: 722
GlyphClass: 2
Flags: MW
HStem: -129 81<260 287 244 355> 0 21G<31 114 31 31 482 589 482 482> 668 20G<164 268 268 268 639 723 723 723>
VStem: 639 84<688 688>
LayerCount: 2
Fore
SplineSet
589 0 m 1
 482 0 l 1
 223 591 l 1
 216 535 209 491 202 460 c 2
 114 0 l 1
 31 0 l 1
 164 688 l 1
 268 688 l 1
 528 95 l 1
 537 156 544 202 550 233 c 2
 639 688 l 1
 723 688 l 1
 589 0 l 1
280 -222 m 1
 223 -222 l 1
 260 -189 282 -158 287 -129 c 1
 244 -129 l 1
 260 -48 l 1
 355 -48 l 1
 345 -100 l 2
 334 -156 312 -191 280 -222 c 1
EndSplineSet
EndChar

StartChar: ncommaaccent
Encoding: 326 326 262
Width: 556
GlyphClass: 2
Flags: MW
HStem: -129 81<182 209 166 277> 0 21G<19 106 19 19 352 440 352 352> 470 68<330.5 364> 508 20G<119 202 202 202>
VStem: 119 83<528 528> 422 91<388.5 415.5>
LayerCount: 2
Fore
SplineSet
440 0 m 1xec
 352 0 l 1
 414 315 l 2
 419 344 422 368 422 388 c 0
 422 443 393 470 335 470 c 0xec
 252 470 185 403 164 296 c 2
 106 0 l 1
 19 0 l 1
 100 416 l 2
 106 447 112 484 119 528 c 1
 202 528 l 2xdc
 202 525 200 512 196 490 c 2
 188 438 l 1
 189 438 l 1
 244 513 293 538 368 538 c 0
 464 538 513 488 513 399 c 0
 513 378 509 352 502 319 c 2
 440 0 l 1xec
202 -222 m 1
 145 -222 l 1
 182 -189 204 -158 209 -129 c 1
 166 -129 l 1
 182 -48 l 1
 277 -48 l 1
 267 -100 l 2
 256 -156 234 -191 202 -222 c 1
EndSplineSet
EndChar

StartChar: Ncaron
Encoding: 327 327 263
Width: 722
GlyphClass: 2
Flags: MW
HStem: 0 21G<31 114 31 31 482 589 482 482> 668 20G<164 268 268 268 639 723 723 723>
VStem: 639 84<688 688>
LayerCount: 2
Fore
SplineSet
589 0 m 1
 482 0 l 1
 223 591 l 1
 216 535 209 491 202 460 c 2
 114 0 l 1
 31 0 l 1
 164 688 l 1
 268 688 l 1
 528 95 l 1
 537 156 544 202 550 233 c 2
 639 688 l 1
 723 688 l 1
 589 0 l 1
634 864 m 1
 501 747 l 1
 402 747 l 1
 311 864 l 1
 313 874 l 1
 358 874 l 1
 458 806 l 1
 459 806 l 1
 579 874 l 1
 636 874 l 1
 634 864 l 1
EndSplineSet
EndChar

StartChar: ncaron
Encoding: 328 328 264
Width: 556
GlyphClass: 2
Flags: MW
HStem: 0 21G<19 106 19 19 352 440 352 352> 470 68<330.5 364> 508 20G<119 202 202 202>
VStem: 119 83<526.5 528> 422 91<388.5 415.5>
LayerCount: 2
Fore
SplineSet
440 0 m 1xd8
 352 0 l 1
 414 315 l 2
 419 344 422 368 422 388 c 0
 422 443 393 470 335 470 c 0xd8
 252 470 185 403 164 296 c 2
 106 0 l 1
 19 0 l 1
 100 416 l 2
 106 447 112 484 119 528 c 1
 202 528 l 2xb8
 202 525 200 512 196 490 c 2
 188 438 l 1
 189 438 l 1
 244 513 293 538 368 538 c 0
 464 538 513 488 513 399 c 0
 513 378 509 352 502 319 c 2
 440 0 l 1xd8
519 718 m 1
 383 586 l 1
 284 586 l 1
 195 718 l 1
 197 728 l 1
 245 728 l 1
 342 646 l 1
 343 646 l 1
 466 728 l 1
 521 728 l 1
 519 718 l 1
EndSplineSet
EndChar

StartChar: napostrophe
Encoding: 329 329 265
Width: 615
GlyphClass: 2
Flags: MW
HStem: 0 21G<75 163 75 75 409 497 409 409> 470 68<386.5 421> 508 20G<175 258 258 258> 668 20G<71 167 167 167>
VStem: 175 83<526.5 528> 479 90<388.5 415.5>
LayerCount: 2
Fore
SplineSet
497 0 m 1xdc
 409 0 l 1
 470 315 l 2
 476 344 479 368 479 388 c 0
 479 443 450 470 392 470 c 0xdc
 309 470 241 403 221 296 c 2
 163 0 l 1
 75 0 l 1
 156 416 l 2
 163 447 169 484 175 528 c 1
 258 528 l 2xbc
 258 525 256 512 253 490 c 2
 245 438 l 1
 246 438 l 1
 301 513 349 538 424 538 c 0
 521 538 569 488 569 399 c 0
 569 378 566 352 559 319 c 2
 497 0 l 1xdc
85 465 m 1
 25 465 l 1
 64 509 87 551 96 592 c 1
 53 592 l 1
 71 688 l 1
 167 688 l 1
 153 617 l 2
 141 556 121 509 85 465 c 1
EndSplineSet
EndChar

StartChar: Eng
Encoding: 330 330 266
Width: 723
GlyphClass: 2
Flags: MW
HStem: -10 75<404.5 433.5 404.5 460.5> 0 21G<31 124 31 31> 622 76<435.5 456 456 461> 668 20G<162 252 252 252>
VStem: 595 93<510.5 548.5>
LayerCount: 2
Fore
SplineSet
416 -10 m 0xa8
 344 -10 292 22 264 66 c 1
 333 119 l 1
 354 87 387 65 422 65 c 0
 445 65 465 71 480 82 c 0
 495 94 508 113 519 138 c 0
 530 163 541 206 553 267 c 2
 588 451 l 2
 593 474 595 494 595 512 c 0
 595 585 550 622 461 622 c 2
 456 622 l 2xa8
 342 622 225 531 208 435 c 2
 124 0 l 1
 31 0 l 1
 134 533 l 1
 162 688 l 1
 252 688 l 1x58
 248 659 241 618 232 565 c 1
 234 565 l 1
 297 652 384 698 487 698 c 0
 621 698 688 640 688 523 c 0
 688 498 685 471 679 441 c 2
 645 265 l 2
 628 178 611 119 594 86 c 0
 559 21 505 -10 416 -10 c 0xa8
EndSplineSet
EndChar

StartChar: eng
Encoding: 331 331 267
Width: 556
GlyphClass: 2
Flags: MW
HStem: -208 70<276 293.5 269 323> 0 21G<17 104 17 17> 470 68<328.5 362> 508 20G<117 200 200 200>
VStem: 117 83<526.5 528> 420 91<388.5 415.5>
LayerCount: 2
Fore
SplineSet
285 -208 m 0xec
 267 -208 246 -206 222 -201 c 1
 233 -134 l 1
 250 -137 264 -138 274 -138 c 0
 313 -138 329 -112 340 -52 c 2
 412 315 l 2
 417 344 420 368 420 388 c 0
 420 443 391 470 333 470 c 0xec
 250 470 183 403 162 296 c 2
 104 0 l 1
 17 0 l 1
 98 416 l 2
 104 447 110 484 117 528 c 1
 200 528 l 2xdc
 200 525 198 512 194 490 c 2
 186 438 l 1
 188 438 l 1
 241 513 291 538 366 538 c 0
 462 538 511 488 511 399 c 0
 511 378 507 352 500 319 c 2
 425 -65 l 2
 405 -169 361 -208 285 -208 c 0xec
EndSplineSet
EndChar

StartChar: Omacron
Encoding: 332 332 268
Width: 778
GlyphClass: 2
Flags: MW
HStem: -10 76<284.5 383 284.5 461.5> 623 75<421.5 503 380.5 518.5> 767 62<343 599 331 612>
VStem: 54 93<207 304.5 207 318.5> 657 93<416 459 416 481.5>
LayerCount: 2
Fore
SplineSet
458 698 m 0
 548 698 619 672 671 621 c 0
 724 570 750 502 750 416 c 0
 746 155 577 -10 346 -10 c 0
 162 -10 54 99 54 280 c 0
 54 357 71 429 105 494 c 0
 174 625 303 698 458 698 c 0
454 623 m 0
 389 623 333 608 288 579 c 0
 243 550 208 507 183 449 c 0
 159 392 147 334 147 275 c 0
 147 139 218 66 351 66 c 0
 415 66 469 80 514 108 c 0
 559 136 594 178 619 234 c 0
 644 291 657 351 657 414 c 0
 657 549 583 623 454 623 c 0
612 829 m 1
 599 767 l 1
 331 767 l 1
 343 829 l 1
 612 829 l 1
EndSplineSet
EndChar

StartChar: omacron
Encoding: 333 333 269
Width: 556
GlyphClass: 2
Flags: MW
HStem: -10 65<205.5 278.5 205.5 284.5> 473 65<306 313 313 353.5> 604 62<201 457 188 470>
VStem: 33 90<155 205> 434 90<333 379.5>
LayerCount: 2
Fore
SplineSet
524 333 m 0
 524 249 497 149 449 85 c 0
 401 22 329 -10 240 -10 c 0
 112 -10 33 72 33 205 c 1
 39 401 134 538 306 538 c 2
 313 538 l 2
 450 538 524 464 524 333 c 0
434 333 m 1
 434 426 394 473 313 473 c 0
 269 473 234 462 207 439 c 0
 180 416 160 382 145 336 c 0
 130 291 123 246 123 203 c 0
 123 107 166 55 245 55 c 0
 312 55 348 77 379 125 c 0
 410 173 430 252 434 333 c 1
470 666 m 1
 457 604 l 1
 188 604 l 1
 201 666 l 1
 470 666 l 1
EndSplineSet
EndChar

StartChar: Obreve
Encoding: 334 334 270
Width: 778
GlyphClass: 2
Flags: MW
HStem: -10 76<284.5 383 284.5 461.5> 623 75<421.5 503 380.5 518.5> 742 67<441.5 497.5 441.5 504.5>
VStem: 54 93<207 304.5 207 318.5> 319 57<864 864> 657 93<416 459 416 481.5>
LayerCount: 2
Fore
SplineSet
458 698 m 0
 548 698 619 672 671 621 c 0
 724 570 750 502 750 416 c 0
 746 155 577 -10 346 -10 c 0
 162 -10 54 99 54 280 c 0
 54 357 71 429 105 494 c 0
 174 625 303 698 458 698 c 0
454 623 m 0
 389 623 333 608 288 579 c 0
 243 550 208 507 183 449 c 0
 159 392 147 334 147 275 c 0
 147 139 218 66 351 66 c 0
 415 66 469 80 514 108 c 0
 559 136 594 178 619 234 c 0
 644 291 657 351 657 414 c 0
 657 549 583 623 454 623 c 0
464 742 m 0
 377 742 320 792 319 864 c 1
 376 864 l 1
 377 825 415 809 468 809 c 0
 527 809 566 827 587 864 c 1
 644 864 l 1
 611 785 545 742 464 742 c 0
EndSplineSet
EndChar

StartChar: obreve
Encoding: 335 335 271
Width: 556
GlyphClass: 2
Flags: MW
HStem: -10 65<205.5 278.5 205.5 284.5> 473 65<306 313 313 353.5> 586 72<318.5 374.5 318.5 382.5>
VStem: 33 90<155 205> 196 57<737 737> 434 90<333 379.5>
LayerCount: 2
Fore
SplineSet
524 333 m 0
 524 249 497 149 449 85 c 0
 401 22 329 -10 240 -10 c 0
 112 -10 33 72 33 205 c 1
 39 401 134 538 306 538 c 2
 313 538 l 2
 450 538 524 464 524 333 c 0
434 333 m 1
 434 426 394 473 313 473 c 0
 269 473 234 462 207 439 c 0
 180 416 160 382 145 336 c 0
 130 291 123 246 123 203 c 0
 123 107 166 55 245 55 c 0
 312 55 348 77 379 125 c 0
 410 173 430 252 434 333 c 1
341 586 m 0
 254 586 197 648 196 737 c 1
 253 737 l 1
 254 682 292 658 345 658 c 0
 404 658 443 684 464 737 c 1
 521 737 l 1
 488 641 424 586 341 586 c 0
EndSplineSet
EndChar

StartChar: Ohungarumlaut
Encoding: 336 336 272
Width: 778
GlyphClass: 2
Flags: MW
HStem: -10 76<284.5 383 284.5 461.5> 623 75<421.5 503 380.5 518.5>
VStem: 54 93<207 304.5 207 318.5> 657 93<416 459 416 481.5>
LayerCount: 2
Fore
SplineSet
458 698 m 0
 548 698 619 672 671 621 c 0
 724 570 750 502 750 416 c 0
 746 155 577 -10 346 -10 c 0
 162 -10 54 99 54 280 c 0
 54 357 71 429 105 494 c 0
 174 625 303 698 458 698 c 0
454 623 m 0
 389 623 333 608 288 579 c 0
 243 550 208 507 183 449 c 0
 159 392 147 334 147 275 c 0
 147 139 218 66 351 66 c 0
 415 66 469 80 514 108 c 0
 559 136 594 178 619 234 c 0
 644 291 657 351 657 414 c 0
 657 549 583 623 454 623 c 0
372 747 m 1
 326 747 l 1
 328 757 l 1
 436 868 l 1
 537 868 l 1
 535 854 l 1
 372 747 l 1
541 747 m 1
 495 747 l 1
 497 757 l 1
 605 868 l 1
 707 868 l 1
 704 854 l 1
 541 747 l 1
EndSplineSet
EndChar

StartChar: ohungarumlaut
Encoding: 337 337 273
Width: 556
GlyphClass: 2
Flags: MW
HStem: -10 65<205.5 278.5 205.5 284.5> 473 65<306 313 313 353.5>
VStem: 33 90<155 205> 434 90<333 379.5>
LayerCount: 2
Fore
SplineSet
524 333 m 0
 524 249 497 149 449 85 c 0
 401 22 329 -10 240 -10 c 0
 112 -10 33 72 33 205 c 1
 39 401 134 538 306 538 c 2
 313 538 l 2
 450 538 524 464 524 333 c 0
434 333 m 1
 434 426 394 473 313 473 c 0
 269 473 234 462 207 439 c 0
 180 416 160 382 145 336 c 0
 130 291 123 246 123 203 c 0
 123 107 166 55 245 55 c 0
 312 55 348 77 379 125 c 0
 410 173 430 252 434 333 c 1
218 586 m 1
 173 586 l 1
 174 596 l 1
 297 736 l 1
 398 736 l 1
 396 722 l 1
 218 586 l 1
388 586 m 1
 342 586 l 1
 343 596 l 1
 467 736 l 1
 568 736 l 1
 565 722 l 1
 388 586 l 1
EndSplineSet
EndChar

StartChar: OE
Encoding: 338 338 274
Width: 1000
GlyphClass: 2
Flags: MW
HStem: 0 76<451 451 544 896 436 451> 316 75<605 908 590 922> 612 76<648 995 648 648>
VStem: 49 94<280 286 286 306 209 403>
LayerCount: 2
Fore
SplineSet
896 0 m 1
 436 0 l 2
 411 -3 380 -5 343 -5 c 0
 159 -5 49 103 49 280 c 2
 49 286 l 2
 49 520 219 693 443 693 c 2
 452 693 l 2
 491 693 534 691 583 688 c 2
 1009 688 l 1
 995 612 l 1
 648 612 l 1
 605 391 l 1
 922 391 l 1
 908 316 l 1
 590 316 l 1
 544 76 l 1
 911 76 l 1
 896 0 l 1
348 71 m 0
 390 71 424 73 451 76 c 1
 555 613 l 1
 528 616 492 618 447 618 c 0
 384 618 329 604 283 576 c 0
 238 548 203 506 179 451 c 0
 155 396 143 337 143 275 c 0
 143 143 217 71 348 71 c 0
EndSplineSet
EndChar

StartChar: oe
Encoding: 339 339 275
Width: 944
GlyphClass: 2
Flags: MW
HStem: -10 66<596.5 671.5 596.5 681.5> 246 67<526 817 526 895 515 817> 473 65<304 313 313 353.5 657.5 738.5>
VStem: 34 90<154.5 205> 817 90<313 407.5>
LayerCount: 2
Fore
SplineSet
895 246 m 1
 515 246 l 1
 512 229 510 211 510 190 c 0
 510 103 553 56 640 56 c 0
 703 56 756 88 785 144 c 1
 852 113 l 1
 804 26 733 -10 630 -10 c 0
 543 -10 482 21 448 84 c 1
 400 23 331 -7 240 -7 c 0
 111 -7 34 73 34 205 c 0
 39 400 136 538 304 538 c 2
 313 538 l 2
 405 538 467 507 500 444 c 1
 549 504 618 538 697 538 c 0
 829 538 907 469 907 346 c 0
 907 311 903 278 895 246 c 1
434 333 m 0
 434 426 394 473 313 473 c 0
 269 473 234 461 207 438 c 0
 180 415 160 381 145 335 c 0
 131 290 124 246 124 203 c 0
 124 106 164 58 245 58 c 0
 290 58 324 69 349 90 c 0
 400 134 430 229 434 333 c 0
526 313 m 1
 817 313 l 1
 819 348 l 1
 819 429 778 473 699 473 c 0
 611 473 550 416 526 313 c 1
EndSplineSet
EndChar

StartChar: Racute
Encoding: 340 340 276
Width: 722
GlyphClass: 2
Flags: MW
HStem: 0 21G<31 124 31 31 513 614 513 513> 286 73<194 395 179 418> 613 75<243 452 243 243>
VStem: 597 94<455.5 534 446.5 536.5>
LayerCount: 2
Fore
SplineSet
614 0 m 1
 513 0 l 1
 395 286 l 1
 179 286 l 1
 124 0 l 1
 31 0 l 1
 164 688 l 1
 463 688 l 2
 532 688 588 671 629 638 c 0
 670 605 691 561 691 507 c 0
 691 386 620 313 483 294 c 1
 614 0 l 1
194 359 m 1
 418 359 l 2
 537 359 597 411 597 500 c 0
 597 573 548 613 452 613 c 2
 243 613 l 1
 194 359 l 1
406 747 m 1
 351 747 l 1
 352 757 l 1
 479 867 l 1
 581 867 l 1
 578 853 l 1
 406 747 l 1
EndSplineSet
EndChar

StartChar: racute
Encoding: 341 341 277
Width: 333
GlyphClass: 2
Flags: MW
HStem: 0 21G<17 104 17 17> 464 64 464 74<292.5 314.5>
LayerCount: 2
Fore
SplineSet
367 531 m 1xa0
 351 458 l 1
 336 462 322 464 307 464 c 0xa0
 272 464 241 446 214 410 c 0
 187 375 168 330 158 275 c 2
 104 0 l 1
 17 0 l 1
 96 405 l 1
 108 473 l 1
 117 528 l 1
 200 528 l 1xc0
 183 420 l 1
 185 420 l 1
 228 507 265 538 320 538 c 0
 335 538 351 536 367 531 c 1xa0
220 586 m 1
 174 586 l 1
 176 596 l 1
 299 736 l 1
 405 736 l 1
 403 722 l 1
 220 586 l 1
EndSplineSet
EndChar

StartChar: Rcommaaccent
Encoding: 342 342 278
Width: 722
GlyphClass: 2
Flags: MW
HStem: -129 81<272 299 256 367> 0 21G<31 124 31 31 513 614 513 513> 286 73<194 395 179 418> 613 75<243 452 243 243>
VStem: 597 94<455.5 534 446.5 536.5>
LayerCount: 2
Fore
SplineSet
614 0 m 1
 513 0 l 1
 395 286 l 1
 179 286 l 1
 124 0 l 1
 31 0 l 1
 164 688 l 1
 463 688 l 2
 532 688 588 671 629 638 c 0
 670 605 691 561 691 507 c 0
 691 386 620 313 483 294 c 1
 614 0 l 1
194 359 m 1
 418 359 l 2
 537 359 597 411 597 500 c 0
 597 573 548 613 452 613 c 2
 243 613 l 1
 194 359 l 1
292 -222 m 1
 235 -222 l 1
 272 -189 294 -158 299 -129 c 1
 256 -129 l 1
 272 -48 l 1
 367 -48 l 1
 357 -100 l 2
 346 -156 324 -191 292 -222 c 1
EndSplineSet
EndChar

StartChar: rcommaaccent
Encoding: 343 343 279
Width: 333
GlyphClass: 2
Flags: MW
HStem: -129 81<11 38 -5 106> 0 21G<17 104 17 17> 464 64 464 74<292.5 314.5>
LayerCount: 2
Fore
SplineSet
367 531 m 1xd0
 351 458 l 1
 336 462 322 464 307 464 c 0xd0
 272 464 241 446 214 410 c 0
 187 375 168 330 158 275 c 2
 104 0 l 1
 17 0 l 1
 96 405 l 1
 108 473 l 1
 117 528 l 1
 200 528 l 1xe0
 183 420 l 1
 185 420 l 1
 228 507 265 538 320 538 c 0
 335 538 351 536 367 531 c 1xd0
31 -222 m 1
 -26 -222 l 1
 11 -189 33 -158 38 -129 c 1
 -5 -129 l 1
 11 -48 l 1
 106 -48 l 1
 96 -100 l 2
 85 -156 63 -191 31 -222 c 1
EndSplineSet
EndChar

StartChar: Rcaron
Encoding: 344 344 280
Width: 722
GlyphClass: 2
Flags: MW
HStem: 0 21G<31 124 31 31 513 614 513 513> 286 73<194 395 179 418> 613 75<243 452 243 243>
VStem: 597 94<455.5 534 446.5 536.5>
LayerCount: 2
Fore
SplineSet
614 0 m 1
 513 0 l 1
 395 286 l 1
 179 286 l 1
 124 0 l 1
 31 0 l 1
 164 688 l 1
 463 688 l 2
 532 688 588 671 629 638 c 0
 670 605 691 561 691 507 c 0
 691 386 620 313 483 294 c 1
 614 0 l 1
194 359 m 1
 418 359 l 2
 537 359 597 411 597 500 c 0
 597 573 548 613 452 613 c 2
 243 613 l 1
 194 359 l 1
598 864 m 1
 466 747 l 1
 366 747 l 1
 275 864 l 1
 277 874 l 1
 322 874 l 1
 422 806 l 1
 423 806 l 1
 543 874 l 1
 600 874 l 1
 598 864 l 1
EndSplineSet
EndChar

StartChar: rcaron
Encoding: 345 345 281
Width: 333
GlyphClass: 2
Flags: MW
HStem: 0 21G<17 104 17 17> 464 64 464 74<292.5 314.5>
LayerCount: 2
Fore
SplineSet
367 531 m 1xa0
 351 458 l 1
 336 462 322 464 307 464 c 0xa0
 272 464 241 446 214 410 c 0
 187 375 168 330 158 275 c 2
 104 0 l 1
 17 0 l 1
 96 405 l 1
 108 473 l 1
 117 528 l 1
 200 528 l 1xc0
 183 420 l 1
 185 420 l 1
 228 507 265 538 320 538 c 0
 335 538 351 536 367 531 c 1xa0
425 718 m 1
 290 586 l 1
 190 586 l 1
 102 718 l 1
 104 728 l 1
 151 728 l 1
 248 646 l 1
 249 646 l 1
 372 728 l 1
 427 728 l 1
 425 718 l 1
EndSplineSet
EndChar

StartChar: Sacute
Encoding: 346 346 282
Width: 667
GlyphClass: 2
Flags: MW
HStem: -10 73<248.5 379.5 248.5 405> 528 21G<572 572> 628 70<340.5 448.5>
VStem: 28 87<165 183> 125 93<503 551.5 503 567.5> 513 95<149 204>
LayerCount: 2
Fore
SplineSet
301 -10 m 0
 138 -10 51 48 28 165 c 1
 115 183 l 1
 132 99 189 63 308 63 c 0
 451 63 513 105 513 193 c 0
 513 215 508 233 499 246 c 0
 490 259 474 271 451 281 c 0
 428 292 389 305 333 321 c 0
 278 336 236 352 208 368 c 0
 153 400 125 444 125 508 c 0
 125 627 231 698 402 698 c 0
 546 698 635 648 656 553 c 1
 572 528 l 1
 551 596 495 628 402 628 c 0
 279 628 218 590 218 513 c 0
 218 493 222 477 230 464 c 0
 239 452 252 441 271 432 c 0
 290 423 328 411 385 396 c 0
 448 378 494 361 522 344 c 0
 578 312 608 267 608 199 c 0
 608 66 509 -10 301 -10 c 0
390 747 m 1
 344 747 l 1
 345 757 l 1
 469 897 l 1
 575 897 l 1
 572 883 l 1
 390 747 l 1
EndSplineSet
EndChar

StartChar: sacute
Encoding: 347 347 283
Width: 500
GlyphClass: 2
Flags: MW
HStem: -10 64<177 261.5 177 284> 473 64<239 313>
VStem: 69 85<392 422.5 392 436.5> 357 86<117 155 102.5 157> 400 79<400 412>
LayerCount: 2
Fore
SplineSet
443 155 m 1xf0
 443 50 360 -10 208 -10 c 0
 95 -10 29 26 2 109 c 1
 74 136 l 1
 95 79 139 54 215 54 c 0
 308 54 357 87 357 147 c 0xf0
 357 167 349 184 332 197 c 0
 316 211 281 226 227 243 c 0
 106 283 74 317 69 389 c 1
 69 484 148 537 285 537 c 0
 400 537 465 495 479 412 c 1
 400 400 l 1xe8
 385 451 347 473 279 473 c 0
 199 473 154 446 154 399 c 0
 154 385 157 373 164 364 c 0
 171 355 180 346 193 339 c 0
 206 332 236 321 283 306 c 0
 403 268 437 231 443 155 c 1xf0
284 586 m 1
 238 586 l 1
 240 596 l 1
 363 736 l 1
 469 736 l 1
 467 722 l 1
 284 586 l 1
EndSplineSet
EndChar

StartChar: Scircumflex
Encoding: 348 348 284
Width: 667
GlyphClass: 2
Flags: MW
HStem: -10 73<248.5 379.5 248.5 405> 528 21G<572 572> 628 70<340.5 448.5>
VStem: 28 87<165 183> 125 93<503 551.5 503 567.5> 513 95<149 204>
LayerCount: 2
Fore
SplineSet
301 -10 m 0
 138 -10 51 48 28 165 c 1
 115 183 l 1
 132 99 189 63 308 63 c 0
 451 63 513 105 513 193 c 0
 513 215 508 233 499 246 c 0
 490 259 474 271 451 281 c 0
 428 292 389 305 333 321 c 0
 278 336 236 352 208 368 c 0
 153 400 125 444 125 508 c 0
 125 627 231 698 402 698 c 0
 546 698 635 648 656 553 c 1
 572 528 l 1
 551 596 495 628 402 628 c 0
 279 628 218 590 218 513 c 0
 218 493 222 477 230 464 c 0
 239 452 252 441 271 432 c 0
 290 423 328 411 385 396 c 0
 448 378 494 361 522 344 c 0
 578 312 608 267 608 199 c 0
 608 66 509 -10 301 -10 c 0
492 888 m 1
 576 756 l 1
 574 746 l 1
 529 746 l 1
 438 829 l 1
 437 829 l 1
 308 746 l 1
 251 746 l 1
 253 756 l 1
 393 888 l 1
 492 888 l 1
EndSplineSet
EndChar

StartChar: scircumflex
Encoding: 349 349 285
Width: 500
GlyphClass: 2
Flags: MW
HStem: -10 64<177 261.5 177 284> 473 64<239 313>
VStem: 69 85<392 422.5 392 436.5> 357 86<117 155 102.5 157> 400 79<400 412>
LayerCount: 2
Fore
SplineSet
443 155 m 1xf0
 443 50 360 -10 208 -10 c 0
 95 -10 29 26 2 109 c 1
 74 136 l 1
 95 79 139 54 215 54 c 0
 308 54 357 87 357 147 c 0xf0
 357 167 349 184 332 197 c 0
 316 211 281 226 227 243 c 0
 106 283 74 317 69 389 c 1
 69 484 148 537 285 537 c 0
 400 537 465 495 479 412 c 1
 400 400 l 1xe8
 385 451 347 473 279 473 c 0
 199 473 154 446 154 399 c 0
 154 385 157 373 164 364 c 0
 171 355 180 346 193 339 c 0
 206 332 236 321 283 306 c 0
 403 268 437 231 443 155 c 1xf0
374 728 m 1
 458 596 l 1
 456 586 l 1
 411 586 l 1
 320 669 l 1
 319 669 l 1
 189 586 l 1
 133 586 l 1
 135 596 l 1
 274 728 l 1
 374 728 l 1
EndSplineSet
EndChar

StartChar: Scedilla
Encoding: 350 350 286
Width: 667
GlyphClass: 2
Flags: MW
HStem: -208 45<235.5 272 235.5 290.5> -10 73<280 280> 528 21G<572 572> 628 70<340.5 448.5>
VStem: 28 87<165 183> 125 93<503 551.5 503 567.5> 323 66<-133.5 -107.5> 513 95<149 204>
LayerCount: 2
Fore
SplineSet
332 -9 m 1
 310 -47 l 1
 362 -50 389 -74 389 -113 c 0
 389 -176 340 -208 241 -208 c 0
 224 -208 207 -207 189 -204 c 1
 199 -160 l 1
 215 -162 229 -163 242 -163 c 0
 302 -163 323 -148 323 -119 c 0
 323 -96 304 -84 265 -84 c 0
 251 -84 242 -84 237 -85 c 2
 280 -10 l 1
 131 -5 50 53 28 165 c 1
 115 183 l 1
 132 99 189 63 308 63 c 0
 451 63 513 105 513 193 c 0
 513 215 508 233 499 246 c 0
 490 259 474 271 451 281 c 0
 428 292 389 305 333 321 c 0
 278 336 236 352 208 368 c 0
 153 400 125 444 125 508 c 0
 125 627 231 698 402 698 c 0
 546 698 635 648 656 553 c 1
 572 528 l 1
 551 596 495 628 402 628 c 0
 279 628 218 590 218 513 c 0
 218 493 222 477 230 464 c 0
 239 452 252 441 271 432 c 0
 290 423 328 411 385 396 c 0
 448 378 494 361 522 344 c 0
 578 312 608 267 608 199 c 0
 608 73 519 -2 332 -9 c 1
EndSplineSet
EndChar

StartChar: scedilla
Encoding: 351 351 287
Width: 500
GlyphClass: 2
Flags: MW
HStem: -208 45<151.5 187.5 151.5 205.5> -10 64<196 196> 473 64<239 313>
VStem: 69 85<392 422.5 392 436.5> 239 65<-133.5 -107.5> 357 86<117 155 107.5 157> 400 79<400 412>
LayerCount: 2
Fore
SplineSet
196 -10 m 1xfc
 90 -7 28 29 2 109 c 1
 74 136 l 1
 95 79 139 54 215 54 c 0
 308 54 357 87 357 147 c 0xfc
 357 167 349 184 332 197 c 0
 316 211 281 226 227 243 c 0
 106 283 74 317 69 389 c 1
 69 484 148 537 285 537 c 0
 400 537 465 495 479 412 c 1
 400 400 l 1xfa
 385 451 347 473 279 473 c 0
 199 473 154 446 154 399 c 0
 154 385 157 373 164 364 c 0
 171 355 180 346 193 339 c 0
 206 332 236 321 283 306 c 0
 403 268 437 231 443 155 c 1
 443 60 375 2 249 -8 c 1
 225 -47 l 1
 278 -50 304 -74 304 -113 c 0
 304 -176 255 -208 156 -208 c 0
 140 -208 123 -207 104 -204 c 1
 115 -160 l 1
 130 -162 145 -163 158 -163 c 0
 217 -163 239 -148 239 -119 c 0
 239 -96 220 -84 181 -84 c 0
 166 -84 157 -84 152 -85 c 2
 196 -10 l 1xfc
EndSplineSet
EndChar

StartChar: Scaron
Encoding: 352 352 288
Width: 667
GlyphClass: 2
Flags: MW
HStem: -10 73<248.5 379.5 248.5 405> 528 21G<572 572> 628 70<340.5 448.5>
VStem: 28 87<165 183> 125 93<503 551.5 503 567.5> 513 95<149 204>
LayerCount: 2
Fore
SplineSet
301 -10 m 0
 138 -10 51 48 28 165 c 1
 115 183 l 1
 132 99 189 63 308 63 c 0
 451 63 513 105 513 193 c 0
 513 215 508 233 499 246 c 0
 490 259 474 271 451 281 c 0
 428 292 389 305 333 321 c 0
 278 336 236 352 208 368 c 0
 153 400 125 444 125 508 c 0
 125 627 231 698 402 698 c 0
 546 698 635 648 656 553 c 1
 572 528 l 1
 551 596 495 628 402 628 c 0
 279 628 218 590 218 513 c 0
 218 493 222 477 230 464 c 0
 239 452 252 441 271 432 c 0
 290 423 328 411 385 396 c 0
 448 378 494 361 522 344 c 0
 578 312 608 267 608 199 c 0
 608 66 509 -10 301 -10 c 0
595 864 m 1
 462 747 l 1
 363 747 l 1
 271 864 l 1
 273 874 l 1
 319 874 l 1
 419 806 l 1
 420 806 l 1
 540 874 l 1
 597 874 l 1
 595 864 l 1
EndSplineSet
EndChar

StartChar: scaron
Encoding: 353 353 289
Width: 500
GlyphClass: 2
Flags: MW
HStem: -10 64<177 261.5 177 284> 473 64<239 313>
VStem: 69 85<392 422.5 392 436.5> 357 86<117 155 102.5 157> 400 79<400 412>
LayerCount: 2
Fore
SplineSet
443 155 m 1xf0
 443 50 360 -10 208 -10 c 0
 95 -10 29 26 2 109 c 1
 74 136 l 1
 95 79 139 54 215 54 c 0
 308 54 357 87 357 147 c 0xf0
 357 167 349 184 332 197 c 0
 316 211 281 226 227 243 c 0
 106 283 74 317 69 389 c 1
 69 484 148 537 285 537 c 0
 400 537 465 495 479 412 c 1
 400 400 l 1xe8
 385 451 347 473 279 473 c 0
 199 473 154 446 154 399 c 0
 154 385 157 373 164 364 c 0
 171 355 180 346 193 339 c 0
 206 332 236 321 283 306 c 0
 403 268 437 231 443 155 c 1xf0
483 718 m 1
 348 586 l 1
 249 586 l 1
 160 718 l 1
 162 728 l 1
 209 728 l 1
 307 646 l 1
 308 646 l 1
 431 728 l 1
 485 728 l 1
 483 718 l 1
EndSplineSet
EndChar

StartChar: uni0162
Encoding: 354 354 290
Width: 611
GlyphClass: 2
Flags: MW
HStem: -208 45<179.5 215.5 179.5 234.5> 612 76<104 326 90 670 419 655 419 419>
VStem: 267 66<-133.5 -107.5>
LayerCount: 2
Fore
SplineSet
655 612 m 1
 419 612 l 1
 300 0 l 1
 282 0 l 1
 253 -47 l 1
 306 -50 333 -74 333 -113 c 0
 333 -176 284 -208 185 -208 c 0
 168 -208 151 -207 133 -204 c 1
 143 -160 l 1
 159 -162 173 -163 186 -163 c 0
 245 -163 267 -148 267 -119 c 0
 267 -96 248 -84 209 -84 c 0
 195 -84 186 -84 181 -85 c 2
 230 0 l 1
 207 0 l 1
 326 612 l 1
 90 612 l 1
 104 688 l 1
 670 688 l 1
 655 612 l 1
EndSplineSet
EndChar

StartChar: uni0163
Encoding: 355 355 291
Width: 278
GlyphClass: 2
Flags: MW
HStem: -208 45<53.5 89.5 53.5 108.5> -9 69<150 186> 464 64<66 114 53 128 215 300>
VStem: 45 90<88.5 90> 141 66<-133.5 -107.5>
LayerCount: 2
Fore
SplineSet
150 -9 m 1
 127 -47 l 1
 180 -50 207 -74 207 -113 c 0
 207 -176 158 -208 59 -208 c 0
 42 -208 25 -207 7 -204 c 1
 17 -160 l 1
 33 -162 47 -163 60 -163 c 0
 119 -163 141 -148 141 -119 c 0
 141 -96 122 -84 83 -84 c 0
 69 -84 60 -84 55 -85 c 2
 101 -5 l 1
 66 7 45 38 45 81 c 0
 45 99 48 120 53 145 c 2
 114 464 l 1
 53 464 l 1
 66 528 l 1
 128 528 l 1
 179 646 l 1
 238 646 l 1
 215 528 l 1
 313 528 l 1
 300 464 l 1
 202 464 l 1
 141 149 l 2
 137 130 135 114 135 103 c 0
 135 74 150 60 179 60 c 0
 193 60 209 62 228 67 c 1
 219 2 l 1
 193 -4 170 -8 150 -9 c 1
EndSplineSet
EndChar

StartChar: Tcaron
Encoding: 356 356 292
Width: 611
GlyphClass: 2
Flags: MW
HStem: 0 21G<207 300 207 207> 612 76<104 326 90 670 419 655 419 419>
LayerCount: 2
Fore
SplineSet
655 612 m 1
 419 612 l 1
 300 0 l 1
 207 0 l 1
 326 612 l 1
 90 612 l 1
 104 688 l 1
 670 688 l 1
 655 612 l 1
577 864 m 1
 445 747 l 1
 345 747 l 1
 254 864 l 1
 256 874 l 1
 301 874 l 1
 401 806 l 1
 402 806 l 1
 522 874 l 1
 579 874 l 1
 577 864 l 1
EndSplineSet
EndChar

StartChar: tcaron
Encoding: 357 357 293
Width: 354
GlyphClass: 2
Flags: MW
HStem: -10 70<106.5 186> 464 64<66 114 53 128 215 300>
VStem: 45 90<88.5 90>
LayerCount: 2
Fore
SplineSet
134 -10 m 0
 79 -10 45 26 45 81 c 0
 45 99 48 120 53 145 c 2
 114 464 l 1
 53 464 l 1
 66 528 l 1
 128 528 l 1
 179 646 l 1
 238 646 l 1
 215 528 l 1
 313 528 l 1
 300 464 l 1
 202 464 l 1
 141 149 l 2
 137 130 135 114 135 103 c 0
 135 74 150 60 179 60 c 0
 193 60 209 62 228 67 c 1
 219 2 l 1
 186 -6 158 -10 134 -10 c 0
383 550 m 1
 326 550 l 1
 363 583 385 614 390 643 c 1
 347 643 l 1
 363 725 l 1
 458 725 l 1
 448 673 l 2
 437 616 415 581 383 550 c 1
EndSplineSet
EndChar

StartChar: Tbar
Encoding: 358 358 294
Width: 611
GlyphClass: 2
Flags: MW
HStem: 0 21G<208 300 208 208> 316 75<147 269 132 283 376 499> 612 76<104 326 90 670 419 655 419 419>
LayerCount: 2
Fore
SplineSet
655 612 m 1
 419 612 l 1
 376 391 l 1
 513 391 l 1
 499 316 l 1
 361 316 l 1
 300 0 l 1
 208 0 l 1
 269 316 l 1
 132 316 l 1
 147 391 l 1
 283 391 l 1
 326 612 l 1
 90 612 l 1
 104 688 l 1
 670 688 l 1
 655 612 l 1
EndSplineSet
EndChar

StartChar: tbar
Encoding: 359 359 295
Width: 278
GlyphClass: 2
Flags: MW
HStem: -10 70<106.5 186> 252 64<24 73 12 85 173 259> 464 64<66 114 53 128 215 300>
VStem: 45 90<88.5 90>
LayerCount: 2
Fore
SplineSet
135 103 m 0
 135 74 150 60 179 60 c 0
 193 60 209 62 228 67 c 1
 219 2 l 1
 186 -6 158 -10 134 -10 c 0
 79 -10 45 26 45 81 c 0
 45 99 48 120 53 145 c 2
 73 252 l 1
 12 252 l 1
 24 316 l 1
 85 316 l 1
 114 464 l 1
 53 464 l 1
 66 528 l 1
 128 528 l 1
 179 646 l 1
 238 646 l 1
 215 528 l 1
 313 528 l 1
 300 464 l 1
 202 464 l 1
 173 316 l 1
 271 316 l 1
 259 252 l 1
 161 252 l 1
 141 149 l 2
 137 130 135 114 135 103 c 0
EndSplineSet
EndChar

StartChar: Utilde
Encoding: 360 360 296
Width: 722
GlyphClass: 2
Flags: MW
HStem: -10 76<275.5 389.5 275.5 409> 668 20G<159 252 252 252 634 727 727 727> 810 68<380.5 415.5>
VStem: 75 90<162.5 216 162.5 224.5> 159 93<688 688> 605 50<878 878>
LayerCount: 2
Fore
SplineSet
319 -10 m 0xf4
 168 -10 75 74 75 210 c 0xf4
 75 239 81 286 86 310 c 2
 159 688 l 1
 252 688 l 1xec
 173 276 l 2
 168 248 165 225 165 207 c 0
 165 118 224 66 327 66 c 0
 452 66 527 132 552 264 c 2
 634 688 l 1
 727 688 l 1
 644 259 l 2
 609 80 499 -10 319 -10 c 0xf4
533 747 m 1
 477 747 435 810 396 810 c 0
 365 810 347 792 331 747 c 1
 282 747 l 1
 313 846 351 878 404 878 c 0
 463 878 501 815 541 815 c 0
 570 815 592 836 605 878 c 1
 655 878 l 1
 622 776 595 753 533 747 c 1
EndSplineSet
EndChar

StartChar: utilde
Encoding: 361 361 297
Width: 556
GlyphClass: 2
Flags: MW
HStem: -9 68<190.5 224.5> 0 21G<353 436 353 353> 508 20G<114 203 203 203 448 536 536 536> 586 73<398.5 429> 645 72<255 291.5>
VStem: 42 90<113 139.5> 353 83<0 1.5>
LayerCount: 2
Fore
SplineSet
114 528 m 1xa6
 203 528 l 1
 141 213 l 2
 135 184 132 160 132 140 c 0
 132 86 161 59 220 59 c 0xa6
 301 59 370 125 391 232 c 2
 448 528 l 1
 536 528 l 1
 455 113 l 2
 448 82 442 44 436 0 c 1
 353 0 l 2x66
 353 3 355 16 358 37 c 0
 361 59 364 77 367 90 c 1
 365 90 l 1
 312 15 262 -9 187 -9 c 0
 91 -9 42 40 42 129 c 0
 42 150 45 177 52 209 c 2
 114 528 l 1xa6
409 586 m 0x36
 355 586 312 645 271 645 c 0x2e
 239 645 216 625 202 586 c 1
 158 586 l 1x36
 189 686 226 717 281 717 c 0x2e
 337 717 379 659 418 659 c 0x36
 451 659 474 678 487 717 c 1
 532 717 l 1x2e
 521 682 510 656 499 639 c 0
 478 607 449 586 409 586 c 0x36
EndSplineSet
EndChar

StartChar: Umacron
Encoding: 362 362 298
Width: 722
GlyphClass: 2
Flags: MW
HStem: -10 76<275.5 389.5 275.5 409> 668 20G<159 252 252 252 634 727 727 727> 764 62<328 584 315 597>
VStem: 75 90<162.5 216 162.5 224.5> 159 93<688 688>
LayerCount: 2
Fore
SplineSet
319 -10 m 0xf0
 168 -10 75 74 75 210 c 0xf0
 75 239 81 286 86 310 c 2
 159 688 l 1
 252 688 l 1xe8
 173 276 l 2
 168 248 165 225 165 207 c 0
 165 118 224 66 327 66 c 0
 452 66 527 132 552 264 c 2
 634 688 l 1
 727 688 l 1
 644 259 l 2
 609 80 499 -10 319 -10 c 0xf0
597 826 m 1
 584 764 l 1
 315 764 l 1
 328 826 l 1
 597 826 l 1
EndSplineSet
EndChar

StartChar: umacron
Encoding: 363 363 299
Width: 556
GlyphClass: 2
Flags: MW
HStem: -9 68<190.5 224.5> 0 21G<353 436 353 353> 508 20G<114 203 203 203 448 536 536 536> 604 62<212 468 199 480>
VStem: 42 90<113 139.5> 353 83<0 1.5>
LayerCount: 2
Fore
SplineSet
114 528 m 1xbc
 203 528 l 1
 141 213 l 2
 135 184 132 160 132 140 c 0
 132 86 161 59 220 59 c 0xbc
 301 59 370 125 391 232 c 2
 448 528 l 1
 536 528 l 1
 455 113 l 2
 448 82 442 44 436 0 c 1
 353 0 l 2x7c
 353 3 355 16 358 37 c 0
 361 59 364 77 367 90 c 1
 365 90 l 1
 312 15 262 -9 187 -9 c 0
 91 -9 42 40 42 129 c 0
 42 150 45 177 52 209 c 2
 114 528 l 1xbc
480 666 m 1
 468 604 l 1
 199 604 l 1
 212 666 l 1
 480 666 l 1
EndSplineSet
EndChar

StartChar: Ubreve
Encoding: 364 364 300
Width: 722
GlyphClass: 2
Flags: MW
HStem: -10 76<275.5 389.5 275.5 409> 668 20G<159 252 252 252 634 727 727 727> 742 67<423.5 479.5 423.5 486.5>
VStem: 75 90<162.5 216 162.5 224.5> 159 93<688 688> 301 57<864 864>
LayerCount: 2
Fore
SplineSet
319 -10 m 0xf4
 168 -10 75 74 75 210 c 0xf4
 75 239 81 286 86 310 c 2
 159 688 l 1
 252 688 l 1xec
 173 276 l 2
 168 248 165 225 165 207 c 0
 165 118 224 66 327 66 c 0
 452 66 527 132 552 264 c 2
 634 688 l 1
 727 688 l 1
 644 259 l 2
 609 80 499 -10 319 -10 c 0xf4
446 742 m 0
 359 742 302 792 301 864 c 1
 358 864 l 1
 359 825 397 809 450 809 c 0
 509 809 548 827 569 864 c 1
 626 864 l 1
 593 785 527 742 446 742 c 0
EndSplineSet
EndChar

StartChar: ubreve
Encoding: 365 365 301
Width: 556
GlyphClass: 2
Flags: MW
HStem: -9 68<190.5 224.5> 0 21G<353 436 353 353> 508 20G<114 203 203 203 448 536 536 536> 586 72<310.5 366.5 310.5 374.5>
VStem: 42 90<113 139.5> 188 57<737 737> 353 83<0 1.5>
LayerCount: 2
Fore
SplineSet
114 528 m 1xbe
 203 528 l 1
 141 213 l 2
 135 184 132 160 132 140 c 0
 132 86 161 59 220 59 c 0xbe
 301 59 370 125 391 232 c 2
 448 528 l 1
 536 528 l 1
 455 113 l 2
 448 82 442 44 436 0 c 1
 353 0 l 2x7e
 353 3 355 16 358 37 c 0
 361 59 364 77 367 90 c 1
 365 90 l 1
 312 15 262 -9 187 -9 c 0
 91 -9 42 40 42 129 c 0
 42 150 45 177 52 209 c 2
 114 528 l 1xbe
333 586 m 0
 246 586 189 648 188 737 c 1
 245 737 l 1
 248 682 284 658 337 658 c 0
 396 658 435 684 456 737 c 1
 513 737 l 1
 480 641 416 586 333 586 c 0
EndSplineSet
EndChar

StartChar: Uring
Encoding: 366 366 302
Width: 722
GlyphClass: 2
Flags: MW
HStem: -10 76<275.5 389.5 275.5 409> 668 20G<159 252 252 252 634 727 727 727> 733 52<432.5 465.5> 917 52<429.5 465.5 416.5 468.5>
VStem: 75 90<162.5 216 162.5 224.5> 159 93<688 688> 331 52<835.5 869.5 834 884.5> 515 52<835.5 868 835.5 870.5>
LayerCount: 2
Fore
SplineSet
319 -10 m 0xfb
 168 -10 75 74 75 210 c 0xfb
 75 239 81 286 86 310 c 2
 159 688 l 1
 252 688 l 1xf7
 173 276 l 2
 168 248 165 225 165 207 c 0
 165 118 224 66 327 66 c 0
 452 66 527 132 552 264 c 2
 634 688 l 1
 727 688 l 1
 644 259 l 2
 609 80 499 -10 319 -10 c 0xfb
567 852 m 0
 567 819 555 791 532 768 c 0
 509 745 482 733 449 733 c 0
 416 733 388 745 365 768 c 0
 342 791 331 819 331 852 c 0
 331 917 384 969 449 969 c 0
 482 969 509 957 532 934 c 0
 555 911 567 884 567 852 c 0
515 852 m 0
 515 889 488 917 449 917 c 0
 410 917 383 887 383 852 c 0
 383 816 410 785 449 785 c 0
 488 785 515 815 515 852 c 0
EndSplineSet
EndChar

StartChar: uring
Encoding: 367 367 303
Width: 556
GlyphClass: 2
Flags: MW
HStem: -9 68<190.5 224.5> 0 21G<353 436 353 353> 508 20G<114 203 203 203 448 536 536 536> 570 52<320 352.5> 754 52<320 352.5 320 355.5>
VStem: 42 90<113 139.5> 218 53<672 704.5> 353 83<0 1.5> 402 53<672 704.5>
LayerCount: 2
Fore
SplineSet
114 528 m 1xbf
 203 528 l 1
 141 213 l 2
 135 184 132 160 132 140 c 0
 132 86 161 59 220 59 c 0
 301 59 370 125 391 232 c 2
 448 528 l 1
 536 528 l 1
 455 113 l 2xbe80
 448 82 442 44 436 0 c 1
 353 0 l 2x7f
 353 3 355 16 358 37 c 0
 361 59 364 77 367 90 c 1
 365 90 l 1
 312 15 262 -9 187 -9 c 0
 91 -9 42 40 42 129 c 0
 42 150 45 177 52 209 c 2
 114 528 l 1xbf
455 688 m 0
 455 656 443 628 420 605 c 0
 397 582 369 570 336 570 c 0
 304 570 276 582 253 605 c 0
 230 628 218 656 218 688 c 0
 218 721 230 749 253 772 c 0
 276 795 304 806 336 806 c 0
 369 806 397 794 420 771 c 0
 443 748 455 721 455 688 c 0
402 688 m 0
 402 727 375 754 336 754 c 0
 299 754 271 724 271 688 c 0
 271 653 299 622 336 622 c 0
 375 622 402 652 402 688 c 0
EndSplineSet
EndChar

StartChar: Uhungarumlaut
Encoding: 368 368 304
Width: 722
GlyphClass: 2
Flags: MW
HStem: -10 76<275.5 389.5 275.5 409> 668 20G<159 252 252 252 634 727 727 727>
VStem: 75 90<162.5 216 162.5 224.5> 159 93<688 688>
LayerCount: 2
Fore
SplineSet
319 -10 m 0xe0
 168 -10 75 74 75 210 c 0xe0
 75 239 81 286 86 310 c 2
 159 688 l 1
 252 688 l 1xd0
 173 276 l 2
 168 248 165 225 165 207 c 0
 165 118 224 66 327 66 c 0
 452 66 527 132 552 264 c 2
 634 688 l 1
 727 688 l 1
 644 259 l 2
 609 80 499 -10 319 -10 c 0xe0
346 747 m 1
 301 747 l 1
 302 757 l 1
 411 868 l 1
 512 868 l 1
 509 854 l 1
 346 747 l 1
516 747 m 1
 470 747 l 1
 471 757 l 1
 580 868 l 1
 681 868 l 1
 679 854 l 1
 516 747 l 1
EndSplineSet
EndChar

StartChar: uhungarumlaut
Encoding: 369 369 305
Width: 556
GlyphClass: 2
Flags: MW
HStem: -9 68<190.5 224.5> 0 21G<353 436 353 353> 508 20G<114 203 203 203 448 536 536 536>
VStem: 42 90<113 139.5> 353 83<0 1.5>
LayerCount: 2
Fore
SplineSet
114 528 m 1xb8
 203 528 l 1
 141 213 l 2
 135 184 132 160 132 140 c 0
 132 86 161 59 220 59 c 0xb8
 301 59 370 125 391 232 c 2
 448 528 l 1
 536 528 l 1
 455 113 l 2
 448 82 442 44 436 0 c 1
 353 0 l 2x78
 353 3 355 16 358 37 c 0
 361 59 364 77 367 90 c 1
 365 90 l 1
 312 15 262 -9 187 -9 c 0
 91 -9 42 40 42 129 c 0
 42 150 45 177 52 209 c 2
 114 528 l 1xb8
229 586 m 1
 184 586 l 1
 185 596 l 1
 308 736 l 1
 409 736 l 1
 407 722 l 1
 229 586 l 1
398 586 m 1
 353 586 l 1
 354 596 l 1
 478 736 l 1
 579 736 l 1
 576 722 l 1
 398 586 l 1
EndSplineSet
EndChar

StartChar: Uogonek
Encoding: 370 370 306
Width: 722
GlyphClass: 2
Flags: MW
HStem: -208 53<343 345.5> -10 76<275.5 319 319 325> 668 20G<159 252 252 252 634 727 727 727>
VStem: 75 90<162.5 216 162.5 224.5> 159 93<688 688> 247 70<-126.5 -103>
LayerCount: 2
Fore
SplineSet
333 -208 m 0xf4
 277 -208 247 -175 247 -126 c 0
 247 -80 278 -36 325 -10 c 1
 319 -10 l 2
 168 -10 75 74 75 210 c 0xf4
 75 239 81 286 86 310 c 2
 159 688 l 1
 252 688 l 1xe8
 173 276 l 2
 168 248 165 225 165 207 c 0
 165 118 224 66 327 66 c 0
 452 66 527 132 552 264 c 2
 634 688 l 1
 727 688 l 1
 644 259 l 2
 615 112 536 25 410 -1 c 1
 350 -32 317 -75 317 -115 c 0
 317 -138 331 -155 355 -155 c 0
 373 -155 392 -151 411 -144 c 1
 404 -195 l 1
 382 -204 358 -208 333 -208 c 0xf4
EndSplineSet
EndChar

StartChar: uogonek
Encoding: 371 371 307
Width: 556
GlyphClass: 2
Flags: MW
HStem: -208 53<350 352.5> -9 68<190.5 224.5> 508 20G<114 203 203 203 448 536 536 536>
VStem: 42 90<113 139.5> 253 71<-126.5 -99.5>
LayerCount: 2
Fore
SplineSet
340 -208 m 0
 283 -208 253 -175 253 -126 c 0
 253 -73 294 -23 354 0 c 1
 353 0 l 2
 353 3 355 16 358 37 c 0
 361 59 364 77 367 90 c 1
 365 90 l 1
 312 15 262 -9 187 -9 c 0
 91 -9 42 40 42 129 c 0
 42 150 45 177 52 209 c 2
 114 528 l 1
 203 528 l 1
 141 213 l 2
 135 184 132 160 132 140 c 0
 132 86 161 59 220 59 c 0
 301 59 370 125 391 232 c 2
 448 528 l 1
 536 528 l 1
 455 113 l 2
 448 82 442 44 436 0 c 1
 418 0 l 1
 358 -31 324 -74 324 -115 c 0
 324 -138 338 -155 362 -155 c 0
 380 -155 399 -151 418 -144 c 1
 411 -195 l 1
 389 -204 365 -208 340 -208 c 0
EndSplineSet
EndChar

StartChar: Wcircumflex
Encoding: 372 372 308
Width: 944
GlyphClass: 2
Flags: MW
HStem: 0 21G<156 265 156 156 578 687 578 578> 668 20G<86 183 183 183 509 599 599 599 924 1022 1022 1022>
LayerCount: 2
Fore
SplineSet
1022 688 m 1
 687 0 l 1
 578 0 l 1
 543 437 l 1
 535 595 l 1
 510 530 488 478 469 437 c 2
 265 0 l 1
 156 0 l 1
 86 688 l 1
 183 688 l 1
 221 251 l 2
 225 200 228 144 229 82 c 1
 255 143 276 192 293 229 c 2
 509 688 l 1
 599 688 l 1
 635 260 l 2
 640 210 643 151 644 82 c 1
 651 99 l 2
 667 136 680 166 689 189 c 0
 699 212 777 378 924 688 c 1
 1022 688 l 1
629 874 m 1
 715 757 l 1
 713 747 l 1
 667 747 l 1
 573 815 l 1
 572 815 l 1
 446 747 l 1
 391 747 l 1
 393 757 l 1
 529 874 l 1
 629 874 l 1
EndSplineSet
EndChar

StartChar: wcircumflex
Encoding: 373 373 309
Width: 722
GlyphClass: 2
Flags: MW
HStem: 0 21G<95 196 95 95 419 521 419 419> 508 20G<50 137 137 137 366 460 460 460 690 776 776 776>
VStem: 50 87<528 528>
LayerCount: 2
Fore
SplineSet
776 528 m 1
 521 0 l 1
 419 0 l 1
 401 341 l 1
 398 456 l 1
 389 431 380 410 372 391 c 2
 196 0 l 1
 95 0 l 1
 50 528 l 1
 137 528 l 1
 156 169 l 1
 160 73 l 1
 199 166 l 1
 366 528 l 1
 460 528 l 1
 481 166 l 2
 483 131 484 100 484 73 c 1
 495 98 563 250 690 528 c 1
 776 528 l 1
485 728 m 1
 569 596 l 1
 567 586 l 1
 522 586 l 1
 431 669 l 1
 430 669 l 1
 301 586 l 1
 244 586 l 1
 246 596 l 1
 386 728 l 1
 485 728 l 1
EndSplineSet
EndChar

StartChar: Ycircumflex
Encoding: 374 374 310
Width: 667
GlyphClass: 2
Flags: MW
HStem: 0 21G<235 328 235 235> 668 20G<104 200 200 200 623 727 727 727>
LayerCount: 2
Fore
SplineSet
383 285 m 1
 328 0 l 1
 235 0 l 1
 292 285 l 1
 104 688 l 1
 200 688 l 1
 349 359 l 1
 623 688 l 1
 727 688 l 1
 383 285 l 1
498 874 m 1
 584 757 l 1
 582 747 l 1
 536 747 l 1
 442 815 l 1
 441 815 l 1
 314 747 l 1
 259 747 l 1
 261 757 l 1
 398 874 l 1
 498 874 l 1
EndSplineSet
EndChar

StartChar: ycircumflex
Encoding: 375 375 311
Width: 500
GlyphClass: 2
Flags: MW
HStem: -208 69<-3.5 26.5 -9.5 38> 508 20G<55 144 144 144 453 550 550 550>
LayerCount: 2
Fore
SplineSet
8 -208 m 0
 -15 -208 -37 -206 -57 -201 c 1
 -42 -135 l 1
 -27 -138 -15 -139 -4 -139 c 0
 57 -139 102 -97 147 -17 c 2
 161 6 l 1
 55 528 l 1
 144 528 l 1
 199 236 l 2
 204 210 208 182 212 153 c 0
 217 124 219 105 219 96 c 1
 232 122 l 2
 237 133 311 268 453 528 c 1
 550 528 l 1
 245 0 l 2
 208 -63 179 -107 157 -132 c 0
 114 -183 68 -208 8 -208 c 0
385 728 m 1
 469 596 l 1
 467 586 l 1
 422 586 l 1
 331 669 l 1
 330 669 l 1
 201 586 l 1
 144 586 l 1
 146 596 l 1
 286 728 l 1
 385 728 l 1
EndSplineSet
EndChar

StartChar: Ydieresis
Encoding: 376 376 312
Width: 667
GlyphClass: 2
Flags: MW
HStem: 0 21G<235 328 235 235> 668 20G<104 200 200 200 623 727 727 727> 747 90<294 362 277 379 481 549 294 464>
LayerCount: 2
Fore
SplineSet
383 285 m 1
 328 0 l 1
 235 0 l 1
 292 285 l 1
 104 688 l 1
 200 688 l 1
 349 359 l 1
 623 688 l 1
 727 688 l 1
 383 285 l 1
549 747 m 1
 464 747 l 1
 481 837 l 1
 566 837 l 1
 549 747 l 1
362 747 m 1
 277 747 l 1
 294 837 l 1
 379 837 l 1
 362 747 l 1
EndSplineSet
EndChar

StartChar: Zacute
Encoding: 377 377 313
Width: 611
GlyphClass: 2
Flags: MW
HStem: 0 76<111 528> 612 76<149 508 135 639>
LayerCount: 2
Fore
SplineSet
543 76 m 1
 528 0 l 1
 -20 0 l 1
 -6 70 l 1
 508 612 l 1
 135 612 l 1
 149 688 l 1
 639 688 l 1
 625 620 l 1
 111 76 l 1
 543 76 l 1
390 747 m 1
 334 747 l 1
 335 757 l 1
 463 867 l 1
 564 867 l 1
 562 853 l 1
 390 747 l 1
EndSplineSet
EndChar

StartChar: zacute
Encoding: 378 378 314
Width: 500
GlyphClass: 2
Flags: MW
HStem: 0 68<112 403> 460 68<104 368 91 486>
LayerCount: 2
Fore
SplineSet
403 0 m 1
 -6 0 l 1
 5 67 l 1
 368 460 l 1
 91 460 l 1
 104 528 l 1
 486 528 l 1
 475 461 l 1
 112 68 l 1
 416 68 l 1
 403 0 l 1
282 586 m 1
 236 586 l 1
 238 596 l 1
 361 736 l 1
 467 736 l 1
 465 722 l 1
 282 586 l 1
EndSplineSet
EndChar

StartChar: Zdotaccent
Encoding: 379 379 315
Width: 611
GlyphClass: 2
Flags: MW
HStem: 0 76<111 528> 612 76<149 508 135 639> 747 84<357 428 340 445>
LayerCount: 2
Fore
SplineSet
543 76 m 1
 528 0 l 1
 -20 0 l 1
 -6 70 l 1
 508 612 l 1
 135 612 l 1
 149 688 l 1
 639 688 l 1
 625 620 l 1
 111 76 l 1
 543 76 l 1
428 747 m 1
 340 747 l 1
 357 831 l 1
 445 831 l 1
 428 747 l 1
EndSplineSet
EndChar

StartChar: zdotaccent
Encoding: 380 380 316
Width: 500
GlyphClass: 2
Flags: MW
HStem: 0 68<112 403> 460 68<104 368 91 486> 641 84<286 357 269 374>
LayerCount: 2
Fore
SplineSet
403 0 m 1
 -6 0 l 1
 5 67 l 1
 368 460 l 1
 91 460 l 1
 104 528 l 1
 486 528 l 1
 475 461 l 1
 112 68 l 1
 416 68 l 1
 403 0 l 1
357 641 m 1
 269 641 l 1
 286 725 l 1
 374 725 l 1
 357 641 l 1
EndSplineSet
EndChar

StartChar: Zcaron
Encoding: 381 381 317
Width: 611
GlyphClass: 2
Flags: MW
HStem: 0 76<111 528> 612 76<149 508 135 639>
LayerCount: 2
Fore
SplineSet
543 76 m 1
 528 0 l 1
 -20 0 l 1
 -6 70 l 1
 508 612 l 1
 135 612 l 1
 149 688 l 1
 639 688 l 1
 625 620 l 1
 111 76 l 1
 543 76 l 1
571 864 m 1
 439 747 l 1
 339 747 l 1
 248 864 l 1
 250 874 l 1
 295 874 l 1
 396 806 l 1
 517 874 l 1
 573 874 l 1
 571 864 l 1
EndSplineSet
EndChar

StartChar: zcaron
Encoding: 382 382 318
Width: 500
GlyphClass: 2
Flags: MW
HStem: 0 68<107 398> 460 68<98 362 86 481>
LayerCount: 2
Fore
SplineSet
398 0 m 1
 -11 0 l 1
 0 67 l 1
 362 460 l 1
 86 460 l 1
 98 528 l 1
 481 528 l 1
 469 461 l 1
 107 68 l 1
 410 68 l 1
 398 0 l 1
487 718 m 1
 352 586 l 1
 252 586 l 1
 164 718 l 1
 166 728 l 1
 213 728 l 1
 311 646 l 1
 312 646 l 1
 435 728 l 1
 489 728 l 1
 487 718 l 1
EndSplineSet
EndChar

StartChar: longs
Encoding: 383 383 319
Width: 222
GlyphClass: 2
Flags: MW
HStem: 0 21G<16 104 16 16> 656 69<284 290.5>
VStem: 16 321
LayerCount: 2
Fore
SplineSet
104 0 m 1
 16 0 l 1
 130 588 l 2
 150 689 194 725 279 725 c 0
 302 725 321 723 337 719 c 1
 325 652 l 1
 311 655 297 656 284 656 c 0
 245 651 232 648 216 576 c 2
 104 0 l 1
EndSplineSet
EndChar

StartChar: uni0180
Encoding: 384 384 320
Width: 556
GlyphClass: 2
Flags: MW
HStem: -10 65<232 282.5 226.5 328> 0 21G<14 99 14 14> 470 68<324.5 371.5> 589 64<69 144 82 131 231 368>
VStem: 434 91<332 390>
LayerCount: 2
Fore
SplineSet
69 589 m 1x78
 82 653 l 1
 144 653 l 1
 158 725 l 1
 246 725 l 1
 231 653 l 1
 380 653 l 1
 368 589 l 1
 219 589 l 1
 205 518 l 2
 201 497 195 475 188 450 c 1
 190 450 l 1
 238 511 286 538 363 538 c 0
 466 538 525 473 525 365 c 0
 525 299 515 235 495 173 c 0
 455 49 384 -10 272 -10 c 0xb8
 192 -10 142 26 121 87 c 1
 120 87 l 1
 99 0 l 1
 14 0 l 1
 17 8 25 44 38 109 c 2
 131 589 l 1
 69 589 l 1x78
338 470 m 0
 274 470 229 444 197 391 c 0
 181 364 168 331 159 291 c 0
 150 251 146 215 146 184 c 0
 146 103 190 55 263 55 c 0
 302 55 334 67 357 90 c 0
 380 114 399 153 413 206 c 0
 427 260 434 308 434 350 c 0
 434 430 405 470 338 470 c 0
EndSplineSet
EndChar

StartChar: uni0181
Encoding: 385 385 321
Width: 730
GlyphClass: 2
Flags: MW
HStem: 0 75<202 381 381 385> 323 73<250 426 264 426 426 429> 616 72<175.5 477 213 214>
VStem: 41 74<521 551 521 572.5> 579 93<169.5 250.5> 599 97<484.5 551.5>
LayerCount: 2
Fore
SplineSet
94 0 m 1xf8
 214 616 l 1
 206 616 l 2
 145 616 115 581 115 521 c 1
 117 497 l 1
 44 488 l 1
 42 497 41 507 41 517 c 0
 41 628 101 688 213 688 c 2
 477 688 l 2
 613 688 696 628 696 531 c 0xf4
 696 438 641 382 531 363 c 1
 620 348 672 291 672 214 c 0
 672 75 565 0 385 0 c 2
 94 0 l 1xf8
250 323 m 1
 202 75 l 1
 381 75 l 2
 518 75 579 123 579 216 c 0xf8
 579 285 525 323 429 323 c 2
 250 323 l 1
307 613 m 1
 264 396 l 1
 426 396 l 2
 541 396 599 438 599 521 c 0xf4
 599 582 555 613 468 613 c 2
 307 613 l 1
EndSplineSet
EndChar

StartChar: uni0182
Encoding: 386 386 322
Width: 651
GlyphClass: 2
Flags: MW
HStem: 0 74<138 320 320 325> 323 74<187 359 201 355> 612 76<243 602 243 243>
VStem: 500 95<163.5 245.5>
LayerCount: 2
Fore
SplineSet
30 0 m 1
 164 688 l 1
 616 688 l 1
 602 612 l 1
 243 612 l 1
 201 397 l 1
 359 397 l 2
 508 397 595 330 595 213 c 0
 595 78 493 0 325 0 c 2
 30 0 l 1
187 323 m 1
 138 74 l 1
 320 74 l 2
 440 74 500 119 500 208 c 0
 500 283 451 323 355 323 c 2
 187 323 l 1
EndSplineSet
EndChar

StartChar: uni0183
Encoding: 387 387 323
Width: 556
GlyphClass: 2
Flags: MW
HStem: -10 65<232 282.5 226.5 328> 0 21G<14 99 14 14> 470 68<324.5 371.5> 647 78<230 506 230 230>
VStem: 434 91<332 390>
LayerCount: 2
Fore
SplineSet
363 538 m 0x78
 466 538 525 473 525 365 c 0
 525 299 515 235 495 173 c 0
 455 49 384 -10 272 -10 c 0xb8
 192 -10 142 26 121 87 c 1
 120 87 l 1
 99 0 l 1
 14 0 l 1
 17 8 25 44 38 109 c 2
 158 725 l 1
 521 725 l 1
 506 647 l 1
 230 647 l 1
 210 542 200 483 188 450 c 1
 190 450 l 1
 238 511 286 538 363 538 c 0x78
338 470 m 0
 274 470 229 444 197 391 c 0
 181 364 168 331 159 291 c 0
 150 251 146 215 146 184 c 0
 146 103 190 55 263 55 c 0
 302 55 334 67 357 90 c 0
 380 114 399 153 413 206 c 0
 427 260 434 308 434 350 c 0
 434 430 405 470 338 470 c 0
EndSplineSet
EndChar

